/* XPM */
static char *ramen__1__removebg_preview__1_1705788341[] = {
/* columns rows colors chars-per-pixel */
"60 60 223 2 ",
"   c None",
".  c #040404",
"X  c #0B0B0A",
"o  c #080707",
"O  c #121211",
"+  c #1C1E1C",
"@  c #282B29",
"#  c #33312C",
"$  c #323733",
"%  c #353936",
"&  c #393E3B",
"*  c #383A37",
"=  c #302A24",
"-  c #3B403C",
";  c #3F4440",
":  c #414542",
">  c #444A46",
",  c #484E4A",
"<  c #4C524E",
"1  c #56544C",
"2  c #4F5551",
"3  c #515653",
"4  c #545A56",
"5  c #595D58",
"6  c #544F45",
"7  c #5C625E",
"8  c #786E60",
"9  c #787367",
"0  c #686C68",
"q  c #6E6053",
"w  c #9B5C28",
"e  c #9D663A",
"r  c #A5672E",
"t  c #A56936",
"y  c #AB733D",
"u  c #B4783B",
"i  c #A26D42",
"p  c #B57C40",
"a  c #A87C58",
"s  c #A0724C",
"d  c #88786D",
"f  c #847D70",
"g  c #896D4F",
"h  c #FDC737",
"j  c #FCC63A",
"k  c #FDC83A",
"l  c #F7C23B",
"z  c #BD8548",
"x  c #B4875A",
"c  c #AC8462",
"v  c #AE8B6D",
"b  c #B78C68",
"n  c #A58D79",
"m  c #B3957A",
"M  c #B39372",
"N  c #988B79",
"B  c #D29E5C",
"V  c #C8914D",
"C  c #D5A25D",
"Z  c #EFBF48",
"A  c #CC9D65",
"S  c #C09272",
"D  c #DCAB63",
"F  c #DAAC69",
"G  c #D6A664",
"H  c #D8AC75",
"J  c #E4B46A",
"K  c #ECBC6C",
"L  c #E6B86A",
"P  c #E5B972",
"I  c #EBBD72",
"U  c #E8BB78",
"Y  c #F9C947",
"T  c #F6CA55",
"R  c #CCE85F",
"E  c #D7D866",
"W  c #D2DA74",
"Q  c #EBC269",
"!  c #F9D36A",
"~  c #EEC274",
"^  c #ECC37A",
"/  c #E9CD74",
"(  c #F3C97C",
")  c #F2C677",
"_  c #E7D977",
"`  c #F5D276",
"'  c #CDE964",
"]  c #CBF464",
"[  c #CCF56C",
"{  c #D2EC7A",
"}  c #CEF672",
"|  c #CFF778",
" . c #D2F67D",
".. c #D1F87B",
"X. c #D7E371",
"o. c #838682",
"O. c #9D8F89",
"+. c #9B8B84",
"@. c #9D908A",
"#. c #979997",
"$. c #AC9A85",
"%. c #A3958B",
"&. c #B69C84",
"*. c #A59E9A",
"=. c #A39993",
"-. c #B9A28C",
";. c #A8A29D",
":. c #BFAC9B",
">. c #ABA6A3",
",. c #ACA9A7",
"<. c #ABACAB",
"1. c #A6A2A0",
"2. c #AFB0AE",
"3. c #B2B1AD",
"4. c #BFB5AB",
"5. c #B3B5B3",
"6. c #BBBAB5",
"7. c #BBBDBA",
"8. c #B7B8B7",
"9. c #B0AEAC",
"0. c #C4A686",
"q. c #C5AC97",
"w. c #DCAB96",
"e. c #DDAE99",
"r. c #DAA792",
"t. c #C9B39B",
"y. c #DCB196",
"u. c #DEB39A",
"i. c #DCB99B",
"p. c #D9A987",
"a. c #E1B59D",
"s. c #E2B99E",
"d. c #E2B792",
"f. c #C8B9A8",
"g. c #D6BAA6",
"h. c #C7BFB4",
"j. c #E4BCA2",
"k. c #E3BCA9",
"l. c #BFC1BD",
"z. c #D9CD8F",
"x. c #EBC785",
"c. c #F3CC83",
"v. c #F1CA86",
"b. c #F5D38C",
"n. c #F7D585",
"m. c #E3C599",
"M. c #E8D399",
"N. c #F4D797",
"B. c #D9EA87",
"V. c #D6FA8C",
"C. c #D4F885",
"Z. c #D9F793",
"A. c #DFE89A",
"S. c #E3E88B",
"D. c #D9C3A9",
"F. c #C1C2BE",
"G. c #CCC5B9",
"H. c #DBC8B7",
"J. c #E6C2A5",
"K. c #E8C3A6",
"L. c #E3C3AC",
"P. c #E9C5A8",
"I. c #ECCDAC",
"U. c #E6C9A8",
"Y. c #EED0AE",
"T. c #EBD4A5",
"R. c #F4DCAA",
"E. c #F1D7A8",
"W. c #E5CBB4",
"Q. c #EDCFB1",
"!. c #E5C6B1",
"~. c #EED1B1",
"^. c #E6D4BD",
"/. c #EAD5BD",
"(. c #E7D9B9",
"). c #F1D4B3",
"_. c #F4D9B9",
"`. c #F4D8B7",
"'. c #F6E3A9",
"]. c #F3E2B7",
"[. c #E8E7B3",
"{. c #BFC0C1",
"}. c #C2C5C2",
"|. c #C6C9C6",
" X c #CACECA",
".X c #C8CAC5",
"XX c #D2CDC4",
"oX c #CED1CD",
"OX c #D2D3CC",
"+X c #DCD8C9",
"@X c #CFD3D0",
"#X c #D3D6D1",
"$X c #D5D9D3",
"%X c #DADBD3",
"&X c #D9DED9",
"*X c #EBDBC4",
"=X c #EBDDCA",
"-X c #E4DAC6",
";X c #E4DFD5",
":X c #DDE2DD",
">X c #EDE2C5",
",X c #EEE5CD",
"<X c #E4E0CF",
"1X c #F3EBCB",
"2X c #F1E7C5",
"3X c #ECE5D4",
"4X c #EFECD5",
"5X c #EDEADB",
"6X c #E2E3D7",
"7X c #F3ECD3",
"8X c #F2EBDB",
"9X c #F2F0DB",
"0X c #DFE4E1",
"qX c #E1E6E3",
"wX c #ECEEEA",
"eX c #EBEAE4",
"rX c #ECF0ED",
"tX c #F2F3EA",
"yX c #F0F4E0",
"uX c #EDF3F3",
"iX c #F1F6F6",
"pX c #F1F7F8",
"aX c #F1F8F9",
/* pixels */
"                                                                                                                        ",
"                                                                                                                        ",
"                                                                                                                        ",
"                                                                                                                        ",
"                                                                                                                        ",
"                                                                                                                        ",
"                                                                                                                        ",
"                                                                                                                        ",
"                                            4             , 4                                                           ",
"                                      - > > , 4 ; * * & & ; 3                                                           ",
"                            4 5   * & & - - - < , & - - - & : 4                                                         ",
"                      * & - > 4 : & - - - - - - 2 - - - - - > 3 #.%X$X#X                                                ",
"                    & & & - - , < - - - & - - - , , & & - - < 5 0 5.7.}..XoX#X                                          ",
"                * - - - - - - < 4 : - - - - - - ; 3 % & - - ; 4 < #.<.<.<.2.8.}.oX                                      ",
"              * - - - - - - ; 4 7 < & - - - - - - < - + & & - ; 3 o.|.7.2.<.<.<.2.l.oX                                  ",
"              * - - & - - - - ; < 4 $ $ - - - - - > 3 + + @ % & < 0 G.;X;X X7.<.<.<.8..XoX                              ",
"                & - - - - - & & - > ; O @ - - - * - 4 - . O 6 d f 9 g b *X5X-XOX{.<.<.<.}.oX                            ",
"                + % - & - - - ; - - ; + X + # 5 8 9 8 5 * $.~._.).Y.U.J.~.*X/.D.^.XX8.<.<.7.oX                          ",
"                o O * & - - - & - - - @ . = $.~.`.`.Y.g.t.).Y.Y.I.).).`.Y.Y.`.Y.I.D.f.h.<.<.7.OX                        ",
"                  o X + & ; & & - - 1 8 8 -.).).Y.Y.Y.Y.`.I.U.I.I.Y.Y.U.I.).I.I.Y.Q.P.W.G.<.<.F.#X                      ",
"                  X . . O + = * 1 N D.~.`._.~.P.I.Y.Y.Y.Y.Y.I.I.I.I.U.U.I.).I.j.j.I.Q.Y./..X<.<..X                      ",
"                    + . . . X 8 D.~.I.I.I.I.).~.U.I.Y.Y.I.Y.I.J.Y.P.U.Y.Y.I.Q.j.w.s.Q.I.Q.Q.h.<.2.oX                    ",
"                  $Xo.X . X q Q.).I.P.j.u.u.j.Y.Y.I.U.Y.Y.I.I.y.s.Y.I.I.Y.I.`.~.a.a.I.Y.Q.Y.Q.g.<.F.#X                  ",
"                  #X3.: # n a.j.K.j.K.K.j.w.w.K.K.I.P.I.Y.I.I.s.I.~.I.Y.~.I.~.~.K.I.Y.Y.Y.K.I.).f.<.oX                  ",
"                  |.<.>.t.k.j.a.a.a.j.j.j.I.w.s.j.P.s.I.Y.I.I.i.Y.I.I.Y.~.I.Y.U.I.I.Q.P.I.J.U.~.~.4.{.@X                ",
"                #X7.<.g.e.w.e.e.e.e.r.j.j.k.i.r.a.j.J.I.Y.I.j.s.I.I.Y.Y.I.Y.m.y.M.T.~.j.I.s.P.Y.~.h.5.oX                ",
"                #X2.f.e.j.a.e.a.a.a.e.e.K.a.i.r.a.i.K.I.K.j.w.y.P.I.Y.U.T.A.{ { ] { B.M.K.s.K.Y.~.D.<..X                ",
"                @X<.f.w.P.s.j.P.j.a.j.e.I.K.s.r.j.w.s.a.i.e.p.e.K././.[.B.} [ V.Z.} ..[ W M.I.P.I.f.<.l.#X              ",
"                 X2.H.a.I.).`.`.`.`.Y.K.U.Y.s.j.i.u.k.!.W.!.k.=X7X].A...] ]  .V.C.V.C.} [ B.T.I.~.S >.8.$X              ",
"              #X Xh.*XQ.).Y.Y.I.Y.Y.Y.`.s.a.s.W.;X8X8X7X8XiXtXR.c.`  .} ] C.Z.| [ | ] } C.| z.j.I.b =.8.$X              ",
"              $X.Xh.Q.a.K.K.a.a.a.K.I.Q.I.w.s.R.N.b.b.b.b.N.E._ S.E ] ] | ] ] |  .[ [ } } ..W m.p.z $.5.#X              ",
"              $X.Xg.a.w.w.w.a.e.w.e.j.P.).a.U ` N._.,X,XR.b.( _ Z.} [ E E E E E R ' [ V.V.V.[ ' _ P $.8.#X              ",
"              #XOXg.a.k.a.j.a.j.j.r.e.I.).s.c.n.>XaXaXaXaXtX].N.`.[. .L I ^ I K Q Q ) _ W R R ] _ C M 8.$X              ",
"                +Xg.j.I.Q.a.r.a.K.w.e.Q.~.J.v.b.8XiXiXiXaXaXaXyXR.N.E.M.A A A G D L ) c.) K Q ` ) u n 7.$X              ",
"                $Xg.K.Q.j.r.r.K.P.e.!.3XwXwX8X>XeXpXiXiXaXaXaXiXuX].( ].m.Q c.~ L L K ) ) Q D ` L t %..X$X              ",
"                #XG.I.P.e.r.a.I.a.j.eXpXiXiXaXpXiXrXiXiX1X'.2XtXpX5X^ ^ c.P F D D D K I ( c.A P L t ;.#X$X              ",
"                 XOXJ.k.e.e.e.e.s.^.iXpXiXiXiXaXaXiXtX'.Y k Y ! 9XwXv.J J ~ ~ Q K K K ~ ^ ) F ~ C s 6.&X                ",
"                  $Xg.j.j.K.P.P.I.=XuXpXaXiXaXaXtXtXiXn.k k k h n.uXT.Q L L ^ ^ K K ~ P F F K K u n #X$X                ",
"                  @X.XS d.Q.).).).>XuXaXiXiX1Xn.! ! 2X1XT k k h ! iX(.F L J F F D G P ^ P D L B i F.&XoX                ",
"                   X#X&.t H Y.E.Y.^.wXaXiX4XT k h h T 7XN.h k k N.aX<X( ) b.].R.E.).^.*X].M.G r &.&X}.                  ",
"                    #XOXc w A v.x.d.3XuXaXE.l k k k k '.2XY j ! 9XuX-XN.R.>X>X3X9X4X/.W.!.*Xx c $X}.<.                  ",
"                     XoXOXa r C Q ( (.rXaXN.l j k k k '.rXM.R.9XuX6X:X>X/.W.L.L.,X>XW.L.k.*Xq.G.|.<.                    ",
"                      8. XOXv w r Q M.:XuX2XY l k k Y 1XuX:X:XqX:X:X5X,X*XW.W.L.3X4XD.L.^.+X$X{.<.<.                    ",
"                      <.3.}.#X-.e V ^ >X0XrXT.T Y T '.uXqX:X:X:X:X>X4X,XL.J.L.*XyX4X>X3X%XoXl.2.<.                      ",
"                        <.<.7.#XG.v y b XX:XqX3X>X4XrX0X%X-X+X(.v.c.1X9X3X<X4X(.D.H.+X%XoX5.<.<.<.                      ",
"                          <.<.5.oX&Xf.v c f.%X:X0X0X:X+Xx.( ( ~ ~ ( x.m.z.-.0.c v f.#X}.2.<.<.<.                        ",
"                            <.<.<.6.oX:XG.f.:.G.OX:XG.a r V B y y y y i c v t.G.:X|.8.<.<.<.<.                          ",
"                              <.<.<.<.8.oX&X:X$XOX@Xf.&.m m m -.:.t.F.oX:X:X$Xl.5.<.<.<.<.<.                            ",
"                                <.<.<.<.<.5.6. X%X&X:X0X0X:X0X:X:X:X&X#XF.3.;.*.<.<.<.2.<.                              ",
"                                  <.<.<.<.*.O.O.*.,.6.F.F.7.7.6.;.>.3.=.@.O.@.@.<.<.<.                                  ",
"                                      <.<.,.*.@.+.O.1.1.*.;.<.*.d @.;.@.O.=.>.,.<.                                      ",
"                                          <.<.<.>.>.<.<.<.<.<.,.;.>.<.,.<.<.2.                                          ",
"                                                <.<.<.<.<.<.<.<.<.<.<.<.<.                                              ",
"                                                          <.<.<.                                                        ",
"                                                                                                                        ",
"                                                                                                                        ",
"                                                                                                                        ",
"                                                                                                                        ",
"                                                                                                                        ",
"                                                                                                                        "
};
