/* XPM */
static char *frame_00_delay_0_1s__3_1706266210[] = {
/* columns rows colors chars-per-pixel */
"80 70 256 2 ",
"   c None",
".  c #070F17",
"X  c #070F17",
"o  c #0A121A",
"O  c #071019",
"+  c #11161C",
"@  c #15191D",
"#  c #1C1C1F",
"$  c #0D1621",
"%  c #0E1824",
"&  c #0F1C28",
"*  c #141424",
"=  c #131A24",
"-  c #1A1D22",
";  c #1C162C",
":  c #131D29",
">  c #1E182E",
",  c #161428",
"<  c #1F1930",
"1  c #1F1730",
"2  c #251E2D",
"3  c #20172F",
"4  c #221B33",
"5  c #261E38",
"6  c #2B1F3B",
"7  c #1A222C",
"8  c #15202F",
"9  c #142333",
"0  c #1D2532",
"q  c #1A273B",
"w  c #242324",
"e  c #2D2627",
"r  c #2B2A2B",
"t  c #282628",
"y  c #332B29",
"u  c #392E2B",
"i  c #37302B",
"p  c #212936",
"a  c #23233B",
"s  c #2B243B",
"d  c #262E3D",
"f  c #2A323F",
"g  c #26313F",
"h  c #373535",
"j  c #312C3B",
"k  c #42362A",
"l  c #483A2D",
"z  c #453B35",
"x  c #534233",
"c  c #594838",
"v  c #4F4237",
"b  c #644C38",
"n  c #6D513B",
"m  c #71563E",
"M  c #1C2E43",
"N  c #1C3146",
"B  c #1E354C",
"V  c #2B2541",
"C  c #202D45",
"Z  c #212F48",
"A  c #372848",
"S  c #283040",
"D  c #20344C",
"F  c #313642",
"G  c #333A47",
"H  c #213951",
"J  c #263E59",
"K  c #253A54",
"L  c #442F54",
"P  c #4D325D",
"I  c #413C54",
"U  c #413F40",
"Y  c #553665",
"T  c #5B3A6B",
"R  c #573A67",
"E  c #2B415E",
"W  c #27405C",
"Q  c #394454",
"!  c #3A424F",
"~  c #2E4867",
"^  c #2D4765",
"/  c #324B6C",
"(  c #3B5479",
")  c #395377",
"_  c #4E4E4E",
"`  c #484546",
"'  c #434552",
"]  c #535253",
"[  c #6C5541",
"{  c #785A40",
"}  c #5B5971",
"|  c #49586F",
" . c #5B616B",
".. c #64656A",
"X. c #696B7B",
"o. c #846545",
"O. c #9E754B",
"+. c #977956",
"@. c #A67A4D",
"#. c #A97E53",
"$. c #8B7E78",
"%. c #8D7864",
"&. c #A07F61",
"*. c #B48759",
"=. c #AF8256",
"-. c #8C837B",
";. c #AB8862",
":. c #BC9266",
">. c #C0905D",
",. c #C49663",
"<. c #CC9E6A",
"1. c #C69967",
"2. c #C19C78",
"3. c #CEA16D",
"4. c #D2A36D",
"5. c #CCA373",
"6. c #C7A17A",
"7. c #D2A672",
"8. c #D6A873",
"9. c #D7AA77",
"0. c #3E5B82",
"q. c #415D85",
"w. c #415F88",
"e. c #784A87",
"r. c #44618A",
"t. c #4A648B",
"y. c #4F688E",
"u. c #496692",
"i. c #4C6996",
"p. c #4E6D9C",
"a. c #516E9B",
"s. c #5B759D",
"d. c #53719E",
"f. c #5C6F8E",
"g. c #62718A",
"h. c #747C8E",
"j. c #62789C",
"k. c #7A7C94",
"l. c #5B78A4",
"z. c #617BA5",
"x. c #845194",
"c. c #8E579E",
"v. c #798192",
"b. c #6A82A9",
"n. c #798EB2",
"m. c #788DB0",
"M. c #8E8E92",
"N. c #BDAD9C",
"B. c #949AB2",
"V. c #8D95AA",
"C. c #A29FA9",
"Z. c #9AA3BD",
"A. c #ADAFB8",
"S. c #D5AE83",
"D. c #D3AE89",
"F. c #DCB385",
"G. c #D9B48B",
"H. c #DBB996",
"J. c #D9B999",
"K. c #C7AC8F",
"L. c #E1BB92",
"P. c #C8B6A4",
"I. c #E5C29B",
"U. c #EAC69C",
"Y. c #EAC49A",
"T. c #F0CA9F",
"R. c #EDCDAA",
"E. c #E7C6A3",
"W. c #F2D7BB",
"Q. c #97A7C6",
"!. c #A5ACC4",
"~. c #A9AFC7",
"^. c #A5B1CC",
"/. c #ACB3CB",
"(. c #ACB3C5",
"). c #B2B9CD",
"_. c #B0B6C9",
"`. c #ADB8D2",
"'. c #B4BCD4",
"]. c #B9BFD2",
"[. c #BAC2D9",
"{. c #BBC1D6",
"}. c #CBC9CF",
"|. c #C1C4D3",
" X c #C5CADD",
".X c #C7C9D7",
"XX c #CED0DC",
"oX c #D1CDCE",
"OX c #F6DEC4",
"+X c #F8DFC7",
"@X c #F5DEC8",
"#X c #E9DACD",
"$X c #F9E1CA",
"%X c #F6E0C9",
"&X c #C8CEE0",
"*X c #CDD1E1",
"=X c #DCDCE5",
"-X c #DBDDE8",
";X c #D0D4E4",
":X c #DFE0E8",
">X c #E4E5ED",
",X c #E8E7E9",
"<X c #E8E7EA",
"1X c #E7E7F0",
"2X c #E8E8F0",
"3X c black",
"4X c black",
"5X c black",
"6X c black",
"7X c black",
"8X c black",
"9X c black",
"0X c black",
"qX c black",
"wX c black",
"eX c black",
"rX c black",
"tX c black",
"yX c black",
"uX c black",
"iX c black",
"pX c black",
"aX c black",
"sX c black",
"dX c black",
"fX c black",
"gX c black",
"hX c black",
"jX c black",
"kX c black",
"lX c black",
"zX c black",
"xX c black",
"cX c black",
"vX c black",
"bX c black",
"nX c black",
"mX c black",
"MX c black",
"NX c black",
"BX c black",
"VX c black",
"CX c black",
"ZX c black",
"AX c black",
"SX c black",
"DX c black",
"FX c black",
"GX c black",
"HX c black",
"JX c black",
"KX c black",
"LX c black",
"PX c black",
"IX c black",
"UX c black",
/* pixels */
"                                                                                                                                                                ",
"                                                                                                                                                                ",
"                                                                                                                                                                ",
"                                                                      o 7 S S S S S S                                                                           ",
"                                                                          = : d S S S S S S                                                                     ",
"                                                            o o d d S S S 0 p g S S S S S S S S                                                                 ",
"                                                                o $ d d S S S S S S S S S S S S S                                                               ",
"                                                                    = = d S S S p S S S S S S S S S                                                             ",
"                                                              o 0 S S d S S S 0 = d S S p p S S p p S S                                                         ",
"                                                                o 7 0 d S S 0 o d S d 0 X X d 8 o o 0                                                           ",
"                                                                    o d S 7 o 7 d S d o x c [ x o o X                                                           ",
"                                                                  o 0 : = X o d S d : m H.I.H.,.+ o o o                                                         ",
"                                                                o 0 = o X o o d S S o.<.OX$X$XR.&.+ o o o                                                       ",
"                                                              o 0 $ o o + o.+ d S g h i 6.W.OXW.#.+ o                                                           ",
"                                                            o o o o o o @ ,.@ p S G |.S w S.OXD.w o o                                                           ",
"                                          , ,                   o o o o @ :.@ o d G oX....OX$X#X] o X                                                           ",
"                                        @ k k ,                   o o o o b o o d F 7.$X$X$XR.OX1.@ o                                                           ",
"                                      o m ,.D.@ o                 o o o X o x o 7 F 3.D.D.D.I.D.c o                                                             ",
"                                    o t #.>.2.@ o o                     X + @.+ o F 5.H.H.H.6.l X o                                                             ",
"                                    o u 1.E.J.@ o o                   o o + @.o.+ f *.F.F.:.i   o o                                                             ",
"                                    o u *.:.h o = V.=           : : 7 t.q.7 @.#.w d w i y w $   o                                                               ",
"                                    : y ;.K.- t = (.= p   p p G (.).).'.b.s.&.<.1.` y :.#.g.u.9 o                                                               ",
"                                  $ t.= : = e t ! XX7 !.] ]. X>X>X1X2X-X'.`.s.=.8.F.F.8.F.5.s.b.o                                                               ",
"                                  $ u.5 N 4 e = '.=X7 |.2X2X2X2X2X>X'.&X&X Xn.$.8.R.OXI.OXH.l.=X..                                                              ",
"                                  $ i.a g.4 e + ).:XM.>X2X2X2X2X2X*Xl.>X2X2X*Xl.:.,.I.U.OX@XM.*X:X=                                                             ",
"                                    D s /.s - h.'.1X2X2X2X2X2X1X&Xm.E -X2X2X>XZ.=.1.E.R.OX+XR.{.=X=                                                             ",
"                                      s !.V | '.[. X>X1X1X1X>X[.b.q = {.>X2X>X{.h.8.OX$X$X$X@X[.>XA.                                                            ",
"                                    s }.I q.i.l.`.'.[.[.[./.j.g 8 o t.'.>X2X2X-Xz.;.W.$X$X$X@X|.>X'.=                                                           ",
"                                    s ,Xs = % : t.t.t.t.t.7 % M N $ d.'.[.>X2X>X'.j.7.W.W.OXOXS.].y.o                                                           ",
"                                    s ,Xs       o o o o o     4 M $ a.Q.[.-X1X2X>Xm.%.8.L.OXOXH._.: o                                                           ",
"                                    s XXs                       > $ p.l.'.[.1X2X>X&Xn.<.OX$X$X$X).o X                                                           ",
"                                    4 ~.s                           E l.'.[.;X2X2X2X*X$.I.Y.I.A.'.X.o                                                           ",
"                                  s C.}                             o a.'.[.[.*X2X2X1XQ.M.4.5.s.'.'.= o                                                         ",
"                                  s 2Xs                             $ i.b.'./.! ' ' _ XXQ.v.6.s.^.! o o                                                         ",
"                                  s ,Xs                         o o o 9 9 d d M M M M f d 9 f.9 d M N 7                                                         ",
"                                  s =Xs                         o M B B B B M N H H H B N & ( & N H K (.=                                                       ",
"                                  4 /.s                           o M D D Z A A Z M D D D M = M D M % u.O                                                       ",
"                                  X.k.s                           o ; > , 5 c.c.5 X ; > > > > > > > $ b. .                                                      ",
"                                s 2Xs                             o Y R o 4 Y Y ; P T T T T T T R 4 = '.-X+                                                     ",
"                                s ,Xs                             o P L T 4 T 5 R L P P P P P P P 4 = /. XV.=                                                   ",
"                                s ].s                             o q o x.s x.6 x.o M M M $ M M M M : /.[.-X7                                                   ",
"                                a ~.s                             o B > A e.A * x.4 D H B o B H H B % z.'.[.B.=                                                 ",
"                                ' B.s                             % D V 5 x.5 = x.5 D H B o B H W B : r.^.^.y.$                                                 ",
"                              s ,Xj                             o N 5 x.6 x.5 o x.4 B H B o M H 0.~ B % ) ( 7                                                   ",
"                              s ,Xs                             o B 5 x.6 x.6 A T o ~ H B o o D / 0./ o k r _ o                                                 ",
"                              s .Xs                             o B 5 x.6 x.6 Y * E p.K B o o H i.q ) = @.v h o                                                 ",
"                              s !.s                           o q D 5 x.6 x.5 = / p./ H B o o H / / : + O.# e o                                                 ",
"                              s !.s                           o B D 5 x.6 x.6 ( p.~ H H B o ; : B ~ ) $ u +.- ;                                                 ",
"                            s }.I                           o o % % 5 e.6 x.s u.W J q.B % > > o N H W N o r M D 4                                               ",
"                            s -Xs                           % J J J V s 5 e.a H ^ w.D $ > 4 4 > $ N N B o   4 D D 4                                             ",
"                            s ~.s                         o D q.r.r.q.H 0 a ^ ~ ) M o o > 4 3 3 > $ o q o     4 Z D a                                           ",
"                            s !.s                         o B H H H H H / M / / o X o o > 4 a a 4 > o X o       4 Z D 4                                         ",
"                            4 /.s                         o 9 9 9 9 9 9 J * * X o o o o > 4 D H C q o               a 4                                         ",
"                          s k.}                             X X * * * * * > * o o o o o > 4 D H H B o                                                           ",
"                          s /.4                             o ; 4 4 Z Z 4 > o X o o o o > 4 D H H B o                                                           ",
"                          s Z.s                             o > 4 D H D < o           o > 4 D H H B o                                                           ",
"                          4 s                               o < D H H D > o             o > 4 D D N o                                                           ",
"                                                            o < M H N M o               o ; 1 4 4 < o                                                           ",
"                                                            o 2 j d 2 o o                 o 2 2 2 * o                                                           ",
"                                                            o e _ z y o                   o e y e o                                                             ",
"                                                            o U _ _ -                     o e y e o                                                             ",
"                                                          o t _ _ h o                     o e y e o                                                             ",
"                                                          o e z ] u o                     o e y e @                                                             ",
"                                                          o x 5.9.5.@                     o t y u O.y w                                                         ",
"                                                          @ ;.P.P.N.o                     o c y u 3.4.o.# o                                                     ",
"                                                        o [ -.%.-.-.c                     @ *.u u ,.,.u y [ l c                                                 ",
"                                                        @ 8.U.<.T.T.8.@                   o b y y n n y u o.{ o.+                                               ",
"                                                        o [ [ b [ [ [ o                   o + @ @ + + @ @ + + + o                                               ",
"                                                        o o o o o o o o                                                                                         ",
"                                                                                                                                                                "
};
