/* XPM */
static char *frame_00_delay_0_1s__1_1706265865[] = {
/* columns rows colors chars-per-pixel */
"80 80 16 1 ",
"  c None",
". c #081018",
"X c #201830",
"o c #302828",
"O c #283040",
"+ c #203850",
"@ c #505050",
"# c #B08050",
"$ c #D8A870",
"% c #5070A0",
"& c #9058A0",
"* c #B8C0D8",
"= c #F8E0C8",
"- c #E8E8F0",
"; c white",
": c black",
/* pixels */
"                                                                                ",
"                                                                                ",
"                                   ..OOOOOO                                     ",
"                                     .OOOOOOO                                   ",
"                                      ..OOOOOOO                                 ",
"                               ..OOOOOOOOOOOOOOOO                               ",
"                                 ..OOOOOOOOOOOOOOO                              ",
"                                   ..OOOOOOOOOOOOOO                             ",
"                                .OOOOOOOO.OOOOOOOOOOO                           ",
"                                 .OOOOOO.OOOO..OO..O                            ",
"                                  ..OOO..OOO...O....                            ",
"                                   .OO..OOOO.####...                            ",
"                                  .O....OOO.#===$....                           ",
"                                 .O.....OOO#$====$....                          ",
"                                .O....#.OOO..$===#..                            ",
"                               .......$.OOO-O.$=$...                            ",
"                      XX         .....$..OO-OO==-O..                            ",
"                     ...X         ....#..OO$=====$..                            ",
"                    .o##..       ........OO$===$=#.                             ",
"                    .#$=..          ...#..O$###=#..                             ",
"                   .o###...          ..#..O$===#...                             ",
"                   .o$==...         ...##.O#$$#. ..                             ",
"                   .o##...*.     ...%%.##.O..... .                              ",
"                   .o$=.o.*.. ...****%%#$$O.$#%%..                              ",
"                  .%...oo.-.*.**-----**%#$$$$$$%%.                              ",
"                  .%X+Xo.*-.*-------***%#$==$=$%-.                              ",
"                  .%X+Xo.*-.-------%---*%$$====%--.                             ",
"                  .%X*Xo.*--------*%----%##$$==$*-.                             ",
"                   .X*X.**-------*%.----*#$=====*-.                             ",
"                    X*X%***-----*%..*---*%$=====*--                             ",
"                   X;X%%%******%...%*----%#=====*-*.                            ",
"                   X;X...%%%%%..++.%**---*%$====$*%.                            ",
"                   X;X   .....  X+.%**----%#$$==$*..                            ",
"                   X;X           X.%%**---*%$====*..                            ",
"                   X*X            .%%**----*#====*..                            ",
"                   X*X             .%***----%$$$%**..                           ",
"                  X;X              .%****---*%$$%**..                           ",
"                  X;X              .%%**....-*%$%*...                           ",
"                  X;X            .......++++...%..++.                           ",
"                  X;X            .++++++++++++.%.+++-.                          ",
"                  X*X             .++++XX++++++.+++.%.                          ",
"                  X*X             .XXXX&&X.XXXXXXXX.%.                          ",
"                 X;X              .XX.X&&X.XXXXXXXX.*-.                         ",
"                 X;X              .&&.XXX.&&&&&&&&X.*-.                         ",
"                 X;X              .X.&X&X&.XXXXXXXX.**-.                        ",
"                 X*X              .+.&X&X&.+++.++++.**-.                        ",
"                 X*X              .+XX&X.&X+++.++++.%***.                       ",
"                 X*X              .+XX&X.&X+++.++++.%**%.                       ",
"                X;X              .+X&X&X.&X+++.++%++.%%.                        ",
"                X;X              .+X&X&X.&.+++..++%+...@.                       ",
"                X;X              .+X&X&X&X.%++..+%+%.#@@.                       ",
"                X*X             ..+X&X&XX.%%++..+%.+.#oo.                       ",
"                X*X             .++X&X&X.%%+++..++%..#.o.                       ",
"                X*X             .++X&X&X%%++++.X.++%..$.X                       ",
"               X;X             ....X&X&X%++%+.XX.++++..++X                      ",
"               X;X             .+++XXX&X++%+.XXXX.+++. X++X                     ",
"               X*X            .+%%%%+XX++%+..XXXXX..+.  X++X                    ",
"               X*X            .++++++++%%....XXXXXX...   X++X                   ",
"               X*X            .++++++%.......XX++XX.      X+X                   ",
"               X*X            ........XX.....XX++++.       XX                   ",
"              X*X              ..XXXXXX......XX++++.                            ",
"              X*X              .XXX++XX......XX++++.                            ",
"              X*X              .XX+++X.     .XX++++.                            ",
"              XX               .X++++X.      .XX+++.                            ",
"                               .X++++.       .XXXXX.                            ",
"                               .XX+X..        .XXXX.                            ",
"                               .o@oo.         .ooo.                             ",
"                               .o@@o.         .ooo.                             ",
"                               .@@@.          .ooo.                             ",
"                              .o@@o.          .ooo.                             ",
"                              .oo@o.          .ooo.                             ",
"                              .o$$$.          .ooo#..                           ",
"                              .$===.          .ooo$$#..                         ",
"                             .o@@@@.          .$oo$$ooo..                       ",
"                             .$=$==$.         .#oo##oo$#$.                      ",
"                             .$$#$$$.         .oooooooooo.                      ",
"                             .oooooo.         ............                      ",
"                             ........                                           ",
"                                                                                ",
"                                                                                "
};
