/* XPM */
static char *madara_11706041791[] = {
/* columns rows colors chars-per-pixel */
"60 60 164 2 ",
"   c None",
".  c #0F0E14",
"X  c #121013",
"o  c #131117",
"O  c #1D1417",
"+  c #15141B",
"@  c #13151C",
"#  c #16151C",
"$  c #18151D",
"%  c #18161D",
"&  c #18181E",
"*  c #1A181E",
"=  c #210D0F",
"-  c #210F15",
";  c #2C1215",
":  c #221118",
">  c #221319",
",  c #25131A",
"<  c #2F131B",
"1  c #2C151C",
"2  c #2D151D",
"3  c #201A1F",
"4  c #2A1D1C",
"5  c #321017",
"6  c #361118",
"7  c #361219",
"8  c #32161F",
"9  c #34161D",
"0  c #381319",
"q  c #39121A",
"w  c #3E151B",
"e  c #3A171C",
"r  c #381B1A",
"t  c #39191E",
"y  c #1C1820",
"u  c #1F1B24",
"i  c #201B20",
"p  c #251B22",
"a  c #251F25",
"s  c #2A1920",
"d  c #2C1D27",
"f  c #2E1F26",
"g  c #3F1721",
"h  c #311821",
"j  c #331B25",
"k  c #3E1B20",
"l  c #3E1B23",
"z  c #3E1A26",
"x  c #1F2431",
"c  c #2A2123",
"v  c #24232A",
"b  c #2D212B",
"n  c #28212C",
"m  c #2C212D",
"M  c #2B292F",
"N  c #2C292E",
"B  c #352229",
"V  c #36292D",
"C  c #292330",
"Z  c #2D2734",
"A  c #272935",
"S  c #282A31",
"D  c #2E2D33",
"F  c #262C3C",
"G  c #2A2E3E",
"H  c #302937",
"J  c #332F37",
"K  c #342E3A",
"L  c #362D3D",
"P  c #353135",
"I  c #353037",
"U  c #3B3033",
"Y  c #3B363B",
"T  c #3A363E",
"R  c #42121C",
"E  c #40171C",
"W  c #43161F",
"Q  c #44171C",
"!  c #411A1F",
"~  c #501B21",
"^  c #501923",
"/  c #541E23",
"(  c #511C24",
")  c #551D24",
"_  c #551C27",
"`  c #581B25",
"'  c #5A1B27",
"]  c #5C1E27",
"[  c #5E1F29",
"{  c #611D29",
"}  c #611F2A",
"|  c #472227",
" . c #422329",
".. c #48242F",
"X. c #472F32",
"o. c #412F35",
"O. c #4C2C31",
"+. c #423537",
"@. c #433839",
"#. c #55393D",
"$. c #65202A",
"%. c #67212C",
"&. c #67202D",
"*. c #6B202F",
"=. c #69232E",
"-. c #742233",
";. c #782435",
":. c #782436",
">. c #792536",
",. c #2C3142",
"<. c #2D3243",
"1. c #2C3144",
"2. c #2C3244",
"3. c #2E3344",
"4. c #2F3447",
"5. c #383040",
"6. c #3B3442",
"7. c #3A3941",
"8. c #3C3941",
"9. c #3C3C43",
"0. c #3C3D46",
"q. c #3A3D49",
"w. c #403B40",
"e. c #463A40",
"r. c #453E43",
"t. c #413E45",
"y. c #433E44",
"u. c #433E46",
"i. c #453A4F",
"p. c #473F4D",
"a. c #5D3F42",
"s. c #4E4246",
"d. c #454048",
"f. c #46434B",
"g. c #44454F",
"h. c #4F4548",
"j. c #4A404C",
"k. c #49454C",
"l. c #4B494D",
"z. c #5E4143",
"x. c #4B4151",
"c. c #4B4651",
"v. c #4D4950",
"b. c #4C4D54",
"n. c #554C51",
"m. c #504E56",
"M. c #535258",
"N. c #5A585C",
"B. c #63474C",
"V. c #69504A",
"C. c #69514C",
"Z. c #685552",
"A. c #595962",
"S. c #5D5C64",
"D. c #64636C",
"F. c #68686F",
"G. c #74676A",
"H. c #6F6D75",
"J. c #6F6E75",
"K. c #716F78",
"L. c #72717A",
"P. c #807E84",
"I. c #91888D",
"U. c #959395",
/* pixels */
"                                                                                                                        ",
"                                                                                                                        ",
"                                                                                                                        ",
"                                                                                                                        ",
"                                                                                                                        ",
"                                                                                                                        ",
"                                                                                                                        ",
"                                                                                                                        ",
"                                                                                                                        ",
"                                                                                                                        ",
"                                                                                                                        ",
"                                                                                                                        ",
"                                                                                                                        ",
"                                                                                                                        ",
"                                                                                                                        ",
"                                                                                                                        ",
"                                                                                                                        ",
"                                                          F.J.                                                          ",
"                                                        q.1.<.g.                                                        ",
"                                                      S.<.4.1.G A.                                                      ",
"                                                      b.F 2.A v 0.                                                      ",
"                                                      P % v r.C.Y                                                       ",
"                                                       .R + Z.V.U                                                       ",
"                                                    z.^ ! . a p X.                                                      ",
"                                                  a.( 2 V 4 d f r B.                                                    ",
"                                                  O.< # n t ` ) - |                                                     ",
"                                                  r.y # - ' :.-.h B                                                     ",
"                                                  S C # 5 *.:.:.z 7.                                                    ",
"                                                  S i c : q [ =.9 r.                                                    ",
"                                                P.9.& 3 s 7 Q { w @.                                                    ",
"                                                  M.% ; ~ 7 w =.q O N.                                                  ",
"                                                  U.+./ ] , e =.l , r.                                                  ",
"                                                    #.{ _ m l $...b s.                                                  ",
"                                                    o.! h L 2 W j L w.                                                  ",
"                                                    T Z Z i.a o . 6.c.                                                  ",
"                                                    k.K 6.x.J N D 8.                                                    ",
"                                                      L.J.      J.D.                                                    ",
"                                                      b.        t.f.                                                    ",
"                                                    l.K         u.p.I.                                                  ",
"                                                    h.n.        v.p.G.                                                  ",
"                                                                                                                        ",
"                                                                                                                        ",
"                                                                                                                        ",
"                                                                                                                        ",
"                                                                                                                        ",
"                                                                                                                        ",
"                                                                                                                        ",
"                                                                                                                        ",
"                                                                                                                        ",
"                                                                                                                        ",
"                                                                                                                        ",
"                                                                                                                        ",
"                                                                                                                        ",
"                                                                                                                        ",
"                                                                                                                        ",
"                                                                                                                        ",
"                                                                                                                        ",
"                                                                                                                        ",
"                                                                                                                        ",
"                                                                                                                        "
};
