/* XPM */
static char *frame_00_delay_0_1s1706265354[] = {
/* columns rows colors chars-per-pixel */
"60 60 256 2 ",
"   c None",
".  c #050E16",
"X  c #080F17",
"o  c #060F19",
"O  c #091017",
"+  c #0A121A",
"@  c #071017",
"#  c #12161C",
"$  c #15181E",
"%  c #181A1D",
"&  c #201F1F",
"*  c #0D1621",
"=  c #0E1A26",
"-  c #0F1D2A",
";  c #151425",
":  c #121A24",
">  c #1B162B",
",  c #141D2B",
"<  c #19192C",
"1  c #191727",
"2  c #1B1D32",
"3  c #231E27",
"4  c #211A33",
"5  c #291F38",
"6  c #19212D",
"7  c #182028",
"8  c #152333",
"9  c #1D2633",
"0  c #152739",
"q  c #1E233A",
"w  c #16283A",
"e  c #1A2A3E",
"r  c #232324",
"t  c #292625",
"y  c #2F2926",
"u  c #2B2629",
"i  c #26282C",
"p  c #322A29",
"a  c #332B27",
"s  c #3C322B",
"d  c #34302A",
"f  c #2C2D33",
"g  c #212139",
"h  c #2B243D",
"j  c #262E3D",
"k  c #212937",
"l  c #29303D",
"z  c #25303E",
"x  c #33343C",
"c  c #393736",
"v  c #43392E",
"b  c #443A32",
"n  c #4C3E32",
"m  c #4B4138",
"M  c #524335",
"N  c #5B493A",
"B  c #614D3A",
"V  c #6F563E",
"C  c #75593D",
"Z  c #1A2D43",
"A  c #1E344A",
"S  c #212A43",
"D  c #212740",
"F  c #3C2A4C",
"G  c #3B274A",
"H  c #283040",
"J  c #21334B",
"K  c #25384E",
"L  c #283749",
"P  c #3A344B",
"I  c #343E4C",
"U  c #383946",
"Y  c #213952",
"T  c #283B56",
"R  c #323B52",
"E  c #393451",
"W  c #363F60",
"Q  c #442D54",
"!  c #423D53",
"~  c #463159",
"^  c #4C335C",
"/  c #4D3661",
"(  c #543664",
")  c #593969",
"_  c #603C6F",
"`  c #613C70",
"'  c #3F424A",
"]  c #27415D",
"[  c #2B415F",
"{  c #3E4552",
"}  c #2C4462",
"|  c #2F4B6A",
" . c #314564",
".. c #324A6B",
"X. c #394F6D",
"o. c #374F71",
"O. c #365174",
"+. c #3A567C",
"@. c #4D4A49",
"#. c #424159",
"$. c #4C465B",
"%. c #474B59",
"&. c #48515E",
"*. c #685745",
"=. c #7A5E42",
"-. c #70604F",
";. c #71675C",
":. c #404D60",
">. c #495569",
",. c #57576C",
"<. c #4B5F7E",
"1. c #5E646F",
"2. c #626179",
"3. c #666678",
"4. c #716E7F",
"5. c #76717F",
"6. c #876543",
"7. c #8C7051",
"8. c #A27E57",
"9. c #997D61",
"0. c #8D7D70",
"q. c #8F8171",
"w. c #AC8D6B",
"e. c #B78D61",
"r. c #B1967A",
"t. c #B69067",
"y. c #C1925F",
"u. c #C19567",
"i. c #C59F75",
"p. c #C6A179",
"a. c #D5AB7C",
"s. c #D2A26B",
"d. c #3F5D84",
"f. c #455C80",
"g. c #576B8C",
"h. c #5D7190",
"j. c #53698C",
"k. c #716E80",
"l. c #697286",
"z. c #747381",
"x. c #73748C",
"c. c #787788",
"v. c #7E7F94",
"b. c #6B6B83",
"n. c #72819D",
"m. c #7E828A",
"M. c #6781AB",
"N. c #788BAB",
"B. c #8C888C",
"V. c #898B9A",
"C. c #928E9B",
"Z. c #98959C",
"A. c #968C82",
"S. c #AE9D8D",
"D. c #B19C88",
"F. c #9D9AA4",
"G. c #969AA6",
"H. c #8A9BBA",
"J. c #8699BC",
"K. c #8692AB",
"L. c #9DA0A8",
"P. c #9CA3B6",
"I. c #A5A9B5",
"U. c #A8AEBF",
"Y. c #ACB0BC",
"T. c #ADA5A1",
"R. c #CAA885",
"E. c #D8B38B",
"W. c #D2AD88",
"Q. c #E6BB8A",
"!. c #E5BE92",
"~. c #CABBAF",
"^. c #E4C19B",
"/. c #E8C49C",
"(. c #DBC5AF",
"). c #E9C8A5",
"_. c #EAD1B9",
"`. c #F4D9BD",
"'. c #F3D7B9",
"]. c #98A6C3",
"[. c #A2AFCB",
"{. c #A0AAC1",
"}. c #A4B1CE",
"|. c #B4B9C8",
" X c #B2BBD3",
".X c #B7BED4",
"XX c #ACB9D2",
"oX c #BEC1CF",
"OX c #BFC8DC",
"+X c #BAC1D7",
"@X c #C5CADC",
"#X c #D4CCCD",
"$X c #F7DDC2",
"%X c #E9D4C0",
"&X c #F9E1CA",
"*X c #F8E0C7",
"=X c #C9CEE1",
"-X c #CAD0E3",
";X c #D3D6E4",
":X c #DCDEEA",
">X c #E4E5EE",
",X c #EAEAF2",
"<X c #E7E7F1",
"1X c black",
"2X c black",
"3X c black",
"4X c black",
"5X c black",
"6X c black",
"7X c black",
"8X c black",
"9X c black",
"0X c black",
"qX c black",
"wX c black",
"eX c black",
"rX c black",
"tX c black",
"yX c black",
"uX c black",
"iX c black",
"pX c black",
"aX c black",
"sX c black",
"dX c black",
"fX c black",
"gX c black",
"hX c black",
"jX c black",
"kX c black",
"lX c black",
"zX c black",
"xX c black",
"cX c black",
"vX c black",
"bX c black",
"nX c black",
"mX c black",
"MX c black",
"NX c black",
"BX c black",
"VX c black",
"CX c black",
"ZX c black",
"AX c black",
"SX c black",
"DX c black",
"FX c black",
"GX c black",
"HX c black",
"JX c black",
"KX c black",
"LX c black",
"PX c black",
"IX c black",
"UX c black",
/* pixels */
"                                                                                                                        ",
"                                                                                                                        ",
"                                                                                                                        ",
"                                                                                                                        ",
"                                                                                                                        ",
"                                                  + 9 j H H H                                                           ",
"                                                    , , j H H H H                                                       ",
"                                              , 9 H H j H H H H H H                                                     ",
"                                                , 6 j H j j H H H H H                                                   ",
"                                              6 j j H j 6 k H 9 9 j 9 k                                                 ",
"                                                : k j , , H 9 % r f + +                                                 ",
"                                                : 6 : + j j f 9.R.t.r .                                                 ",
"                                              : , + + # j l =.^.&X'.7.@ +                                               ",
"                                            + : + . M b j U %.*.)._.*.@                                                 ",
"                                >             @ + . B m , { F.' (._.U .                                                 ",
"                              r s 1             + . d t : U W.%X`.`.9.@                                                 ",
"                            % 6.i.r               + + v # x i.W.E.R.b                                                   ",
"                            y e.p.r .               X C a f p./.R.M .                                                   ",
"                            a u.0.# { l         ,  .J 6.C 9 M *.s   .                                                   ",
"                          8 f 9.@.# l.I l I %.G.U.}.M.0.u.-.B 8.3.] +                                                   ",
"                          K K , 3 x I.,.G.oX:X,X,X;X+XN.e.!.!.Q.D.N.H                                                   ",
"                          K W R 3 { @Xm.>X,X,X,XXX@X>X XB.a.).`.~.|.L.                                                  ",
"                          e R x.3 x.;X<X,X,X,X-Xh.|.,X:XZ.y.^.'.`.#XI.                                                  ",
"                            $.l.o.}.@X:X>X>X.Xg.8 P.,X>X{.r.$X&X&X#X;XG.                                                ",
"                            F.#.} <.J.J.J.l.K , T }.:X,XOXB.).&X&X(.+X>.                                                ",
"                            F.P     e e e   2 e T ].=X<X<XH.r.!.$X).G.,                                                 ",
"                            V.!               ; T M. X:X,X-XZ.^.&X&XG.+                                                 ",
"                            x.P                 8 j..X@X<X,XoXS.Q.T.[.%..                                               ",
"                          z.z.                    f.[. XV.Z.I.].r.B.].{ .                                               ",
"                          c.5.                + + e R %.e 0 L &.:.>.I e 9                                               ",
"                          4.3.                * e A A e A Y A Z Z A Z K l.                                              ",
"                          2.,.                  : q q ) / 8 q q 2 2 q , X.6                                             ",
"                        $.C.                    4 G ; ) ( h Q Q Q Q G 1 P.z.                                            ",
"                        $.Z.                    h ^ Q Q F ^ ^ / ^ / Q < P.Y.U                                           ",
"                        ! c.                    , g ) ( ( F Z Z , A A 8 K.=X1.                                          ",
"                        ! x.                    8 g ^ F F ^ A A 8 Y Y 8 g.+Xn.*                                         ",
"                        C.$.                  = e ( ( F F ~ A A , A O.Y J j.L                                           ",
"                        F.P                   = D ` ( ~ ^ h } A + w O.O.i b x +                                         ",
"                        v.P                   - D _ ( Q g ..+.A + e O.A c V u +                                         ",
"                        x.P                 + Z S ` ( Q ..d.T A * , T } r B u ;                                         ",
"                      5.k.                  + - < ( ( / +.} ..8 > ; Z ] e r z Z                                         ",
"                      z.2.                  J o. .S G E ] O.8 ; 4 > 1 0 e o q J D                                       ",
"                      2.,.                = ] ..| T J .. ., + ; 4 4 > # *     g J D                                     ",
"                      2.,.                * w w 0 Z J 1 + . @ ; g J g 1         g g                                     ",
"                    E b.                    + ; 1 1 1 ; + + + ; g Y Y 8                                                 ",
"                    #.x.                    ; 4 S J > + @ + @ ; g Y Y 8                                                 ",
"                    h $.                    ; S Y J 1         ; 2 S Y 8                                                 ",
"                                            ; S J w +           1 4 4 ;                                                 ",
"                                            1 x f #             # u 3 +                                                 ",
"                                            r @.c #             % p r                                                   ",
"                                          + c @.i               % p r                                                   ",
"                                          # b *.a               % p y 1                                                 ",
"                                          r w./.;.              % y M 7.M                                               ",
"                                          m q.A.;.              v B M s.N a s d                                         ",
"                                        # w.a.E.W.b             y n s V s N =.n                                         ",
"                                        + b n M M 7             + # $ # $ # # +                                         ",
"                                          . . . .                                                                       ",
"                                                                                                                        ",
"                                                                                                                        ",
"                                                                                                                        "
};
