/* XPM */
static char *itachi_21706633732[] = {
/* columns rows colors chars-per-pixel */
"60 60 256 2 ",
"   c None",
".  c #070706",
"X  c #0B0A0B",
"o  c #080809",
"O  c #1C0C0C",
"+  c #110A0A",
"@  c #0D0E12",
"#  c #180F12",
"$  c #0E1015",
"%  c #0E1118",
"&  c #121216",
"*  c #13151C",
"=  c #1A161D",
"-  c #14181F",
";  c #1C1115",
":  c #250D0E",
">  c #2C0E0E",
",  c #2C100F",
"<  c #26110C",
"1  c #33120E",
"2  c #290F11",
"3  c #231215",
"4  c #2C1311",
"5  c #221519",
"6  c #2A1C17",
"7  c #341112",
"8  c #3C1112",
"9  c #391719",
"0  c #2C221F",
"q  c #3A211A",
"w  c #151923",
"e  c #1B1B24",
"r  c #161C29",
"t  c #1A1E2A",
"y  c #161721",
"u  c #211A21",
"i  c #271B26",
"p  c #3D1C22",
"a  c #1C212D",
"s  c #1E2025",
"d  c #1E2534",
"f  c #1E263C",
"g  c #23242C",
"h  c #39232A",
"j  c #222633",
"k  c #232837",
"l  c #22293B",
"z  c #292C3D",
"x  c #292B36",
"c  c #362633",
"v  c #2D3038",
"b  c gray23",
"n  c #33313A",
"m  c #441414",
"M  c #4A1414",
"N  c #471B1B",
"B  c #551619",
"V  c #5C191E",
"C  c #591618",
"Z  c #471D0F",
"A  c #611817",
"S  c #64191A",
"D  c #67191B",
"F  c #701A1D",
"G  c #4E2015",
"H  c #522115",
"J  c #6A3B1D",
"K  c #72321A",
"L  c #471E23",
"P  c #5C1C22",
"I  c #531B21",
"U  c #661D22",
"Y  c #761C20",
"T  c #7A1D24",
"R  c #46282C",
"E  c #5C2929",
"W  c #57392A",
"Q  c #432B34",
"!  c #492731",
"~  c #4B323B",
"^  c #6A222B",
"/  c #642428",
"(  c #71292F",
")  c #722126",
"_  c #683C21",
"`  c #612B33",
"'  c #682A30",
"]  c #673839",
"[  c #723336",
"{  c #714222",
"}  c #64443D",
"|  c #1F2840",
" . c #232A41",
".. c #2A2F42",
"X. c #2C3144",
"o. c #2E334A",
"O. c #313345",
"+. c #3A3B44",
"@. c #32354B",
"#. c #35394D",
"$. c #393A4D",
"%. c #3B3548",
"&. c #323750",
"*. c #363951",
"=. c #3B3C54",
"-. c #3B3E59",
";. c #45384A",
":. c #543442",
">. c #53384D",
",. c #53374C",
"<. c #453D54",
"1. c #653040",
"2. c #763F46",
"3. c #3E4155",
"4. c #3E4059",
"5. c #49454E",
"6. c #4B4B52",
"7. c #414159",
"8. c #464557",
"9. c #564E53",
"0. c #754D48",
"q. c #654C58",
"w. c #6E564D",
"e. c #6F605B",
"r. c #424561",
"t. c #4A4B63",
"y. c #4B4C69",
"u. c #474864",
"i. c #4F506F",
"p. c #535365",
"a. c #55566B",
"s. c #5C5E6A",
"d. c #5B5866",
"f. c #545473",
"g. c #585878",
"h. c #585775",
"j. c #675A64",
"k. c #755862",
"l. c #5F6072",
"z. c #66646C",
"x. c #7A6368",
"c. c #646372",
"v. c #6D6D7C",
"b. c #75747B",
"n. c #851C23",
"m. c #881E26",
"M. c #8A242B",
"N. c #8E353C",
"B. c #91353C",
"V. c #8A2D35",
"C. c #B0581F",
"Z. c #83593A",
"A. c #975936",
"S. c #864325",
"D. c #98633B",
"F. c #BA622D",
"G. c #B56A3A",
"H. c #C97030",
"J. c #94454B",
"K. c #91484E",
"L. c #9A474D",
"P. c #874C53",
"I. c #80555D",
"U. c #9F555A",
"Y. c #AF7556",
"T. c #9A5D62",
"R. c #8E646E",
"E. c #897077",
"W. c #8F6A70",
"Q. c #A2767A",
"!. c #C97E48",
"~. c #B5836D",
"^. c #C78456",
"/. c #DA9158",
"(. c #D08F62",
"). c #D69A6B",
"_. c #E19E67",
"`. c #DFA26E",
"'. c #E3A573",
"]. c #727480",
"[. c #7B7D89",
"{. c #927D82",
"}. c #AD7D81",
"|. c #87868D",
" X c #928C94",
".X c #9D8D97",
"XX c #919199",
"oX c #A38885",
"OX c #B5979A",
"+X c #B3888C",
"@X c #A7A6AA",
"#X c #A9A9A9",
"$X c #ABA1A5",
"%X c #B8A4A8",
"&X c #B6B6B7",
"*X c #C6A180",
"=X c #EEB88A",
"-X c #EBB585",
";X c #E5BB97",
":X c #F2BB8A",
">X c #F6C497",
",X c #F9CEA4",
"<X c gray82",
"1X c black",
"2X c black",
"3X c black",
"4X c black",
"5X c black",
"6X c black",
"7X c black",
"8X c black",
"9X c black",
"0X c black",
"qX c black",
"wX c black",
"eX c black",
"rX c black",
"tX c black",
"yX c black",
"uX c black",
"iX c black",
"pX c black",
"aX c black",
"sX c black",
"dX c black",
"fX c black",
"gX c black",
"hX c black",
"jX c black",
"kX c black",
"lX c black",
"zX c black",
"xX c black",
"cX c black",
"vX c black",
"bX c black",
"nX c black",
"mX c black",
"MX c black",
"NX c black",
"BX c black",
"VX c black",
"CX c black",
"ZX c black",
"AX c black",
"SX c black",
"DX c black",
"FX c black",
"GX c black",
"HX c black",
"JX c black",
"KX c black",
"LX c black",
"PX c black",
"IX c black",
"UX c black",
/* pixels */
"                                                        X X X                                                           ",
"                                                    & a $.7.=.j *                                                       ",
"                                                @ d 7.f.g.g.g.f.7...t                                                   ",
"                                              @ t 4.g.g.g.g.g.g.g.h.7.g                                                 ",
"                                              * o.f.g.g.g.i.-.f.h.r.y.t.t                                               ",
"                                            $ d &.h.g.g.f...d z #. .=.f.O.&                                             ",
"                                            $ f &.y.y.g.-.* O.b.z.f l u.O.@                                             ",
"                                            $ f o.-.r.g.o.$ X.s.8.z a =.e .                                             ",
"                                            $ f  . .r.y. .% z 6.$.#.g =.t .                                             ",
"                                            X w z i #.*.p.! ~ D.0.c : =.g                                               ",
"                                            O ; R K t z oXY.^.>X;X~.m @.e O 4                                           ",
"                                          o > : 4 Z w = Y.>X:X-X_.).H r * B T 8 o                                       ",
"                                            @ k j @ * & W ).)./.`.A.m 3 7 D U 7                                         ",
"                                              y ..@.$.$.$.R W ).Z.m C 8 M C :                                           ",
"                                              $ d ..o.=.<.^ 6 W , V A D m +                                             ",
"                                            X * t d d ..O.U 1 J e 8 F m X                                               ",
"                                          $ k =.=.@...#.<.^ 4 ] k 7 Y 7 @ X                                             ",
"                                        @ z =.7.7.=.=.7.<.^ 5 =.z B Y > r y o                                           ",
"                                      X z =.7.7.=.X.@.7.<.^ # ..O.I Y > r ..@                                           ",
"                                      X X.7.7.7.@.a @.7.<.^ ; d  .! B 5 d @.y                                           ",
"                                      a =.7.7.=.d y @.7.<.^ 3 d | h 1 y l o.a o                                         ",
"                                      z 7.7.7.*.w y @.7.7.:.P = f e 7 4 a ....$                                         ",
"                                      z 7.7.=.X.w = @.7.*.<.U & f w 7 > r l *.j o                                       ",
"                                    * X.7.7.=.l w y @.4...;./ O y w > > @ d @.X.X                                       ",
"                                    * @.7.7.=.l w y @.7.o.#.;.L O o o o X k @.O.@                                       ",
"                                    * @.7.7.=.l w y X.=.=...=.%.H J _ < @ #.=.X.=                                       ",
"                                    * @.7.7.=.l w y l #.=...k } ^.=X^.m @ k l l y                                       ",
"                                  $ d o.7.7.=.l w y l #.=.n 0.;X,X>XZ.= d f l d *                                       ",
"                                  * f @.7.7.=.l y - l #.=.0 !.'.=X/.J r l r y $ o                                       ",
"                                  y X.@.7.7.=.l y y l #.X.6 G.H.!.F._ ;.4.t $ * .                                       ",
"                                & z @.@.7.7.=.l w y l #.X.u K C.{ H N L q.8.y a @                                       ",
"                                = =.=.=.7.7.=.X.d y a =.8.#.9.E , : B A ` c.a f y                                       ",
"                                = =.7.7.7.7.7.#.l * +.].@XE.x.q.m > / ] q.:.j d d y                                     ",
"                                = =.7.7.7.7.7.#.l a t 6. X}.V.) m > [ P.' ` d.t d t @                                   ",
"                                = =.7.7.7.@.=.@.l l y w #.$XB.n.m m n.m.( j.$.@ & @                                     ",
"                                = =.7.7.7.X.l l d t r $ j z.K.L.V B J.U.k.4.t o                                         ",
"                                = =.7.7.#.l d y y y y y d X.c.E.P B R. Xp.*.t o                                         ",
"                              . * @.$.$.O.y 3 m ! 6.l l l #.=.>.V B 1.-.7.=.t o                                         ",
"                                  & & & & X m / ] E.[.8.=.4.4.>.V 8 ` <.7.=.j o                                         ",
"                                          o M / 0.T.}..Xa.=.4.>.V o V :.4.=.@.y                                         ",
"                                          o M A F m.m.+X[.8.4.>.P o V :.7.a.p.5.X                                       ",
"                                          o M A F J.K.N.%Xl.=.>.P @ N E 5.|.{.' X                                       ",
"                                          o M A F J.oXoXQ. Xt.>.V y e V Q $.v.2.N                                       ",
"                                          o M U ( m.N.K.B.%Xa.,.V y d 6 U c o.d.x.+.                                    ",
"                                          o M ] I.M.M.M.T. Xt.>.V *  .= D c l @.4.O.*                                   ",
"                                          & q.j.j.OXOXOX|.t.4.>.P = f d 9 p k f z ..d @                                 ",
"                                          X z X.X.p.c.l.8.=.7.7.~ 7 r  .* 9 k f l l k $                                 ",
"                                          o t l d ..o.=.7.7.7.7.:.8 y l * 9 k d a y y @                                 ",
"                                          o t d d d d k @.$.$.O.= # r | * 9 t * @                                       ",
"                                          o X @ * * * @ @ & & X % f f f * X X                                           ",
"                                              e d.s.$.@         @ $.s.d.e                                               ",
"                                              b &X#X6.            6.#X&Xb                                               ",
"                                              b <X&X6.            6.&X<Xb                                               ",
"                                              n @XXX5.            6.&X&Xv                                               ",
"                                              g l.4.a             6.#X].z *                                             ",
"                                            X a r.t.k @           6. Xv.h.e._ O                                         ",
"                                            @ @.x.~.Y.W &         x v.v.oX(.F.S.G                                       ",
"                                            @ 5.Y.G.G.A.q         % 8.$.+.Q h R 5                                       ",
"                                            @ t g u e u #                       o                                       ",
"                                                                                                                        "
};
