/* XPM */
static char *NARUTO_KURAMA_fotor_20240120221828__1_1705785621[] = {
/* columns rows colors chars-per-pixel */
"60 60 240 2 ",
"   c None",
".  c #010100",
"X  c #0B0401",
"o  c #080A06",
"O  c #140803",
"+  c #151007",
"@  c #240B04",
"#  c #2C0C04",
"$  c #320E05",
"%  c #2C1606",
"&  c #361604",
"*  c #352707",
"=  c #36341B",
"-  c #2A2514",
";  c #461707",
":  c #521C0A",
">  c #621F0B",
",  c #492A03",
"<  c #5A2407",
"1  c #543500",
"2  c #5A3B02",
"3  c #4D2B0C",
"4  c #68240A",
"5  c #77290C",
"6  c #643A02",
"7  c #7E3B07",
"8  c #783812",
"9  c #652D13",
"0  c #603223",
"q  c #5D4B18",
"w  c #694505",
"e  c #744901",
"r  c #7D4D01",
"t  c #744209",
"y  c #7D5306",
"u  c #6F5616",
"i  c #7D631F",
"p  c #59562B",
"a  c #534D2E",
"s  c #645A28",
"d  c #745129",
"f  c #666638",
"g  c #7A763D",
"h  c #79632A",
"j  c #604B45",
"k  c #7D7E46",
"l  c #842B0E",
"z  c #8C2B0E",
"x  c #82270B",
"c  c #86380A",
"v  c #94380D",
"b  c #9C3311",
"n  c #973D18",
"m  c #942F10",
"M  c #A83612",
"N  c #BC3C15",
"B  c #B23713",
"V  c #B53932",
"C  c #C23D15",
"Z  c #894704",
"A  c #855300",
"S  c #885804",
"D  c #965905",
"F  c #994807",
"G  c #A9460D",
"H  c #BC4714",
"J  c #B85214",
"K  c #B45211",
"L  c #9C6300",
"P  c #976B11",
"I  c #AD6D00",
"U  c #A56C05",
"Y  c #B87501",
"T  c #B57511",
"R  c #AF5825",
"E  c #8E7031",
"W  c #A57339",
"Q  c #B36D35",
"!  c #915425",
"~  c #C9550D",
"^  c #D75C0E",
"/  c #CA4216",
"(  c #D74617",
")  c #CE5213",
"_  c #DA5615",
"`  c #C64F0F",
"'  c #E64B19",
"]  c #E74B18",
"[  c #E95316",
"{  c #EB5B13",
"}  c #E7511D",
"|  c #EA5B1C",
" . c #E75518",
".. c #F05E12",
"X. c #D7620D",
"o. c #C77B02",
"O. c #D67709",
"+. c #DC6619",
"@. c #C86A0F",
"#. c #ED6B0E",
"$. c #EE640F",
"%. c #F16E0E",
"&. c #E47409",
"*. c #EC730C",
"=. c #E77A09",
"-. c #F2740D",
";. c #F37C0B",
":. c #F97E09",
">. c #E26311",
",. c #ED6312",
"<. c #EE6A12",
"1. c #ED6C1B",
"2. c #E96617",
"3. c #EC7518",
"4. c #F27A13",
"5. c #F27517",
"6. c #F26913",
"7. c #E85A23",
"8. c #E95F28",
"9. c #DE692C",
"0. c #D87935",
"q. c #CB712D",
"w. c #EB6B2E",
"e. c #EA6528",
"r. c #EE7929",
"t. c #F07D27",
"y. c #EC7233",
"u. c #EB7B37",
"i. c #E96D30",
"p. c #997A41",
"a. c #8E7540",
"s. c #BB4E52",
"d. c #CF785C",
"f. c #958236",
"g. c #AE8C31",
"h. c #D48300",
"j. c #DD8B00",
"k. c #C98308",
"l. c #E68802",
"z. c #FA8D05",
"x. c #F68309",
"c. c #F98409",
"v. c #F78708",
"b. c #E99302",
"n. c #FC9204",
"m. c #F39A02",
"M. c #FE9C01",
"N. c #F9930C",
"B. c #FB9C0D",
"V. c #F48717",
"C. c #F99615",
"Z. c #E09212",
"A. c #FFA201",
"S. c #FFAA0C",
"D. c #FCA608",
"F. c #FFAD14",
"G. c #FBA61B",
"H. c #FFB31B",
"J. c #FFB117",
"K. c #FFB40A",
"L. c #D3853E",
"P. c #E38227",
"I. c #F38725",
"U. c #F79729",
"Y. c #EE8335",
"T. c #EE823C",
"R. c #E7863B",
"E. c #F08A39",
"W. c #F39436",
"Q. c #DFA129",
"!. c #FBAA29",
"~. c #FFBA24",
"^. c #FEBC2C",
"/. c #FCB427",
"(. c #FAB638",
"). c #F0AB34",
"_. c #FFC635",
"`. c #FEC33E",
"'. c #FFCB3D",
"]. c #FFCA37",
"[. c #87864A",
"{. c #978646",
"}. c #979955",
"|. c #A38E49",
" X c #AAA559",
".X c #BAAC5C",
"XX c #A68E71",
"oX c #AFAF62",
"OX c #D08F45",
"+X c #ED8D43",
"@X c #E58A43",
"#X c #F39D4C",
"$X c #F29844",
"%X c #EE9548",
"&X c #D0B654",
"*X c #F5A94A",
"=X c #F9B748",
"-X c #F2A353",
";X c #F4AA55",
":X c #F5B45D",
">X c #F9BA52",
",X c #E5A940",
"<X c #C7B763",
"1X c #F5BC64",
"2X c #EDB26A",
"3X c #D5C25A",
"4X c #FCCB46",
"5X c #FFD146",
"6X c #FFD44C",
"7X c #FBC856",
"8X c #FFDA55",
"9X c #FEDB5B",
"0X c #F9D456",
"qX c #EFC954",
"wX c #D5D778",
"eX c #C3C56E",
"rX c #F8CB6C",
"tX c #F8C666",
"yX c #FDDC63",
"uX c #FCD56C",
"iX c #FBDA75",
"pX c #E9D373",
"aX c #FFE364",
"sX c #FEE56A",
"dX c #FFEB6B",
"fX c #FFED72",
"gX c #FBE37C",
"hX c #FEE677",
"jX c #FFF274",
"kX c #FEF47D",
"lX c #E5E47B",
"zX c #BAB5AE",
"xX c #FDED82",
"cX c #FEF684",
"vX c #FFFB84",
"bX c #FFFD8C",
"nX c #F5F88A",
"mX c #FFFF90",
"MX c #E9EB82",
"NX c #F9F4A6",
/* pixels */
"                                                          '         '                                                   ",
"                ^.                                      <.{     '   ' '                                                 ",
"                V.dXmX                              ' ' $XE.  #.<.' w.#X                                                ",
"                [ ;XfXkXmX                    [ ,.  ' Y.cXxXr.D.V.| rXrX}                                               ",
"                  7.N.U.7X8XJ.6XbXmX          <.A.;.2.4XbXsXr./.=XN.fXrX}                                               ",
"                              rX=X5X6X        ,.N.S.=XvXbX_.C.9XdX6XvXrX .'                                             ",
"                                    4.(.;X} [ [ ;.K.'.vXxXyX9XxX9XyX6X8XN.|                                             ",
"                                      5.(.u.;.M.B.(.tXtXu.r.r.r.3.3.5.(.*X                                              ",
"                  8X                    4.;.,.x.;.3.+X:X-Xx.~.~.A.J.B.r.-Xy.                                            ",
"                  (.cXbX                  ,.[ [ z.K._.5XU.V.dXaX_.dXG.[ y.i.'                                           ",
"                  N.aXbX                  ' ' [ #.<.#.%.$.X.0.E.t.E.+.] '                                               ",
"                  ,.!.vX                    [ 6.-.V.2.B.Z.d 0 OX!.o.5 (                                                 ",
"                    V.aX                  ^.W.<.4.4XI.!..XzXs.E vXXXV (                                                 ",
"                      ^.bX          H.5X!.E.%X7.{ !.F.C.aXNX2X2XbXNXE.[                                                 ",
"                      V.0XbX      H.8X  u.%.@.c 1.{ 1.5.R f lXMX X<XI.( / (                                             ",
"                        4.7XsXsXaXaX      &.e e Q.s <XOXC p.eXk [.).) $ @ M                                             ",
"                          2.C.S.S.          =.m.Y s eXW M 9 &X8X).1.C O @ b                                             ",
"                                            ' ;.A.9XmXgXT.>.*.;.2.M M O 4                       ]                       ",
"                                            > , f.5XdXbX0X*.8 7 F & F : B                     1.,.e.%X7.                ",
"                                          M , y f /./.vXcX+Xg.q y u ,X_ [ e.                i.-X[ $Xu.7.e.              ",
"                                        ' < p [.= e Z.aXbX+XD p g o D #.-.:X;XT.            y.1Xw.I.{ t.T.              ",
"                                        B $ f oXeX= e G.aX@X# - E % @ G G 1XmXgXW.2.+Xe.7.' w.:X-X+X#.,.,.,.            ",
"                                      ,.O., }.bXtXO.U w P 9.# . e 2 @ l 5 U.jXmX>X*XxX1X:Xi.( ).{.3 4 ~ -.{             ",
"                                      -.b.u wXjX4.N.5Xf - G # X f.k # b c c.H.sX4XyXgXu.+Xu.d p - . X 7  .              ",
"                                    { M.D }.mXyX1.K P f }.L.& 6 f.}.h +.*.x.A.D.A.9XxX-X:X:XqXqXg.1 5 X.                ",
"                                    ;.h.A 3XmXrX .< y 0XvX+XF A r E E 1.-.,.M.M.A._.kXgXu.} %.*.*.<. .                  ",
"                                  { n.I y H.9XU.' @.m.S.8X@XZ A 1 a |.1.-.' ,.;.M.A.H.6X-X( N : & : N                   ",
"                                  z.A.I r F.E.| ] c.M.M._.0.< L . o <X5.-.      -.n.A.A.V.l @ . . @ B                   ",
"                                  x.A.I r 8XiX7.  -.M.M.A.>.Z A q f {.3.-.        [ ;.z.M.^ # . . z                     ",
"                                6.n.b.A g.kXhXe.  [ z.A.M.#.Z y i k E 1.!.u.          { -._ $ . & M                     ",
"                                -.A.h.6 5XmXfXV.  [ z.A.A.X.& 2 D f.h >.4X+X              ' b O 5                       ",
"                                ;.A.h.s kXbXkXU.[ c.M.D.5XR.# X % - # ^ 4X;X                  N N                       ",
"                              2.M.A.h.p bXbXbXtX-.M.A.5XsXP.; * . . @ ^ ^.sXy.                                          ",
"                              c.A.M.l.R %X-X:XiXE.n.5XbX;XO.2 o., X r =.v.9X1X                                          ",
"                            { z.M.-.` : ; W P.Y.w.*XbXbX;Xc U m.l.Y m.c.-.8XbX:X                                        ",
"                            ] { { _ 4 . . * t _ e.rXmXcX$X4 k.A.M.z.M.l.^ F.aXcX:X                                      ",
"                                ' [ O.u q T =.#.`.bXbXrX4.w o.A.-.,.M.Y 5 x.F.8XfX:X                                    ",
"                                  ] I.iXsXyX1.I.sXbXcX$XI A b.n.-.n.A.Y d I.M.A.H.sX1X*Xv.(.                            ",
"                                    | Y.E.Y.2.(.bXbXiXT.E I M.,.-.A.F.g.k #Xz.A.D.~.'.fXaXhX                            ",
"                                z...:.:.N.!./.fXbXgX;X.Xy N.x./ -.A.J. Xk gXt.z.^.sXG.(.iX;X                            ",
"                              ;.v.-.G m q.gXvXbXgX;XpX{.U M.) > *.A.H. Xk cXi.H N.`.9.b H :X-X                          ",
"                            -.c.v.v O . 4 tXbXgX;XhXwXw M.;.5 ; *.A.J. Xk xXq.$ G z.&.4 5 2X|.(                         ",
"                          ;.M.z.G @ @ n OXiX(.$XgXnXg Y M.^ @ X v z.D.T k gXR + - K x.O.0.E + 4 (                       ",
"                        %.A.l.v._ ) q.uXuXOX/ u.kXwXu b.x.l X X l c.M.o.S q.: j zXj G v.Z.k., X l ]                     ",
"                      { v.Y 1 b.h.Q.hX>X@.& 4 &.^.h Y M.-./ > 5 ( x.A.M.A z 5 d.XX: # G Z w G                           ",
"                      { -.c 7 o.,  X;X} 5 X H M.M.w o.v.'       ] x.A.J.E m ]     ( l b Q =                             ",
"                              & a pXy.  B M =.~.g.L m.v.        [ x.A._.[.z                                             ",
"                              % {.-X      { G.kX[.|.G.{         %.M.F.jX[.z                                             ",
"                              9.@X        c.'.lX[.<XU.          -.A.J.vX[.z                                             ",
"                              '           V.jXoXk cXu.          -.M.J.vX[.z                                             ",
"                                        %.D.fX X[.xXu.          -.A.J.vX[.l                                             ",
"                                        6.A.3Xf lX-X            #.z.C.uXp.M                                             ",
"                                        ] %.&.! 1Xy.            ] [ 6.5.` C                                             ",
"                                          >.F >.'                 [ z.M.S E y.                                          ",
"                                          =.2 O.[                 [ N.A.D = < B                                         ",
"                                          L.- , ^                 7.7XS.h.1 * 8 i.                                      ",
"                                          9 a p W y.              7.(.S.D L m.4XrX+X                                    ",
"                                          Q lXfXsXtXw.              %.-.K O.D.`.4X(.w.                                  ",
"                                          U./.!.G.!.1.                    ,.<.,.$.$.                                    ",
"                                          { { { { {                                                                     "
};
