/* XPM */
static char *doors_61706383659[] = {
/* columns rows colors chars-per-pixel */
"60 60 100 2 ",
"   c None",
".  c #010100",
"X  c #0A0101",
"o  c #000C00",
"O  c #0D0C04",
"+  c #0D0708",
"@  c #0A0B09",
"#  c #130404",
"$  c #130C06",
"%  c #1A0C06",
"&  c #140C0B",
"*  c #1B0D0D",
"=  c #001301",
"-  c #0A1507",
";  c #041C03",
":  c #0F1F07",
">  c #0D1509",
",  c #0C1B0A",
"<  c #131205",
"1  c #191107",
"2  c #12160D",
"3  c #1A110B",
"4  c #151A0F",
"5  c #1E190E",
"6  c #1C0F10",
"7  c #161513",
"8  c #1C1512",
"9  c #151A10",
"0  c #1A1815",
"q  c #270707",
"w  c #2A0507",
"e  c #250A06",
"r  c #260709",
"t  c #2B060A",
"y  c #250A0A",
"u  c #290A0C",
"i  c #31040A",
"p  c #35090D",
"a  c #22130F",
"s  c #2C120E",
"d  c #221A0F",
"f  c #250D11",
"g  c #2E0F12",
"h  c #310710",
"j  c #241512",
"k  c #2C1412",
"l  c #231913",
"z  c #2C1B15",
"x  c #241618",
"c  c #2E1419",
"v  c #241B19",
"b  c #2C1C1A",
"n  c #321315",
"m  c #3B1517",
"M  c #361917",
"N  c #3A1816",
"B  c #35141B",
"V  c #3D161D",
"C  c #351A1E",
"Z  c #3B1A1E",
"A  c #1F2615",
"S  c #222415",
"D  c #222915",
"F  c #25261A",
"G  c #2D231C",
"H  c #232C1B",
"J  c #2B2B1D",
"K  c #32221D",
"L  c #3C211F",
"P  c #342A1E",
"I  c #3F1220",
"U  c #351D21",
"Y  c #3B1C22",
"T  c #3C2722",
"R  c #352C22",
"E  c #3B2A23",
"W  c #2E3720",
"Q  c #333221",
"!  c #393125",
"~  c #363927",
"^  c #373829",
"/  c #420B14",
"(  c #490E1D",
")  c #44141D",
"_  c #4A131D",
"`  c #441B1E",
"'  c #4A1A1F",
"]  c #441621",
"[  c #4D1521",
"{  c #441A22",
"}  c #4B1B23",
"|  c #531624",
" . c #581726",
".. c #531A24",
"X. c #591C25",
"o. c #5A1628",
"O. c #561C28",
"+. c #5A1929",
"@. c #442424",
"#. c #4D2226",
/* pixels */
"                                                                                                                        ",
"                                                                                                                        ",
"                                                                                                                        ",
"                                                                                                                        ",
"                                                                                                                        ",
"                                                                                                                        ",
"                                                                                                                        ",
"                                                                                                                        ",
"                                                                                                                        ",
"                                                                                                                        ",
"                                                                                                                        ",
"                                                                                                                        ",
"                                                        ~ P P W                                                         ",
"                                                      ! K N N K Q                                                       ",
"                                                    ! L m ) ` N P Q                                                     ",
"                                                  E Z N ) ' #.N M P P ^                                                 ",
"                        - H J J J S H H H H S J G b k g B Z Z k k z b G S H H H A A D H S D D -                         ",
"                      - H J d % % % 1 < O > < $ < $ 3 3 & & $ $ $ $ % 1 1 $ $ & < 3 1 % % S ! D >                       ",
"                    - H R k y M @.k j l v l 3 X O X . . . . X X X X X X X y l l l j k K M u y T G -                     ",
"                  : H P s p ) { Y n z k 1 # + 8 8 8 0 0 0 0 8 8 8 8 j j a % # 8 b k M ` } ` p p T F ,                   ",
"                = 9 J s t / | O.{ n c * * * * & @ & & @ 2 & & & & $ * * % 6 6 & 6 c B } } | ] h k R 9 o                 ",
"                o 9 G e ) o. .O.} g * & & 7 & X X X X X X . . . X O X . X + 6 7 8 f B } |  . .( t C 9 o                 ",
"                = 4 G w o.+.| [ Y f + 7 @ . . . X . + X X X X . . . . . . . . 7 x & f { } o.o.[ h b 2 o                 ",
"                o 4 K w ( o.( ( I & 7 @ . . . o X . . . . . X . . . . . . . . . + x # V ] [ O.[ t C 9 o                 ",
"                o 4 K w | +.( ) Y 7 @ . . . . . . . . . . . . . . . . . . . . . X X f Y ] ) X.} u R 9 o                 ",
"                = 4 K w | +.( V U 7 . . . . . . . . . . @ . . @ . . . . . . . . . X $ U V ) ..} t b 9 =                 ",
"                o 4 M i | +.( V U + . . . . . . . . . . . . . . . . . . . . . . . . X C C ) ..} t K 9 o                 ",
"                o 4 K t | +.[ ] U . . . . X . + . + . . . @ . . . X . . . . . X . X X U Z ) | | t K 4 o                 ",
"                o 4 K i | | [ ] U X . . . . . . . . . . . . @ . . . . . . . . X . X X U Y )  .' i K 4 o                 ",
"                o 4 K w [ | ( ] c . . . . . . . . . . . . . . . . . . . . . . . X . X U V )  ._ i K 4 o                 ",
"                o 4 G t [  .( ] U X . . . . @ . . . . . . . . . . . . . . . . . . . X b V (  .| i K 4 o                 ",
"                o 9 G t } | ) ] U X X . . . . . . . . . . . . . . . . . . . . . . . X U V ) X.| i L 4 o                 ",
"                o 4 G q } ..) ) U X X X . . . . . . . . . . . . . . . X . O . . . . X U V ( +.| i K 9 o                 ",
"                = 4 G r } X.) ) U X . . . . . . . . . . . . . . . . . . . . . . . X X C ] )  .| i K 9 o                 ",
"                o 4 G t ' X._ ) I X . . . . . . . . . . . . . . . . . . . . . . . . O U I (  .[ t C 4 o                 ",
"                o 9 U t [ | ( ) U X . . . . . . . . . . . . . . . . . . . . . . . . X U ] [ | } t K 4 o                 ",
"                o 9 K t [ | _ _ B X . . . . . . . . . . . . . . . . . . . . . . . . X I ] [  .[ t R 7 o                 ",
"                o 9 K t ..X...' C X . . . . . . . . . . . . . . . . . . . . . . . . X B } } ..} t G 2 .                 ",
"                o 9 K t ' X...#.C X . . . . . . . . . . . . . . . . . . . . . . . . X U { O.O.} t K 4 o                 ",
"                o 9 K w [ X.[ ' C X . . . . . . . . . . . . . . . . . . . . . . . . X U } [ O.[ t K 4 o                 ",
"                o 9 G t [  ._ ` B X . . . . . . . . . . . . . . . . . . . . . . . . X Y ] [ | [ t G 4 o                 ",
"                o 9 G t }  ./ ) C X . . . . . . . . . . . . . . . . . . . . . . X . X B ] _ ..{ u K 4 o                 ",
"                o 9 G r ' X._ V U X . . . . . . . . . . . . . . . . . . . . . . . . O C ] ) ..} u K 4 o                 ",
"                o , x t _ .._ ) U + . . . . . . . . . . . . . . . . . . . . . . . . X C ] ) ..} u x > o                 ",
"                o , v u ' .._ ) C X . . . . . . . . . . . . . . . . . . . . . . . . X U ] ) O.[ u l > o                 ",
"                o 2 v u [ X._ ` C X . . . . . . . . . . . . . . . . . . . . . . . . X C ) ) } } u l > =                 ",
"                o > l t ' ../ ` C X . . . . . . . . . . . . . . . . . . . . . . . . X C ) [ O.{ t l > o                 ",
"                = > 5 w ' ../ V U X . . . . . . . . . . . . . . . . . . . . . . . . X U I ) } } r l > =                 ",
"                = > l u }  ./ ` C X . . . . . . . . . . . . . . . . . . . . . . . . X C I ) O.{ y l > o                 ",
"                o > 0 u ' ..) ) C X . . . . . . . . . . . . . . . . . . . . . . . . X C ) ) } } y l > o                 ",
"                o - 8 r ' ..) ` b X . . . . . . . . . . . . . . . . . . . . . . . . X C ] ) ..{ y j - o                 ",
"                o > 5 q ' ..) m C X . . . . . . . . . . . . . . . . . . . . . . . . X C V ) O.{ y d > o                 ",
"                o > d e ' .._ ` C X X . . . . . . . . . . . . . . . . . . . . . . X X Z ` _ ..` e l > o                 ",
"                = - 5 e @.' ' @.C X . . . . . . . . . . . . . . . . . . . . . . . X X Z #.} #.` e d - o                 ",
"                ; ; : 1 P T T R S o o o . o . o o . . o o . . o o . o . . o o o o . . G P @.E R < : ; ;                 ",
"                                                                                                                        ",
"                                                                                                                        ",
"                                                                                                                        ",
"                                                                                                                        ",
"                                                                                                                        "
};
