/* XPM */
static char *doors_51706383637[] = {
/* columns rows colors chars-per-pixel */
"60 60 170 2 ",
"   c None",
".  c #010101",
"X  c #0D0000",
"o  c #000C00",
"O  c #0B0C04",
"+  c #0F0C0B",
"@  c #120000",
"#  c #190301",
"$  c #150A05",
"%  c #140C0A",
"&  c #1A0C0B",
"*  c #001200",
"=  c #0D1406",
"-  c #001C00",
";  c #081E04",
":  c #0D1409",
">  c #0E1E0A",
",  c #1D1205",
"<  c #101F04",
"1  c #14150C",
"2  c #1C130D",
"3  c #151A0F",
"4  c #18190F",
"5  c #141312",
"6  c #1B1512",
"7  c #161A10",
"8  c #191912",
"9  c #1F1F1D",
"0  c #2E0605",
"q  c #220C05",
"w  c #2D0B06",
"e  c #270708",
"r  c #230A0A",
"t  c #2B0D0C",
"y  c #340605",
"u  c #3A0605",
"i  c #320A06",
"p  c #360C0A",
"a  c #3B0A0A",
"s  c #251006",
"d  c #211A06",
"f  c #21160F",
"g  c #29140A",
"h  c #231A0D",
"j  c #2B190D",
"k  c #35120F",
"l  c #3B130C",
"z  c #320E13",
"x  c #231712",
"c  c #2B1510",
"v  c #241911",
"b  c #2B1915",
"n  c #351514",
"m  c #391515",
"M  c #351C16",
"N  c #391815",
"B  c #3D161A",
"V  c #351D1A",
"C  c #3A1C1B",
"Z  c #062003",
"A  c #162307",
"S  c #1C2014",
"D  c #1F2B15",
"F  c #1E2918",
"G  c #24230F",
"H  c #2A200F",
"J  c #232613",
"K  c #2C2514",
"L  c #2D2817",
"P  c #232319",
"I  c #2C241A",
"U  c #252A1C",
"Y  c #2C2C1C",
"T  c #352216",
"R  c #33211B",
"E  c #3C221C",
"W  c #342B1C",
"Q  c #223017",
"!  c #33331F",
"~  c #352621",
"^  c #382321",
"/  c #332B22",
"(  c #353021",
")  c #3B3023",
"_  c #393825",
"`  c #400C0C",
"'  c #4C0D0D",
"]  c #47140E",
"[  c #4B110C",
"{  c #4B0E11",
"}  c #500F11",
"|  c #451312",
" . c #4A1312",
".. c #431B17",
"X. c #4F1A14",
"o. c #441318",
"O. c #49171A",
"+. c #461A1B",
"@. c #4B1A19",
"#. c #531514",
"$. c #5C1614",
"%. c #551A14",
"&. c #5B1914",
"*. c #561718",
"=. c #581718",
"-. c #551B1A",
";. c #5C1C1B",
":. c #611513",
">. c #611A16",
",. c #641519",
"<. c #641C1C",
"1. c #681C1E",
"2. c #4D231E",
"3. c #53221A",
"4. c #5A231C",
"5. c #5D291D",
"6. c #60261C",
"7. c #69201D",
"8. c #63291F",
"9. c #4E1C23",
"0. c #611A20",
"q. c #6C1C20",
"w. c #4F2125",
"e. c #572324",
"r. c #5C2424",
"t. c #5C2A21",
"y. c #5E2B2A",
"u. c #4D3624",
"i. c #4A3B2C",
"p. c #593727",
"a. c #533528",
"s. c #5D322C",
"d. c #583B2C",
"f. c #5F3434",
"g. c #632525",
"h. c #6C2523",
"j. c #642B25",
"k. c #6D2A26",
"l. c #65272A",
"z. c #6F262B",
"x. c #642C2B",
"c. c #6B2C2B",
"v. c #722425",
"b. c #792724",
"n. c #722926",
"m. c #7B2A26",
"M. c #72252A",
"N. c #7A272B",
"B. c #742C2B",
"V. c #7B2C2A",
"C. c #633627",
"Z. c #64322D",
"A. c #6B312F",
"S. c #63392A",
"D. c #74302E",
"F. c #7A302C",
"G. c #652E30",
"H. c #6A2E31",
"J. c #7D2730",
"K. c #752D32",
"L. c #7B2C31",
"P. c #643534",
"I. c #6A3335",
"U. c #613B30",
"Y. c #6A3934",
"T. c #6A3438",
"R. c #6A3B3A",
"E. c #723233",
"W. c #793131",
"Q. c #812A2E",
/* pixels */
"                                                                                                                        ",
"                                                                                                                        ",
"                                                                                                                        ",
"                                                                                                                        ",
"                                                                                                                        ",
"                                                                                                                        ",
"                                                                                                                        ",
"                                                                                                                        ",
"                                                                                                                        ",
"                                                                                                                        ",
"                                                                                                                        ",
"                                                                                                                        ",
"                                                        _ W W !                                                         ",
"                                                      ) T N k T (                                                       ",
"                                                    / E m o.+.N E (                                                     ",
"                                                  / ^ B o.9.e.m V E W                                                   ",
"                        = Q Q D U K K j K U F U U I V z n B C z c M b I P U Q D G K K D J Y U :                         ",
"                      = L T j q w w p w , $ = O : O O $ % & $ $ $ $ % 2 1 % $ , q w w s g j R Y :                       ",
"                    : / T p m 2.Z.I.j.s.+.c 2 . . . . . O . . . . X X X X r v 2.s.y.y.s.9.p a C I =                     ",
"                  3 Y E a [ ;.c.D.V.W.I.+.# $ 5 8 9 8 5 6 8 8 8 6 6 6 b 6 $ # N Z.E.K.B.H.r.{ a E U A                   ",
"                o 3 ~ k ' <.K.K.M.N.N.K.+.e 2 & + 5 + % + + + + % & & & $ & q ..Y.L.L.B.K.K.0.' k W 3 o                 ",
"                o 4 V a <.b.L.L.B.N.K.E.+.e r X . . . . X . . . . . . . . % r N I.B.N.V.K.L.M.0.y M 4 o                 ",
"                o 1 V a z.m.v.h.z.h.I.T.m X X . . . . . . . . . . . . . . . X n A.n.h.h.q.z.J.K.a M 1 o                 ",
"                o 7 V u n.m.>.' ' [ j.P.m X . . . . + . . . . . o . . . . . X n Y.A.' ' ' ,.J.M.u T 4 o                 ",
"                o 7 E y B.V.7.%.X.] Z.P.n X . . . o . + . . . . . . . . . . X B Y.j.[ %.*.q.L.z.i V 3 *                 ",
"                o 7 R y k.m.&.%.3.] s.P.N X X . . . . . . . . . . . . . . X X m Y.s.[ 4.%.,.Q.z.i I 3 o                 ",
"                o 4 V u n.V.>.%.t.| f.P.N @ X . . . . . . . . . . . X . . . # m Z.Z.[ 5.%.:.Q.z.i K 3 *                 ",
"                o 4 M u 7.F.:.%.C.| y.P.m @ X . . . . . . . . . . . X X + X # B A.x.[ 8.&.:.Q.h.i I 3 *                 ",
"                o 1 C u v.m.$.&.j. .y.P.V X X . . . . . + . . . . . . . . X # m H.c.[ j.&.:.Q.n.i L 3 *                 ",
"                o 4 C u v.m.:.;.g. .P.P.n . . . . . . . . . . . . . . . . . @ o.I.c.[ 8.&.:.Q.v.y R 3 *                 ",
"                o 8 T u n.m.>.=.g. .y.P.n X . . . + . . . . . . . . . . . . X m T.c.[ 6.&.:.Q.n.y R 3 *                 ",
"                o 8 E y k.m.$.-.g.{ G.P.V X X . . . . . . . . . . . . . . . X n P.Z.[ 6.%.>.m.n.u C 3 o                 ",
"                o 7 V i k.V.&.%.j.{ G.T.n @ X . . . . . . . . . . . . . . . X n P.P.] 8.%.$.V.v.u T 4 o                 ",
"                o 4 V i k.V.&.%.g.{ G.T.m @ X . . . . . . . . . . . . . . . X n f.Z.] t.3.&.m.v.u R 4 o                 ",
"                o 7 R i k.m.&.%.;.{ c.T.N @ X . . . . . . . . . . . . . . . X n P.x.[ 4.%.$.m.k.y R 3 o                 ",
"                o 1 V e c.b.:.' { ' H.T.m X . . . . . . . . . . . . . . . X X N Y.j.' ' ' &.m.n.y R 3 o                 ",
"                o 7 ~ y k.Q.7.&.*.#.l.T.m @ . . . . . . . . . . . . . . . . @ m I.c.' #.#.<.V.n.y R 4 o                 ",
"                o 7 R i 7.m.n.c.l.z.l.T.m @ . . . . . . . . . . . . . . . . @ n Z.c.j.j.c.V.b.h.y R 4 o                 ",
"                o 1 R y h.m.F.D.H.E.E.I.m X . . . . . . . . . . . . . . . X X m I.E.E.c.D.V.b.n.u R 1 o                 ",
"                o 7 R y n.m.h.4.;.g.E.T.m X X . . . . . . . . . . . . . . . @ m Y.A.g.;.;.h.m.B.y R 7 o                 ",
"                o 5 V i h.V.,.[ { { l.I.m @ . . . . . . . . . . . . . . . X X m I.j.' ' ' >.m.M.y V 4 o                 ",
"                o 7 V i B.V.1.=.=.} H.I.N @ . . . . . . . . . . . . . . . . @ B Y.c.#.*.*.<.V.h.i R 3 o                 ",
"                o 1 V 0 n.m.>.=.0.{ l.T.n X . . . . . . . . . . . . . . . . @ n I.c.[ r.*.$.V.k.i R 7 o                 ",
"                o 1 b i h.V.$.=.g.} H.T.m @ X . . . . . . . . . . . . . . . X n I.x. .j.-.=.F.h.i v 1 *                 ",
"                o : b y n.V.>.*.g.{ H.T.N X O . . . . . . . . . . . . . . . @ M P.j. .j.*.*.D.k.p f : *                 ",
"                o 1 b i c.V.;.-.g.{ H.T.m @ . . . . . . . . . . . . . . . . X B R.x.| y.-.*.F.j.y v : *                 ",
"                o : v 0 h.V.$.*.g.{ H.T.m X . . . . . . . . . . . . . . . . X n f.x. .r.@.&.F.j.w v 1 *                 ",
"                o 1 v w c.F.&.-.y.{ G.T.N @ . . . . . . . . . . . . . . . . X t O.O.` P.4.=.F.j.w 2 : *                 ",
"                o : 2 0 h.B.%.-.y.] y.T.N @ . . . . . . . . . . . . . . . . X m P.G.| y.-.#.B.j.w x : *                 ",
"                o : f w A.D.&.@.y. .G.P.n @ . . . . . . . . . . . . . . . . X m P.x.{ r.-.;.L.c.i f : o                 ",
"                o : x w j.B.%.X.@.` r.y.n @ X . . . . . . . . . . . . . . . @ n P.T. . .o.;.W.j.i f : o                 ",
"                o : f w j.D.&.]  .u e.y.n X . . . . . . . . . . . . . . . . X m T.H.{  .{ <.V.j.0 f : o                 ",
"                o = h w C.F.h.;.;.=.P.P.n X . . . . . . . . . . . . . . . X X N Y.l.#.;.;.q.F.c.i h 1 *                 ",
"                o = d w j.k.B.B.n.B.c.P.b . . X X . . . . . . . . . . . . . X n Z.I.E.N.q.q.V.x.i h = o                 ",
"                - ; A d u.p.S.S.C.S.d.i.8 o . o o o o o o o o o o o o o . o o v i.d.S.Y.Z.x.Z.a., Z Z -                 ",
"                                                                                                                        ",
"                                                                                                                        ",
"                                                                                                                        ",
"                                                                                                                        ",
"                                                                                                                        "
};
