/* XPM */
static char *doors_11706383523[] = {
/* columns rows colors chars-per-pixel */
"60 60 245 2 ",
"   c None",
".  c #000B00",
"X  c #0C0F08",
"o  c #001100",
"O  c #0C150A",
"+  c #0D190C",
"@  c #081804",
"#  c #16170F",
"$  c #151A0E",
"%  c #161805",
"&  c #151A10",
"*  c #1C1A12",
"=  c #171710",
"-  c #2D0604",
";  c #2C0B05",
":  c #280B06",
">  c #350706",
",  c #340A06",
"<  c #3B0906",
"1  c #3C0C0C",
"2  c #360B09",
"3  c #25140C",
"4  c #2D140A",
"5  c #231A0B",
"6  c #2F1807",
"7  c #34130B",
"8  c #3A110B",
"9  c #311909",
"0  c #391D0A",
"q  c #3B0E13",
"w  c #380E18",
"e  c #211913",
"r  c #271A14",
"t  c #3A1314",
"y  c #331B15",
"u  c #341F1B",
"i  c #3B1A1C",
"p  c #3A1717",
"a  c #19240D",
"s  c #222306",
"d  c #2B250E",
"f  c #27260C",
"g  c #2A2512",
"h  c #252A14",
"j  c #2D231B",
"k  c #292915",
"l  c #352114",
"z  c #33211B",
"x  c #3A231C",
"c  c #3B291E",
"v  c #36291F",
"b  c #2A3016",
"n  c #352D22",
"m  c #3B2522",
"M  c #383124",
"N  c #333726",
"B  c #430A05",
"V  c #4C0C03",
"C  c #440D08",
"Z  c #4C0C0B",
"A  c #450706",
"S  c #510C02",
"D  c #510A06",
"F  c #4C1103",
"G  c #4D120C",
"H  c #461004",
"J  c #54140C",
"K  c #5B150C",
"L  c #561D0C",
"P  c #5D1B0B",
"I  c #541607",
"U  c #450F11",
"Y  c #4A0E12",
"T  c #421213",
"R  c #4C1114",
"E  c #4D151C",
"W  c #45181A",
"Q  c #541415",
"!  c #5B1414",
"~  c #531B15",
"^  c #5B1B14",
"/  c #53151C",
"(  c #5C141C",
")  c #5B1B1B",
"_  c #551C1D",
"`  c #5E0F1B",
"'  c #64190D",
"]  c #621515",
"[  c #631A16",
"{  c #62151B",
"}  c #641A1D",
"|  c #6B1B1C",
" . c #681F13",
".. c #721E1D",
"X. c #59210A",
"o. c #58271A",
"O. c #472D1E",
"+. c #65230D",
"@. c #6A240C",
"#. c #64231C",
"$. c #6A231D",
"%. c #672716",
"&. c #72231D",
"*. c #73291B",
"=. c #7C271D",
"-. c #67331E",
";. c #70301C",
":. c #4C1A21",
">. c #551421",
",. c #5C1522",
"<. c #551A21",
"1. c #5B1A21",
"2. c #5D1629",
"3. c #621624",
"4. c #631C22",
"5. c #6A1D23",
"6. c #6B1F29",
"7. c #721D26",
"8. c #6C1D32",
"9. c #492127",
"0. c #5B2722",
"q. c #4D3626",
"w. c #5B392C",
"e. c #642323",
"r. c #6B2324",
"t. c #632A24",
"y. c #6C2B23",
"u. c #66232A",
"i. c #6B232B",
"p. c #6C2D2B",
"a. c #732524",
"s. c #7C2625",
"d. c #742C25",
"f. c #7A2B25",
"g. c #75272A",
"h. c #7B2629",
"j. c #762C2A",
"k. c #7B2C2A",
"l. c #6C3323",
"z. c #63342A",
"x. c #6D342C",
"c. c #653727",
"v. c #7C3425",
"b. c #73332B",
"n. c #7D342B",
"m. c #7C3D2C",
"M. c #743727",
"N. c #662434",
"B. c #7C2D33",
"V. c #792837",
"C. c #7E3331",
"Z. c #7C3A32",
"A. c #753932",
"S. c #6D3E31",
"D. c #77463B",
"F. c #7E4B43",
"G. c #85251D",
"H. c #89251B",
"J. c #8A2A1E",
"K. c #87291A",
"L. c #8A311F",
"P. c #832623",
"I. c #842D24",
"U. c #8A2C23",
"Y. c #83262A",
"T. c #822E2B",
"R. c #8A2527",
"E. c #823325",
"W. c #8A3126",
"Q. c #83342D",
"!. c #8C332B",
"~. c #853A2C",
"^. c #8C3A2D",
"/. c #94342C",
"(. c #9A352D",
"). c #933B2C",
"_. c #993B2D",
"`. c #983427",
"'. c #833332",
"]. c #8C3635",
"[. c #843A32",
"{. c #8C3C33",
"}. c #8C3639",
"|. c #853B3B",
" X c #8C3C3A",
".X c #933D34",
"XX c #9B3D34",
"oX c #933D3A",
"OX c #9B3C3B",
"+X c #953632",
"@X c #A33E31",
"#X c #A63E37",
"$X c #A33C2F",
"%X c #97422D",
"&X c #9B432E",
"*X c #854233",
"=X c #8D4235",
"-X c #85403B",
";X c #8C433B",
":X c #8E4C3E",
">X c #964335",
",X c #9C4334",
"<X c #94423C",
"1X c #9B433B",
"2X c #934A3B",
"3X c #9B4A3C",
"4X c #9D4C31",
"5X c #9B513B",
"6X c #8D4933",
"7X c #A0422C",
"8X c #A24334",
"9X c #A2443B",
"0X c #A34B3A",
"qX c #A3523D",
"wX c #993C42",
"eX c #883D41",
"rX c #A33D41",
"tX c #8C4B45",
"yX c #854E40",
"uX c #934341",
"iX c #9D4442",
"pX c #9B4B44",
"aX c #9B4A49",
"sX c #9B5243",
"dX c #9A5C46",
"fX c #975D4C",
"gX c #9D5C4B",
"hX c #93544B",
"jX c #9D5D55",
"kX c #985C55",
"lX c #865847",
"zX c #A24441",
"xX c #A55B4C",
"cX c #A95B49",
"vX c #A55745",
"bX c #A25E50",
"nX c #A15F59",
"mX c #B15D4A",
"MX c #9D644E",
"NX c #976149",
"BX c #9B6353",
"VX c #976655",
"CX c #B0644D",
"ZX c #A86854",
"AX c #B16651",
/* pixels */
"                                                                                                                        ",
"                                                                                                                        ",
"                                                                                                                        ",
"                                                                                                                        ",
"                                                                                                                        ",
"                                                                                                                        ",
"                                                                                                                        ",
"                                                                                                                        ",
"                                                                                                                        ",
"                                                                                                                        ",
"                                                                                                                        ",
"                                                                                                                        ",
"                                                        N n n N                                                         ",
"                                                      M z y r j n                                                       ",
"                                                    M v y W i p v M                                                     ",
"                                                  c i y p 9.9.t p x v                                                   ",
"                        @ h b d f s d h h f d l 0 W 8 , t W W q 8 , 0 l g f g g g d d d d g h +                         ",
"                      X j c 4 : 7 0 6 4 : 4 ; , < 8 1 2 , - - , < 6 8 9 4 9 3 : 3 9 9 ; ; 7 c j X                       ",
"                    # n x 8 B #.yXVXVXF.x.M.*X;.m.fXhXA.0.o.~ #.D.6XMXZXVXVXlXS.z.D.VXtXy.C , m z O                     ",
"                  $ j x 2 B y.;XpXsXpXaX!.W._.L.,XsXpX<X'.! ^ E.%X4X5X4X5X5X2X*Xn.tXaX1XoXg.Z < :.j $                   ",
"                . $ c 8 C r. XiXuX1X1XiXOX+X`.K.XX,XOX1X}.] ] /.7X&X&X%X&X_.,X~.Q.<X1X#XrXwXg.C t m & o                 ",
"                . $ z 2 r.<XpXiX1X1X1X1XiX1X).K.>X2X<X1X}.( [ ^.8X&X&X&X,X,X3XE.&.1XiXzXwXwXoXr.> u & .                 ",
"                . # y <  XiXoX!.'.~.n.n.n.n.E.*.M.Z.{.1X{.( ! [.8X%Xv.E.~.~.*X%.J n.~.n.'.{.uXtX1 y $ .                 ",
"                . $ x < ].9X..D D S F F H F F S B V b.1X}.) ) [.3Xf.V S V S F H V V S V V &.iX[., z $ .                 ",
"                . $ z < {.9X&.Z L X.X.X.X.X.P K G G f.1X].( ) }.rXh.Y ! P P P X.X.P L G Z $.1X*X2 j & .                 ",
"                . # u , .X9X&.G o.*X5XNXgXsXpX[.e.^ I.9X].{ 4.}.aX'.` 1.[.sXdXfX5X5X*Xy.~ y.3X[.; j & .                 ",
"                . # u 2 ^.9Xd.Q t.2XvXvXxXcXvX{.e.! I.8X/.! ( }.zXV.( e.;XvXxXcXcXvX<Xr.Q y.1X{.2 j & .                 ",
"                . & j 2 ^.8Xf.( e.<X&X&X,X,X,X.X) ! I.8X).{ ( h.}.V.>.4.|.,X,X,X8X8XXX5.Q h.9X^.< z & .                 ",
"                . = m < ).$Xa.` e.1X%X).`.`._.OX} { !.7X!.[ ( | h.g.2.} [..X+X)._.(.9X6.( h.9X].< z & .                 ",
"                . # r < _.#Xh.( 4.oXK.H.H.H.U.XX{ { I.,X!.] { '.oXB.( u.{.W.J.H.H.U.XX6.>.h.@X^.A i = .                 ",
"                . = z B `.$Xh.2.i.1XJ.J.H.G.W.OX} { W.8X+X} 3.] a.a.( | oXW.P.J.H.J.OX6.( h.,X.XC i * .                 ",
"                . & u < ).&Xg.,.i.oXH.P.P.P.W. X} ( k.9X+X` 3.'.oXk.! 5.oXU.=.P.G.U.oX6./ g.,XoXA u & .                 ",
"                . & z < =X8Xd./ i. XP.P.s.f.n.|.} ) T.9X].3.3.}.zX'.( } <XI.=.=.P.P.oXu.>.g.,X.X< u $ .                 ",
"                . $ z < ^.,Xf.( i.oX{.].[.'.|.-X0.( T.iX}.3.3.}.1Xk.! { =X*X~.{.Q..X<Xu.1.g.,X^., u $ .                 ",
"                . $ y < {.,Xh.( 4.Q.[.[.C.Z.Z.b.) ( T.iX}.3.3.}.1XE.^ ) M.m.m.Z.C.{.C.4./ f.>X=X< u # .                 ",
"                . $ l < !.#Xf.) J V D D V J J Z ^ ! T.zX}.{ { !.9X!.^ I F H B V I D D Q ! f.3X[.< u # .                 ",
"                . $ y < oX9Xf.Q o.^ K P P I J ! ~ ' U.8X/.{ { +X#XJ.' P P P X.X.I P K ) ~ *.1X{.< u = .                 ",
"                . $ x < {.XX XtXkXjXgXgX:Xb.$.|.hX{._.8X/.{ { /.#X_.<XgXbXgXfXNXNXgXbXjXtX=X,X=X< u = .                 ",
"                . = z < {.1XuXhXVXfXgXMXhXx.#.tXjXhX,X8X/.} ` /.9X9XpXjXnXjXkXfXMXbXjXjXhX<X,X{.< i = .                 ",
"                . = z < {.1X[.z.t.-.-.l.l.) E p.x.p.~.,X].,.>. X9X.Xy.p.p.p.l.l.M.d.d.p.p.'.1X{.< u = .                 ",
"                . # r 2 [..X .B C F F F V F Z G C B *.).n./ / '.oX=.V A A V V F F S V D V | ,X[.< u = .                 ",
"                . & m 2 f.I.' Z L X.@.@.%.+.^ o.L F +.v.d.Y U y.W...J ^ r. .+.@.@. .' [ Z ' U.a.> u = .                 ",
"                . $ j , [.1Xs.J $.2XcXCXCXCXbX*Xo.K v.<XZ.:._ Z.<Xf.! ^ ;XxXAXCXCXCX,X$.! a.,X[.2 j & .                 ",
"                . $ e - d.!.&.! $.<X3X9X0XvXzX=X[ J a.'.i.W T y.Q.&.) } {.3XqXqX0X8X,X$.! $.E.d.; r + .                 ",
"                . + r - $.=.| ! ..1X,X@XXX&X%X>X[ ) a.V.N.t t u.v.$.( } oX&X&X&X,X#X1X5.! | f.;.; * O .                 ",
"                o + h ; d.I.| ] 7.OX(.(.(.`.^.{.[ ( i.V.N.w t t.j.i.,.3.oX.X/./.(.(.wX6.! $.f.y.4 e + .                 ",
"                o + * ; r.P...` 7.OXR.R.R.H.W.{.,.2.8.V.N.w t ) 5.6.2.3.oXU.P.Y.P.R.wX6./ $.f.y.: * O o                 ",
"                o + * - y.s.| ] 7.wXR.R.P.G.U.oX5.3.V.V.N.w w R ] 3.,.3.uXI.G.Y.Y.Y.wXi.( $.f.t.: * O .                 ",
"                . + = ; y.f.| ( i. XY.Y.Y.P.!.{.} { 7.Y.N.U T #.s.a.2.3.oXW.=.d.h.'.uXu./ } f.y.; * O .                 ",
"                o + * ; d.f.4.<.N.eX'.k.g.h.Q. X5.3.7.V.6.q T $.f.r.2.4. XQ.f.d.j.T.eXu.( #.f.y.; e O .                 ",
"                o O e ; y.n.4.:.<.e.) ) _ Q ) e.) / 3.| ` q T #.f.i.>.>.e.} ^ ~ Q ) i.<./ e.f.y., e O .                 ",
"                . O 3 ; y.j.e.E E R Z Y T U G W E / } 5.R t t t.b.e.:.E R Z Y R Y Y / / / e.k.y.; 3 X .                 ",
"                . O 5 ; t.j.r.e.r.r.$.e.0._ ) 1.4.e.g.B.u.7 7 o.b.r.4.u.r.r.u.u.1.) 4.,.>.i.g.p., r O .                 ",
"                . @ 5 ; t.j.k.'..X>X<X2XC.$. .n.|.n.k.j.t.9 9 -.k.f.T.<XoX<X;X[.a.{ j.3.i.b.b.w.; 5 O .                 ",
"                o @ a 5 q.w.z.x.x.-.-.c.w.o.o.l.S.z.z.z.q.s s q.c.l.l.m.l.-.x.c.0.o.w.o.0.w.w.q.% % @ @                 ",
"                                                                                                                        ",
"                                                                                                                        ",
"                                                                                                                        ",
"                                                                                                                        ",
"                                                                                                                        "
};
