/* XPM */
static char *doors_71706383683[] = {
/* columns rows colors chars-per-pixel */
"60 60 102 2 ",
"   c None",
".  c #010000",
"X  c #0A0302",
"o  c #030C03",
"O  c #0C0805",
"+  c #0C0708",
"@  c #0D0A09",
"#  c #130404",
"$  c #190304",
"%  c #150806",
"&  c #140709",
"*  c #1D0709",
"=  c #140D0C",
"-  c #1D0B0B",
";  c #061105",
":  c #081206",
">  c #0C1409",
",  c #0B1909",
"<  c #15140B",
"1  c #1B140C",
"2  c #121A0C",
"3  c #1C1A0E",
"4  c #1B0F10",
"5  c #181112",
"6  c #1D1C13",
"7  c #1E1B18",
"8  c #200B07",
"9  c #21070A",
"0  c #240C0C",
"q  c #2A0B0D",
"w  c #330A0B",
"e  c #3F0B0F",
"r  c #22130D",
"t  c #2A120E",
"y  c #27190F",
"u  c #2A1A0F",
"i  c #220D10",
"p  c #310B12",
"a  c #3C0E16",
"s  c #3E0E18",
"d  c #211413",
"f  c #2C1413",
"g  c #221B13",
"h  c #2A1817",
"j  c #25151A",
"k  c #2E1619",
"l  c #341215",
"z  c #3B1116",
"x  c #341B15",
"c  c #371119",
"v  c #3C151B",
"b  c #311C1C",
"n  c #3C191E",
"m  c #1E200E",
"M  c #1F2513",
"N  c #252517",
"B  c #212917",
"V  c #26231A",
"C  c #2B261D",
"Z  c #262C1D",
"A  c #2B2B1D",
"S  c #32261D",
"D  c #3A221D",
"F  c #31291E",
"G  c #24341D",
"H  c #29341F",
"J  c #3E1720",
"K  c #361D21",
"L  c #3C1B22",
"P  c #2E2621",
"I  c #2E2922",
"U  c #332522",
"Y  c #3A2523",
"T  c #322A22",
"R  c #3B2D25",
"E  c #263422",
"W  c #2C3524",
"Q  c #343322",
"!  c #373825",
"~  c #3F3029",
"^  c #400F17",
"/  c #410D18",
"(  c #421216",
")  c #42141C",
"_  c #4B141C",
"`  c #441A1D",
"'  c #4B181E",
"]  c #421620",
"[  c #4B1622",
"{  c #441B23",
"}  c #4C1C24",
"|  c #4D1E28",
" . c #541722",
".. c #581725",
"X. c #531B25",
"o. c #591B26",
"O. c #531C29",
"+. c #452124",
"@. c #4B2126",
"#. c #4A2229",
"$. c #59202A",
"%. c #403C2F",
/* pixels */
"                                                                                                                        ",
"                                                                                                                        ",
"                                                                                                                        ",
"                                                                                                                        ",
"                                                                                                                        ",
"                                                                                                                        ",
"                                                                                                                        ",
"                                                                                                                        ",
"                                                                                                                        ",
"                                                                                                                        ",
"                                                                                                                        ",
"                                                                                                                        ",
"                                                                                                                        ",
"                                                        ! F Q Q                                                         ",
"                                                    %.R D D x S Q                                                       ",
"                                                    ~ D z ( z z D Q                                                     ",
"                                                  R Y z ) } @.` x F A                                                   ",
"                      , G H H G H E E E E Z Q T Y D l l v +.+.l f b S F A C Q H A Z B A H G H G , ;                     ",
"                  ; 2 B G 3 3 1 3 3 3 2 2 3 3 3 6 r d 0 0 h r 0 r r 1 g g 3 < < 1 3 r 1 3 3 m A M , o                   ",
"                  , B F u 8 t x f - 1 1 < < O X X X @ O X O X X X X # # % % 1 1 1 1 y t t r r u F N <                   ",
"                , Z F x w w ` @.{ f h g d 1 & O O X + o o O + O + O X # # % d d d h k +.+.x f q x D C >                 ",
"              , Z T t w ( ' o.@.] v l - X # 1 d 7 7 7 7 7 7 7 7 g d d h h - # X 5 l c ] #.#.v ) q l Y C ,               ",
"              , A t w ^ _ o. .} | c * = d d = O O O O + + O + + O # % # # % 7 d - 0 J | O.| } [ / w t R >               ",
"              > C 0 e _  . . .| | 0 - = = = X . X X X . X . X . . X . X . + = 5 5 i p [ O.O.O.[ [ s q S >               ",
"              > P q s O..._ _ | L 4 5 5 . . . + X . + . X + . . . . . . . . . . = i q ] [ [ } [ O./ p b @               ",
"              > P q s O. ._ / v K 7 + . . . + . . . . + . . . + . . + . o . . . . & c | / a ) | O./ q U >               ",
"              > P i s O. .[ ) K K & . . . . . . . . . . . . . . . . . + . . . o . X 9 ] ] v } | | a q Y <               ",
"              > P q s O...} ) J K + . . . . . . . . . . . . . . . . . . . . . . . X $ ] ] J | +.#.l q Y >               ",
"              > P p s O...[ ) J K + . X . . . . . . . . . . . . . . . . . . . . . X # J v v | { } z q F >               ",
"              > P p s .... .] ] K + X . . + . + . . + . . . . + . . . . . . . . X X $ ] ] v | | @.a q F >               ",
"              > U q s ....../ ] L # X . . . + . + . . + . + . . . . . . . . . . . X $ J ` n @.} } z q F >               ",
"              > U q s ....X._ ] L # . . . . . . . . . . . . . . . . . . . . . . . X $ L ) v } X.} z q F >               ",
"              > U p s .. .X.( ) L X X . . . . . . . . . . . . . . . . . . . . . . X # L ] ) } O.X.z q F >               ",
"              > P i s O.X.X.) ) L # . . . . . . . . . . . . . . . . . . . . . . . X # J ] ] O...O.z q T >               ",
"              > P i v } @.' ( n K # X . . . . . . . o . . . . . . . . . . . . . X X X L J ) [ ..O./ q T >               ",
"              > P i c | X.@.( v n X X X . . . . . . . . . . . . . . . X X . X . . X # L J ] O.O...a 0 A >               ",
"              > I i z } ' X.` n K # X . . . . . . . . . . . . . . . . . X . . . . X & L J v | O.X.a q P >               ",
"              > I 0 z } ' @.( x K # . . . . . . . . . . . . . . . . . . . . . . . X $ L J s | ....a q P >               ",
"              > P i a }  .' a v n X X . . . . . . . . . . . . . . . . . . . . . . X $ J s c ] O...z q F >               ",
"              > P q z X.X.' z v K X X . . . . . . . . . . . . . . . . . . . . . . X $ J L J ]  .O.a q F >               ",
"              > P q z O...} ' { L # X . . . . . . . . . . . . . . . . . . . . . . X $ ] +.{ { O.O.z 0 F >               ",
"              > P q s X.X.O.} +.Y # . . . . . . . . . . . . . . . . . . . . . . . X $ J #.#.| O.X.a q F >               ",
"              > P q v [  .[ ' +.L # X . . . . . . . . . . . . . . . . . . . . . . X # v +.{ { X.X.a 0 F >               ",
"              > P q s X.X._ ( ] L # . . . . . . . . . . . . . . . . . . . . . . . X $ v { ) ] [ X.z q F >               ",
"              > P q z X. .' ^ ( n # X . . . . . . . . . . . . . . . . . . . . . . X $ J J c ] } O.z 0 C >               ",
"              > T q ( X. .' / ) L # X . . . . . . . . . . . . . . . . . . . . . . X $ L J c } O.X.z 0 F ,               ",
"              > P 0 a X...X.) ) L # X . . . . . . . . . . . . . . . . . . . . . . X $ { v n | O.X.z 0 C >               ",
"              : g 9 z X. .X.) ) L # X . . . . . . . . . . . . . . . . . . . . . . X $ J v n { O.O.z 8 g :               ",
"              > V q v O.o.X.) ) L # . . . . . . . . . . . . . . . . . . . . . . . X $ J n v { O.} z 0 y ;               ",
"              : V 0 z O.X.X.( ` L # X . . . . . . . . . . . . . . . . . . . . . . X # J n v | O.O.v 8 N ;               ",
"              : g 9 z } X.X.( n L # X . . . . . . . . . . . . . . . . . . . . . . X $ L v v | } } z 8 g ;               ",
"              : 6 8 l O.X.' ) v K # X . . . . . . . . . . . . . . . . . . . . . . X $ n n n { O.O.z - 3 : ;             ",
"              : 6 - z O.X.@.` v K # X . . . . . . . . . . . . . . . . . . . . . . X # J v n #.@.O.x 8 6 : ;             ",
"              : 6 - z @.X.' ) v L X X . . . . . . . . . . . . . . . . . . . . . . X $ J n n | } @.z 8 3 :               ",
"              : 6 - l X.' ' z x K # X . . . . . . . . . . . . . . . . . . . . o . X # L n v { } O.z 8 g :               ",
"              : g 1 z @.} ' z l b X . . . . . . . . . . . . . . . . . . . . . . . X $ L J c ] [ } z - 3 :               ",
"              : 7 - l @.X.' z v K # X . . . . . . . . . . . . . . . . . . . . . . X # ] v v ] } O.z - 3 ;               ",
"              : 7 - z @. .X.' +.L # X . . . . . . . . . . . . . . . . . . . . . . X # L | ] } ..O.z 8 3 ;               ",
"              : 7 - v O.X.X.X.} J # . . . . . . . . . . . . . . . . . . . . . . . X # L #.O..... .z 8 m ;               ",
"              : 6 - l O. . .X.} J # X . . . . . . . . . . . . . . . . . . . . . . X # n | X.X...O.z - M ; ;             "
};
