/* XPM */
static char *doors_41706383615[] = {
/* columns rows colors chars-per-pixel */
"60 60 220 2 ",
"   c None",
".  c #020101",
"X  c #0C0000",
"o  c #000C00",
"O  c #0F0D03",
"+  c #140101",
"@  c #1A0101",
"#  c #140A02",
"$  c #130C0B",
"%  c #1C0B0B",
"&  c #1A0907",
"*  c #001200",
"=  c #0B1506",
"-  c #001800",
";  c #081D03",
":  c #0C140A",
">  c #0E1C0B",
",  c #1A1405",
"<  c #14150D",
"1  c #151A0E",
"2  c #1B190F",
"3  c #131D06",
"4  c #1E1413",
"5  c #161911",
"6  c #1B1A11",
"7  c #1F1719",
"8  c #1F1819",
"9  c #171211",
"0  c #200101",
"q  c #260C05",
"w  c #2A0C05",
"e  c #2C0B0B",
"r  c #210C0B",
"t  c #320605",
"y  c #3E0706",
"u  c #340905",
"i  c #3C0906",
"p  c #310708",
"a  c #330C0A",
"s  c #3B0B08",
"d  c #2D130B",
"f  c #231A0C",
"g  c #271607",
"h  c #301007",
"j  c #32110A",
"k  c #3C120C",
"l  c #2D0D12",
"z  c #310D13",
"x  c #221513",
"c  c #2C1413",
"v  c #231A10",
"b  c #2A1B16",
"n  c #211719",
"m  c #2B1C19",
"M  c #321512",
"N  c #3B1716",
"B  c #321D16",
"V  c #3A151C",
"C  c #351F1B",
"Z  c #3A1E1A",
"A  c #321318",
"S  c #152005",
"D  c #272312",
"F  c #2B2514",
"G  c #222B16",
"H  c #292A16",
"J  c #262619",
"K  c #2D231A",
"L  c #262919",
"P  c #2B2C1A",
"I  c #312117",
"U  c #34211B",
"Y  c #342B1C",
"T  c #3C281C",
"R  c #362619",
"E  c #3C1720",
"W  c #2F2D23",
"Q  c #352521",
"!  c #332C22",
"~  c #3D2D24",
"^  c #3E2222",
"/  c #333223",
"(  c #3B3726",
")  c #4D0604",
"_  c #430905",
"`  c #4D0905",
"'  c #430B0B",
"]  c #4C0C0C",
"[  c #440606",
"{  c #510C06",
"}  c #560E0D",
"|  c #4D110D",
" . c #46110C",
".. c #54120D",
"X. c #4C0C14",
"o. c #460E10",
"O. c #540D10",
"+. c #4D1312",
"@. c #42151B",
"#. c #4C171D",
"$. c #461F1D",
"%. c #4E1A19",
"&. c #531312",
"*. c #5B1514",
"=. c #551A15",
"-. c #5A1A13",
";. c #551618",
":. c #5C161A",
">. c #541B1B",
",. c #5B1B1B",
"<. c #62130F",
"1. c #611612",
"2. c #631A15",
"3. c #6B1C15",
"4. c #621C1B",
"5. c #6B1D1A",
"6. c #701E15",
"7. c #42291E",
"8. c #56221F",
"9. c #5B211C",
"0. c #582C1C",
"q. c #572D1E",
"w. c #6B2116",
"e. c #64231C",
"r. c #6D221B",
"t. c #6C2B1E",
"y. c #72211C",
"u. c #7B2B1F",
"i. c #4B1D27",
"p. c #5C1D23",
"a. c #571621",
"s. c #621D20",
"d. c #6D1E21",
"f. c #4C2325",
"g. c #432B22",
"h. c #4E292B",
"j. c #4F2829",
"k. c #542423",
"l. c #5A2222",
"z. c #522825",
"x. c #5D2C24",
"c. c #54262A",
"v. c #5C2728",
"b. c #53292B",
"n. c #5B2B2C",
"m. c #493726",
"M. c #5B3526",
"N. c #5D322C",
"B. c #5B392A",
"V. c #553729",
"C. c #642422",
"Z. c #6B2424",
"A. c #642B25",
"S. c #6B2A24",
"D. c #64272A",
"F. c #632C2A",
"G. c #6C2D2B",
"H. c #6F2629",
"J. c #732624",
"K. c #792626",
"L. c #752B24",
"P. c #7C2C24",
"I. c #772528",
"U. c #7C272A",
"Y. c #742C2C",
"T. c #7A2B2C",
"R. c #653625",
"E. c #6C322E",
"W. c #643A2B",
"Q. c #6A3B2C",
"!. c #683529",
"~. c #7A3026",
"^. c #74322D",
"/. c #7C322C",
"(. c #6D2E31",
"). c #742E32",
"_. c #792C30",
"`. c #712F38",
"'. c #663536",
"]. c #6A3433",
"[. c #663936",
"{. c #663638",
"}. c #6C343A",
"|. c #6C3939",
" X c #733232",
".X c #7A3232",
"XX c #733933",
"oX c #7E3B35",
"OX c #71303A",
"+X c #77403C",
"@X c #7A423F",
"#X c #812B2D",
"$X c #833125",
"%X c #82322C",
"&X c #86392E",
"*X c #8B3E2C",
"=X c #893227",
"-X c #91372E",
";X c #943A2F",
":X c #843A34",
">X c #8C3C33",
",X c #853C3B",
"<X c #8D3B39",
"1X c #933B32",
"2X c #963E38",
"3X c #A33E36",
"4X c #A03F38",
"5X c #8D4136",
"6X c #8C403C",
"7X c #954336",
"8X c #9D4634",
"9X c #96433A",
"0X c #9C443B",
"qX c #A44235",
"wX c #A4453B",
"eX c #A84237",
"rX c #8D4341",
"tX c #9A4644",
"yX c #924140",
"uX c #A44740",
/* pixels */
"                                                                                                                        ",
"                                                                                                                        ",
"                                                                                                                        ",
"                                                                                                                        ",
"                                                                                                                        ",
"                                                                                                                        ",
"                                                                                                                        ",
"                                                                                                                        ",
"                                                                                                                        ",
"                                                                                                                        ",
"                                                                                                                        ",
"                                                                                                                        ",
"                                                        ( Y Y /                                                         ",
"                                                      ~ Z N M R /                                                       ",
"                                                    ! ^ V $.@.N R /                                                     ",
"                                                  W Q V @.i.i.V N ! !                                                   ",
"                        = G P F F H D F K H G L J J m l z E E A c b K K J H H D D F F F I H G ;                         ",
"                      = H / d q j e e w q , , # O < $ $ % % % % % # # # # & q g w u a e g g Y G =                       ",
"                    : P T d s F.+XF.F.n.N.V.g.X . . X X X X X X X X X X @ g.B.A.x.F.].@XA. .h R L :                     ",
"                  > L 7.a ' H.:X.X.X).Y.G.].n.c x x < 9 7 7 4 4 x x x c c z.E.^./.H.I..X:X!.s j T L >                   ",
"                o 1 Y k ' Y.9X,XI.I.U.U.).`.v.e % $ $ $ 9 9 $ $ % % % % e n. XK.K.T.T.K.>X<XS. .M Q 5 *                 ",
"                o 1 F t Z.2XtX<XT.I._.U._.`.v.@ + X . . . . . . . X X + @ b. XL.K.%XT.T.<XtX5XZ.u B 1 *                 ",
"                o 1 B s 6XyX>X~.Z.J.J.d.I. Xc.@ + X . . . . . . . . . X + j.(.H.J.r.r.r.T.2XtX,X' B < o                 ",
"                o 5 U i <X0Xy.` { } ) ] s.}.k.0 + . . . . . . . . . X X @ z.|.C.` ` { ` ] 5.0X<Xy Z 5 *                 ",
"                o 6 U u >XtXu.....-.*.] l.].k.@ X . . . . . . . . . . X + h.{.l.| -.=.=.&.K.uX-Xy Z 9 o                 ",
"                o < B s >X0Xy.-.!.XXG.&.l.].b.@ + . . . . . . . . . . + + h.{.p.| t.XXE.;.5.4X2X[ C 5 o                 ",
"                o < B i 1X2X3.-./.oXY.&.,.|.c.@ X . . . . . . . . . . X @ c.}.c.| ^.oXXX;.5.3X2Xs C 9 o                 ",
"                o < U _ 1X4X6...G.T.L.O.s.].c.@ + . . . . . . . . . X + @ v.}.p.| L.Y.].;.r.3X;X[ C 5 o                 ",
"                o 9 C y -XeXy.-.L.K.L.&.k.'.c.@ X . . . . . . . . . . + % b.OXp...L.L.E.>.y.eX-Xy C 5 o                 ",
"                o < C i ;XeX6.*..X#X#X&.p.{.c.@ X . o . . . . . . o . X @ b.OXp.O.P.P..X*.5.3X;Xy Q 5 o                 ",
"                o < U i ;XqX3...Y.U.K.O.c.{.b.@ X . . o . . . . . . . X + c.}.p.} u.P.Y.&.3.8X7Xy E 5 o                 ",
"                o 5 K u *XqXr.-.^.U.U.O.p.{.b.@ + . . . . . . . . o . X @ c.{.p.} u.P.^.-.3.8X*Xi U 5 *                 ",
"                o 1 U u >X8Xw.=. XT.T.&.p.'.c.@ + X . . . . . . . . . X + c.{.s.&.P.~.Y.=.w.8X5Xi C 5 o                 ",
"                o 1 U u >X0X2.=.].).)...8.].v.@ + . . . . . . . . . . X @ z.|.l...L./.(.;.2.8X5Xi C 5 o                 ",
"                o 9 U y 5X0Xw.+.D.D.C.| 9.].x.@ + . . . . . . . . . . X @ z.'.l.] Z.A.D.&.5.8X*Xy U 1 *                 ",
"                o < Z _ &X0Xy.] o.o.' _ 9.E.n.@ X . . . . . . . . . . X @ z.].l.] ] [ +.X.J.2X&Xy U 1 o                 ",
"                o < c _ 5X9Xt.=.>.#.;. .,.G.c.@ X . . . . . . . . . . $ + c.E.,.] ,.,.>.&.I.wX>Xi B 1 o                 ",
"                o 6 R i 5X9X/.S.F.>.F.A.!.].k.@ X . . . . . . . . . . X @ c.].G.G.H.H.D.D..X0X>Xi U 1 o                 ",
"                o < C i 5X7X&XE.F.+.].^.E.].k.@ + . . . . . . . . . . X @ z.].]..X^.Y.(.).:X0X*Xi I 1 o                 ",
"                o < F t 5X0X~.9.;.| ,.9.A.].c.@ X . . . . . . . $ . . $ @ j.E.A.4.4.Z.p.s.%X2X>Xi U 1 o                 ",
"                o 9 U i /.7Xw.` ] &.` _ 9.].z.@ X . . . . . . . . . X X @ z.].9.) ) O.X.] 5.1X&Xu R 1 o                 ",
"                o 1 U u r.$Xw.=.,.4.,.` 9.|.n.@ X . . . . . . . . . . X @ z.E.9.{ *.4.s.*.5.=Xu.t R 1 o                 ",
"                o 1 K u &X9Xw.*..X,XY.| 9.'.z.@ X . . . . . . . . . . X @ z.E.9...T.,X.X,.3.1X:Xu R 5 o                 ",
"                * < v t ^.=X<.*..X/.Y.&.8.].c.+ X . . . . . . . . . . X + z.!.9...I..X X,.2.$XL.u v : o                 ",
"                o < m u t.P.<.*.Y.T.T...,.'.c.+ X . . . . o . . . . . X @ z.].9.&.I.Y.).,.<.u.t.t v : *                 ",
"                * : m p S.$X<.1.T.T.T.&.l.{.c.@ X . . . . . . . . . . X + z.].9.&._.H.(.:.*.u.t.w v : *                 ",
"                o : x p Z.$X1.*.).T.I.&.l.[.b.@ X . . . . . . . . . . X @ 7.n.8.&.Y.Y.).,.1.P.t.w f : *                 ",
"                o : n a S.T.1.:..XY.L.+.>.'.c.@ . . . . . . . . . X . X @ N 8.+.] Y._.`.;.*.L.t.w 2 : o                 ",
"                o : 4 p C.I.-.,.G.).^.&.8.'.c.@ X . . . . . . . . . . X + i.N.8.&.).).`.a.:.L.!.w 2 : o                 ",
"                o : n z F.Y.,.>.G.Y.G.%.k.'.h.+ X . . . . . . . . . . $ @ c.].k.;.H.).`.a.:.L.t.q 6 : *                 ",
"                o : n z F.Y.,.+.>.>.=._ %.n.f.+ X . . . . . . . $ . . . @ j.[.k.X.:.a.a.X.:.L.R.q 6 : o                 ",
"                o : n e F.Y.,.o.+.| | _ %.n.i.@ X . . . . o . . . . . X @ j.[.8.) O.O.X.X.,.^.A.q 2 : o                 ",
"                o : x p G.Y.H.C.C.-.,.=.C.].c.@ X X . . . . . . . . X X @ z.].e.*.d.5.s.,.C.^.A.q f : o                 ",
"                * = g w F.Y.:XrXoXw.L.L.Y.].v.@ + . . o o o o o o . X + @ z.E.L.%X1XT.I.4.C.^.M.g f : o                 ",
"                - ; S g V.M.W.Q.R.q.W.W.W.B.7.+ . o o o o * o o o . o . # ~ B.R.R.R.Q.0.x.M.B.m., 3 ; -                 ",
"                                                                                                                        ",
"                                                                                                                        ",
"                                                                                                                        ",
"                                                                                                                        ",
"                                                                                                                        "
};
