/* XPM */
static char *doors_21706383561[] = {
/* columns rows colors chars-per-pixel */
"60 60 242 2 ",
"   c None",
".  c #040202",
"X  c #0C0000",
"o  c #000B00",
"O  c #0A0B0A",
"+  c #140000",
"@  c #1A0000",
"#  c #1D0A05",
"$  c #1A0A0A",
"%  c #001100",
"&  c #0C150A",
"*  c #0C180C",
"=  c #0A1905",
"-  c #14160E",
";  c #15190E",
":  c #1A1608",
">  c #191711",
",  c #151911",
"<  c #1D1A12",
"1  c #151711",
"2  c #250A03",
"3  c #2D0B05",
"4  c #2A0504",
"5  c #360604",
"6  c #340B06",
"7  c #3B0906",
"8  c #330C0A",
"9  c #3A090B",
"0  c #2C1406",
"q  c #24150C",
"w  c #241A0A",
"e  c #2B150B",
"r  c #331309",
"t  c #38190B",
"y  c #211913",
"u  c #281C16",
"i  c #341415",
"p  c #331B13",
"a  c #341D1C",
"s  c #3B1D1D",
"d  c #39151B",
"f  c #340E12",
"g  c #11240B",
"h  c #2A250B",
"j  c #282407",
"k  c #242612",
"l  c #2D231C",
"z  c #2A2914",
"x  c #34211B",
"c  c #3D231C",
"v  c #352516",
"b  c #293016",
"n  c #3A1A25",
"m  c #332121",
"M  c #322D22",
"N  c #392C22",
"B  c #3B2424",
"V  c #333627",
"C  c #2E2022",
"Z  c #420A06",
"A  c #4B0C02",
"S  c #490C0C",
"D  c #460907",
"F  c #530C04",
"G  c #520D0B",
"H  c #5A0907",
"J  c #461101",
"K  c #4A1103",
"L  c #4C120D",
"P  c #5C150C",
"I  c #5B1B0B",
"U  c #56170A",
"Y  c #4B0E11",
"T  c #520E15",
"R  c #4A1111",
"E  c #451D1A",
"W  c #4A1D1C",
"Q  c #4C1817",
"!  c #5C1414",
"~  c #5D1A13",
"^  c #56141C",
"/  c #5C141B",
"(  c #5C1A1C",
")  c #541816",
"_  c #630A0A",
"`  c #63140D",
"'  c #67170D",
"]  c #621513",
"[  c #6A1413",
"{  c #641A13",
"}  c #63151B",
"|  c #641B1C",
" . c #6C1C1C",
".. c #6A191A",
"X. c #711E1D",
"o. c #56210C",
"O. c #4C221E",
"+. c #43241B",
"@. c #56241D",
"#. c #5E371D",
"$. c #64230B",
"%. c #63231D",
"&. c #6B221C",
"*. c #682717",
"=. c #72241C",
"-. c #7E2A1E",
";. c #7B281E",
":. c #65311D",
">. c #6A331D",
",. c #4D1D21",
"<. c #481726",
"1. c #551421",
"2. c #5B1622",
"3. c #5C1A21",
"4. c #591A27",
"5. c #641D23",
"6. c #6B1E23",
"7. c #721E25",
"8. c #721F2A",
"9. c #44232B",
"0. c #552524",
"q. c #552B24",
"w. c #5B2B27",
"e. c #562B29",
"r. c #5B2C2A",
"t. c #5B2023",
"y. c #4D3927",
"u. c #583727",
"i. c #572731",
"p. c #642323",
"a. c #6B2324",
"s. c #652B23",
"d. c #6C2B23",
"f. c #6C222B",
"g. c #622C29",
"h. c #6B292B",
"j. c #742523",
"k. c #7B2624",
"l. c #742C24",
"z. c #7B2B24",
"x. c #73252A",
"c. c #7C262A",
"v. c #752C2C",
"b. c #7B2B2B",
"n. c #653424",
"m. c #6D3323",
"M. c #64322A",
"N. c #6C332D",
"B. c #67392B",
"V. c #75342C",
"C. c #7C352C",
"Z. c #7A382A",
"A. c #692831",
"S. c #792D31",
"D. c #693633",
"F. c #723231",
"G. c #7D3533",
"H. c #783936",
"J. c #544436",
"K. c #7E4638",
"L. c #734A33",
"P. c #84261E",
"I. c #88291E",
"U. c #812522",
"Y. c #852921",
"T. c #892A21",
"R. c #8B2B2A",
"E. c #882726",
"W. c #853526",
"Q. c #84342D",
"!. c #8B342D",
"~. c #843A2D",
"^. c #8C3A2C",
"/. c #853626",
"(. c #94352C",
"). c #933D2D",
"_. c #9C382A",
"`. c #832E32",
"'. c #853431",
"]. c #8C3532",
"[. c #843B33",
"{. c #8C3B33",
"}. c #84363B",
"|. c #89363D",
" X c #843A3B",
".X c #8B3C3B",
"XX c #943C34",
"oX c #9C3D33",
"OX c #933C3A",
"+X c #9B3D3C",
"@X c #933633",
"#X c #A13E2E",
"$X c #A33D33",
"%X c #A33E3A",
"&X c #8D412E",
"*X c #854333",
"=X c #8D4134",
"-X c #8C453C",
";X c #894A3C",
":X c #954235",
">X c #9C4235",
",X c #94433B",
"<X c #9B443C",
"1X c #944A3C",
"2X c #9A493C",
"3X c #9E4937",
"4X c #97533B",
"5X c #A24133",
"6X c #A1443B",
"7X c #A34C3D",
"8X c #A44535",
"9X c #A6513E",
"0X c #873C41",
"qX c #953C44",
"wX c #8B4441",
"eX c #864C42",
"rX c #8D4D44",
"tX c #8C4C49",
"yX c #874648",
"uX c #9A4442",
"iX c #924B45",
"pX c #9B4E45",
"aX c #924D4B",
"sX c #914240",
"dX c #8E524D",
"fX c #9B5344",
"gX c #995949",
"hX c #9E5B53",
"jX c #A24943",
"kX c #A2554C",
"lX c #AD5A4C",
"zX c #A9584A",
"xX c #A15C52",
"cX c #99614C",
"vX c #956249",
"bX c #9B6354",
"nX c #956550",
"mX c #977159",
"MX c #8F614F",
"NX c #AD614D",
"BX c #A66350",
"VX c #B26752",
/* pixels */
"                                                                                                                        ",
"                                                                                                                        ",
"                                                                                                                        ",
"                                                                                                                        ",
"                                                                                                                        ",
"                                                                                                                        ",
"                                                                                                                        ",
"                                                                                                                        ",
"                                                                                                                        ",
"                                                                                                                        ",
"                                                                                                                        ",
"                                                                                                                        ",
"                                                        V M M V                                                         ",
"                                                      V m a i x N                                                       ",
"                                                  V M m n <.<.d c N                                                     ",
"                                                V N C i n <.i.d p c +.                                                  ",
"                        = k b b h j h v v z k z h p r e d n n i r t t t z k k z z k h h h z b &                         ",
"                      O b v 0 3 r t r 6 6 3 0 t 8 8 0 2 $ $ @ # 2 4 7 7 t e w j : 0 t 8 3 p N l O                       ",
"                    & N c t 7 @.eXbXbX;Xm.>.K.bXK.K.B.p X X X X +.L.*X*XnXmXmXL.#.L.MXeXh.Z r 9.m O                     ",
"                  - l c 8 Z d.-XiXfXfX1X~.~.2X7X7X2X;Xu.0 q q 0 u.*X:X8XfXfX4X=XZ.,XgX<XOXx.Y 9 9.m ;                   ",
"                o , N r Z d..XuX<X<X<X2X/./.oX$X$X%X1XM.2 $ # 2 n.2XoX#X<X,XXX).R.3X6X%X%XqXv.S d B > %                 ",
"                o ; a 9 s.,XuXuXuX<X,X4XZ./.<X6X$X%XiXw.@ X + @ w.1X>XoX<X1XuX/.=.<X<X<X+XjXOXd.5 a > o                 ",
"                o - p 9  XuXOX`.'.~.Z.Z.:.>.~.!.R.+XiXe.+ X X + w.iX,XR.'.H.H.@.U C.~.~.'.).:X{.7 p ; %                 ",
"                o ; s 7 {.6XX.A F F A K J K F F H !.tXe.+ X . + e.iX!.H H A L J J A F A A  .:X=X6 v ; o                 ",
"                o , x 7 {.<Xj.G U I I U I { { H H [.tXe.X X . + r.dX'._ _ / o.o.o.o.U U K *.2X=Xr z ; o                 ",
"                o - a 6 :X<X&.G p.*XfXzXkXiX'.{ H '.tXe.+ + X + r.aX'._ ..b.1XgX4X4X*Xg.) d.,X[.6 l , o                 ",
"                o - a 6 ^.6Xl.) s.1XzXlXzXjX{...] H.dXe.@ X X X e.tX'.` ..[.pXlXNX9X:Xa.) x.<X.X8 l ; o                 ",
"                o , l 6 ^.3Xz.) p.,X>X6X%XqX].' ` *XdXr.+ X X + 0.K.Z.` {  X<X5X8X5XoX6./ j.6X{.7 n , o                 ",
"                o 1 x 6 ^.#Xk.^ p.<XoX(.@XoX].` P [.iXr.@ X + + O.V.V.` ] [.:X_._._.#XX.2.c.6X!.9 a , o                 ",
"                o - a 7 _.$Xc./ 5.OXT.I.Y.).@X' ' [.tXr.@ + X + q.eX~.I P [.^.P.P.I.oX .^ c.%X^.Z s > o                 ",
"                o 1 x 7 ).#Xc.2.x.+XT.P.P.(.{.` ' [.iXg.@ X X @ W Z.l.' ] [.Q.z.P.T.,Xf.^ z.5XXXZ s > o                 ",
"                o - a 7 ).5Xx.1.f.OXI.P.k.!.].' ` [.iXr.@ X X @ 0.-XW.' [ ].'.Y.P.T.OXp.^ j.5X).Z a , %                 ",
"                o 1 a 6 &X>Xl.1.f.OXY.U.z.Q.{.] { [.tXr.@ X X @ r.iX{.' [ @X].U.P.T.OXf.^ x.>X).7 a ; o                 ",
"                o , a 6 &X3Xk.^ f.OX].].Q..X.X] { H.tXr.@ X X + w.tX^._ [ 0XqXQ.!.].OXf.3.b.>X^.7 v ; o                 ",
"                o - a 7 XX6Xk./ 6.'.[.Q.~.'.V.~ ~  XtXr.@ X + + u.;X~.] | S.G.G.~.'.'.p./ z.>X{.7 l - o                 ",
"                o > c Z ^.%Xc.} ! F A F G A S { ~ [.aXg.@ + X + q.;X*X{ { G A F F F { } ! k.<X{.7 x ; o                 ",
"                o > a 7 ^.6Xz.! ) { I U ! ~ ! ~ { C.;Xg.4 + + @ r.tX[.` P I o.o.I P ] ( ! j.6X=X7 a - o                 ",
"                o - s 9 =X<X.XH.yXgXhXbXF.p.wXkX{.-XiXg.@ X + @ w.iX,X{.gXBXvXvXcXxXhXwX X.X+X{.7 v ; o                 ",
"                o > s 7 {.:XsXtXdXbXnXnXM.p.aXxX1X;XtXw.@ X X @ g.iX-X2XxXgXvXvXcXBXxXaXaXuX6X{.7 s - o                 ",
"                . - a 7 {.:X'.F.N.m.:.n.Q ) V.a.l.*XtXw.+ X X + r.iX=X>.m.:.:.:.>.>.l.h.v.'.6X,X7 a - o                 ",
"                o - a 8 [.:X&.D D A K J J K F A F C.yXe.+ X . @ 0.;Xz.F A K J J A F F H D [ oX].7 x ; o                 ",
"                o 1 n 5 =.-.{ ! I I *.$.*.*.] ` ! 6.F.,.@ X X + @.Z.=.F P @.$.$.$.' { { G X.!.j.5 x ; o                 ",
"                o 1 a 8 [.XX=.! | =XNXNXNXzXQ.] ] }.tXi.@ . X @ e.rX!.' ..G.fXVXVXlX>X| ! j.<X[.6 l , o                 ",
"                o - y 4 l.W.X./ j.:X7X7X7XjX{.` ] x.H.,.@ . . + O.H.v.` }  XpXfX9X7X<Xj.! X.Q.l.6 y * %                 ",
"                o * u 4 *.z.X.] 7.%X>X5XoXoX].' ] a.N.W @ . . X E D.d.] } |.<XoXoXoX+X7./  .k.a.3 < & %                 ",
"                % * C 6 >.Y.../ 7.+X(.(.(.oX{.` { d.N.W + . . + E D.d.} } |.OX(.(.(.+X7./  .z.d.0 < * %                 ",
"                o * y 3 d.Y.X.} 7.+XE.U.P.!.{.` I s.D.O.X . . X n g.p.} } |.].P.I.R.qX7./ &.Y.s.3 < & %                 ",
"                o * < 4 d.7...} 8.qXR.E.U.]..X{ I :.M.E X . . X e W ( } } |.`.k.U.R.qX6./ 6.z.s.2 < & %                 ",
"                o & < 8 d.v.6.2.8.0Xc.c.c.|.|.] ! d.V.O.@ . . X n A.a.} }  X}.l.c.`.qX8.1.6.z.d.3 < & %                 ",
"                o & y 4 d.l.5.2.A.0XG.S.S.0X|.| ~ d.D.W + X . X <.H.x.! ..0X Xv.b.`.0Xf.4.5.l.d.3 < & o                 ",
"                o & y 6 m.V.p.1.1.p.2.( ^ 3.5.3.| ( 3.i X . X + E F.j...( 3.( ) / 5.f.4.1.6.b.d.6 < & o                 ",
"                o & y 3 s.V.p.Q Q Y S R R Y Y ^ 3.t.0.i X . . + E N.d.] ^ Y L R Y T 2.1.1.6.b.l.4 q & o                 ",
"                o - q 4 s.V.a.p.p.a.&.p.p.| | 5.p.A.D.s X X X + O.V.j.{  .x.a.p./ | } 5.5.a.v.p.3 w & %                 ",
"                o = w 3 g.d.l.v.Q.XX,XXXk...b.wXF.D.D.B + X X + +.N.m.Q.OXOXsXv.| x...x.S.b.V.M.0 w = %                 ",
"                % = = w y.u.B.n.s.m.m.m.m.m.B.B.q.u.J.M . o o . z J.u.n.V.m.B.B.q.@.M.0.r.M.u.y.: = = =                 ",
"                                                                                                                        ",
"                                                                                                                        ",
"                                                                                                                        ",
"                                                                                                                        ",
"                                                                                                                        "
};
