/* XPM */
static char *doors_removebg_preview__1_1705783636[] = {
/* columns rows colors chars-per-pixel */
"60 60 246 2 ",
"   c None",
".  c #000D01",
"X  c #02020C",
"o  c #0A0504",
"O  c #1C0B03",
"+  c #190807",
"@  c #021302",
"#  c #0A1407",
"$  c #0C1409",
"%  c #081907",
"&  c #14140D",
"*  c #1C130B",
"=  c #17190C",
"-  c #060812",
";  c #0D141A",
":  c #1C1D13",
">  c #161716",
",  c #190B12",
"<  c #250503",
"1  c #2C0605",
"2  c #260B04",
"3  c #2C0A05",
"4  c #220C0C",
"5  c #2A0A0B",
"6  c #2C0608",
"7  c #350605",
"8  c #320A04",
"9  c #3B0C0A",
"0  c #360B08",
"q  c #22130D",
"w  c #2A130D",
"e  c #2A170A",
"r  c #371409",
"t  c #360D11",
"y  c #2E1514",
"u  c #2B1A13",
"i  c #281A18",
"p  c #321413",
"a  c #3B1513",
"s  c #321A14",
"d  c #3B1A13",
"f  c #321D1A",
"g  c #3B1C1B",
"h  c #3E141A",
"j  c #1E2114",
"k  c #1C211A",
"l  c #122610",
"z  c #242416",
"x  c #2B251B",
"c  c #2C2A1B",
"v  c #292415",
"b  c #34251D",
"n  c #34291B",
"m  c #3A261B",
"M  c #27331D",
"N  c #312C15",
"B  c #161A23",
"V  c #2C2E23",
"C  c #272727",
"Z  c #382824",
"A  c #2A3428",
"S  c #363629",
"D  c #2D3533",
"F  c #393C3A",
"G  c #490F0C",
"H  c #450D09",
"J  c #520A0A",
"K  c #45120E",
"L  c #4A110D",
"P  c #461508",
"I  c #54110D",
"U  c #480D13",
"Y  c #540D15",
"T  c #441314",
"R  c #4B1413",
"E  c #441A16",
"W  c #4B1A14",
"Q  c #4B151A",
"!  c #451A1A",
"~  c #49171B",
"^  c #5D1414",
"/  c #541C14",
"(  c #5B1B15",
")  c #55151B",
"_  c #5A151B",
"`  c #531B1C",
"'  c #5B1A1B",
"]  c #551312",
"[  c #621314",
"{  c #651C15",
"}  c #631B1B",
"|  c #671919",
" . c #751E1E",
".. c #44281B",
"X. c #572619",
"o. c #4D2B16",
"O. c #64231A",
"+. c #6B261C",
"@. c #792B1C",
"#. c #71311C",
"$. c #4A1B23",
"%. c #5B1424",
"&. c #5B1C23",
"*. c #561924",
"=. c #631B23",
"-. c #651723",
";. c #711F27",
":. c #600F23",
">. c #5B2527",
",. c #4A3528",
"<. c #583B28",
"1. c #593D32",
"2. c #453534",
"3. c #652222",
"4. c #6C2324",
"5. c #6E2C24",
"6. c #682929",
"7. c #712223",
"8. c #742B24",
"9. c #7B2A24",
"0. c #732C2B",
"q. c #7B2A2C",
"w. c #772427",
"e. c #6A3628",
"r. c #7D3424",
"t. c #7B342B",
"y. c #793829",
"u. c #6A2931",
"i. c #7A2934",
"p. c #6D3834",
"a. c #793834",
"s. c #3B4636",
"d. c #5D432B",
"f. c #574229",
"g. c #454B3A",
"h. c #574535",
"j. c #45523D",
"k. c #494B2E",
"l. c #7B4637",
"z. c #675B3F",
"x. c #724931",
"c. c #7F3D41",
"v. c #3B4946",
"b. c #424B43",
"n. c #474849",
"m. c #495449",
"M. c #585746",
"N. c #4B5D52",
"B. c #525955",
"V. c #745C49",
"C. c #6E5C48",
"Z. c #56644A",
"A. c #546252",
"S. c #5C6A5B",
"D. c #5A6559",
"F. c #5E735A",
"G. c #646748",
"H. c #776548",
"J. c #65695B",
"K. c #677057",
"L. c #7D7857",
"P. c #756C53",
"I. c #5E7268",
"U. c #5F6D64",
"Y. c #666862",
"T. c #797B63",
"R. c #832613",
"E. c #842B16",
"W. c #8B2D16",
"Q. c #83241A",
"!. c #832A1B",
"~. c #8A2B1B",
"^. c #8B2719",
"/. c #8B331B",
"(. c #842D24",
"). c #832D2B",
"_. c #8B2D2B",
"`. c #8A2A25",
"'. c #912E24",
"]. c #823224",
"[. c #8B3323",
"{. c #84332B",
"}. c #8B342B",
"|. c #863B2A",
" X c #9C3D25",
".X c #933D2D",
"XX c #9C3C2C",
"oX c #943627",
"OX c #8C3634",
"+X c #853A34",
"@X c #8B3C34",
"#X c #8B3C3A",
"$X c #863836",
"%X c #933D33",
"&X c #9C3D34",
"*X c #933D3B",
"=X c #973736",
"-X c #8C2F33",
";X c #A23D2C",
":X c #A53D2A",
">X c #A23D32",
",X c #A53D37",
"<X c #9B431F",
"1X c #9D432D",
"2X c #994228",
"3X c #8D433A",
"4X c #874638",
"5X c #934133",
"6X c #9C4234",
"7X c #94443B",
"8X c #9C443B",
"9X c #954C37",
"0X c #935539",
"qX c #8E4933",
"wX c #A3422C",
"eX c #A5412A",
"rX c #A34334",
"tX c #A2443B",
"yX c #A74738",
"uX c #AD543D",
"iX c #A75A35",
"pX c #B0653F",
"aX c #923E42",
"sX c #8E4E45",
"dX c #8C4345",
"fX c #964943",
"gX c #945243",
"hX c #9A5946",
"jX c #A85745",
"kX c #B55D48",
"lX c #AE5B52",
"zX c #876A4A",
"xX c #917859",
"cX c #97674C",
"vX c #A96647",
"bX c #B1624B",
"nX c #B06353",
"mX c #93825F",
"MX c #98836E",
"NX c #938C70",
"BX c #A7846A",
"VX c #AE9672",
"CX c #C39A77",
"ZX c #C5A177",
"AX c #B6A38A",
"SX c #B99F87",
/* pixels */
"                                                                                                                        ",
"                                                                                                                        ",
"                                                                                                                        ",
"                                                                                                                        ",
"                                                                                                                        ",
"                                                                                                                        ",
"                                                                                                                        ",
"                                                      M M M M                                                           ",
"                                                    M v v u n Z                                                         ",
"                                                  V b g E d E ..S                                                       ",
"                                                V b g h $.$.d f c A                                                     ",
"                      # M M c c c n c v x x n m m p p g m b f w u c n c x c c v v n m m c l %                           ",
"                    $ V m 5 3 8 8 0 7 1 8 8 8 8 7 7 6 6 5 < < 2 2 2 3 e 3 1 3 8 7 0 7 8 d N z .                         ",
"                  & f m 0 H O.qXhX0Xt.+.#.#.+.|.fXOX7._ Q Q X.e.0X0X0X0X0X|.+.#.+X7X+X[ 0 s m f o                       ",
"                > g $.0 P +..XyXuXuXwX[.oX|./.wXuXyX,Xq.' =.OX5XiXiXiXiXiXtX[.[.tXjXtXOX' 0 h $.i $                     ",
"              @ z m t K 0.%XyXeX2X X;XXXXXoXW.:X:X,X,X}._ =.=X>X<X<X<XeX2XwXoX/.wX6X,X8Xt./ 0 T 2.$                     ",
"              @ z p 7 5.3X8XtXrXyXXXrX,X,X=X`.tXrX>XwX{._ -.=X,X:XwXwXXX6XrX~.~.wX1X7X7X7X|./ 6 Z $                     ",
"              @ z s K +X7X%XOX}..X%XOX%X*XOXq.#X%XXX1X].( } =X:XXXXX*X@X#X3X{ { .X.X4X4X5X9Xy.6 b &                     ",
"              . = e K fX7X| ) Y P R L R P H L R I [.yX].I { &X,X .H R R R P G I ^ ] L G t.fXy.3 c $                     ",
"              . j s K fX8X] R $.R R R W W W ~ E L {.1Xr.( O.%X8X+.K ! ~ E ~ Q R G ) E H w.fXy.1 c $                     ",
"              . j u K 8X&X} Q 3.a.gX0X9XsX4X5.$.` +XrX].^ | XX&X6.) >.t.7XsXsXsXdXa.` ` r.tXr.8 x %                     ",
"              . j u P 6X>X ._ 4.fXnXkXbXkXjX$X*.*.+X8X(.I | *X&Xw.) 4.8XkXjXnXlXlX#X' ( ].rX].8 n $                     ",
"              . : y G &X>X .^ w.fX;X X1X:X>XOX-.' {.9X{.:.| OX*Xw.) +.rXwX2XwX1X&X*X} I ].1Xr.7 m &                     ",
"              . k i K 6X,X .[ @.,X:X X X;X,X-X-.=.|.1X{.^ _ | i.4._ =..X2X X X:X>X*X| [ (.rX].7 n $                     ",
"              . : f T %X&X .[ 9.XXW./.!.^.=X*X_ =.|.qXy.` *.V.aXu.*.=.5X/.W.W.^.'.=X} } (.tX{.7 Z #                     ",
"              . B i T dX&X;.^ 8..XR.E.R.Q.-XOX%.' a.9Xy.$.>.>.u.>.*.3.5XE.R.R.Q._.aX%.) q.fXt.7 Z $                     ",
"              . : i T 7X*X4.^ 0.5X@.!.!.^.-X#X*.9 R / a 6 t 6 t t h 6.5XE.R.R.@.-XaX=.%.).fXt.7 Z $                     ",
"              . : f K 5X%X7.^ w.5XR.Q.`.Q.'.t.T d ..<.e.p.1.1.,.b y ` @X~.W.Q.!.(.aX=._ -XtX).7 b #                     ",
"              . j s L %X>X .[ w..X}.}.{.(.oXt.1 h.H.mXVXCXCXVXxXC.Z t #X'.'.'.[.}.3X=.^ _.,X[.0 Z $                     ",
"              . : s L 6X>X;._ 4.#X7X#X$X@XfXp.4 M.K.G.zXBXxXC.J.Y.g.p 4X.X%X%X@X4Xa.>.} _.,X(.0 b $                     ",
"              . j s G 5X,X7.*.Q Q U R K R Q y , D.U.S = r e * j.Y.2.+ ! R Y J T E ~ R _ -XtXq.7 b #                     ",
"              . q s G &X&X4.) ~ Q E R W ~ t o ; v.m.k + e e o k.m.A o 4 h Q R K E E ) ] _.yX].7 b $                     ",
"              . q s L &X6X{.4XsXgXgXgXl.E y S s.B.T.P.C.cXzXH.L.G.Z.s.c u x.0X9X0X0XfX}.oXrX].0 x #                     ",
"              . z s L 5XwX&XjXnXvXvXnXgXE x D.S.K.NXVXZXCXCXZXBXL.G.F.b.e l.vXbXbXbXnXyXeXwX].8 N $                     ",
"              . : y K 7X6X].|.|.r./.r.l.d Z J.S.J.z.H.xXxXxXxXC.M.A.K.D.O o.x.y.r.r.{.q..XtXr.1 x #                     ",
"              @ k u 9 #X@XO.P H H P P r 2 V Y.Y.D.x = j > & > , g.S.S.D.= e r T K T ~ U 5.7Xp.5 x #                     ",
"              . : f a t.q.I L / / / X.P 4 Z Y.m.n.C > ; ; B B ; F N.m.A.$ f ..$.*.$.$.T 6.a.3.4 C #                     ",
"              . : f T $X*X=._ 3.4XhXiXzXm V D.n.n.C - X - - - ; D v.m.D.+ C.cXjXhXa.*.` 0.3X5.5 C #                     ",
"              . > w H {.OX-._ q.9XjXiXvXo.A D.b.n.B X X - X X - C b.M.M.* l.iXuXjXOX( ' 9.|.5.1 x #                     ",
"              . > q 9 w.).[ ^ 8.qXqX2X9Xm V F.v.v.C C ; X X B C F b.m.A.* e.1XwX;XXX{ ( +.@.O.3 x $                     ",
"              . j u 9 8.9.} ] 5.qXqX.X4Xd V S.s.b.m.m.C o - n.n.n.s.m.A.* 5..XoXXX&X=.) O.@.O.2 z $                     ",
"              . = * r 8.9.} _ 0.5X@.9.8.r c A.s.j.g.g.Z + , F n.b.g.m.m.* X.].~.~.=X=.*.7.9.O.2 k $                     ",
"              . $ q 9 8.w.-.%.q.OX(.9.0.s = A A j.k.g.g.<.1.g.g.b.s.A M O o.#.!._.*X-.%.4.(.O.< : %                     ",
"              @ > q 9 q.).-.:.i.=Xw.).] m F v.N.A.Z.xXNXBXxXNXJ.Z.Z.m.b.S a ( 8.{.aX-.%.;.q.3.2 : #                     ",
"              @ > q 9 0.q.-.:.i.aXq.8.9 Z v.N.Y.S.S.NXAXSXSXSXxXK.F.A.m.n.w ! e.a.dX&.%.;.).4.6 > #                     ",
"              @ $ * a 5.q.-.%.-.q.{ ( 0 i D D v.s.s.M.J.V.V.C.g.s.s.D A Z + d >.u.u.%.%.;.).} 1 : @                     ",
"              @ $ i a 0.q.=.%.Y J J G 7 6 , 4 , O 2 1 < < < e 2 O + + O 5 1 0 T Y Y %.%.;.).} < : %                     ",
"              @ $ * a 5.8.3.=.=.[ { ( / ) %.&.X.( O.e.X.r P 6.6.X.X.X.X.X./ ` _ :.:.%.%.;.q.3.2 i %                     ",
"              @ % $ w e.e.e.x.l.l.4Xl.p.X.X.p.a.r.5.e.o.e r p.p.e.y.4Xl.4Xl.x.6.3.u.*.e.u.e.X.O l %                     ",
"              @ l l : <.f.,.f.h.d.d.d.f.,.,.1.1.<.<.f...l v ,.h.1.d.d.d.d.d.<.,...2.Z ,.<.f.,.# l %                     ",
"                                                                                                                        ",
"                                                                                                                        ",
"                                                                                                                        ",
"                                                                                                                        ",
"                                                                                                                        ",
"                                                                                                                        ",
"                                                                                                                        ",
"                                                                                                                        ",
"                                                                                                                        ",
"                                                                                                                        "
};
