/* XPM */
static char *doors_31706383591[] = {
/* columns rows colors chars-per-pixel */
"60 60 232 2 ",
"   c None",
".  c #020101",
"X  c #0B0000",
"o  c #000C00",
"O  c #0D0D09",
"+  c #120000",
"@  c #1A0A05",
"#  c #120D0A",
"$  c #190D0A",
"%  c #1F0604",
"&  c #001301",
"*  c #0C1406",
"=  c #0C150B",
"-  c #0B1B08",
";  c #16160E",
":  c #1C120D",
">  c #16190D",
",  c #161806",
"<  c #171711",
"1  c #1A1713",
"2  c #151911",
"3  c #1D1914",
"4  c #250A05",
"5  c #2C0B06",
"6  c #260C0C",
"7  c #2B0C0C",
"8  c #220605",
"9  c #340705",
"0  c #330A06",
"q  c #3C0906",
"w  c #330C0C",
"e  c #3D0A0A",
"r  c #390507",
"t  c #23160D",
"y  c #2E1209",
"u  c #281708",
"i  c #32120C",
"p  c #35190B",
"a  c #361209",
"s  c #390F12",
"d  c #221712",
"f  c #2D1214",
"g  c #221C1A",
"h  c #271A17",
"j  c #3A1A15",
"k  c #3B151A",
"l  c #351E1B",
"z  c #391D1C",
"x  c #371614",
"c  c #152008",
"v  c #25250C",
"b  c #28240C",
"n  c #2A2514",
"m  c #2C2C13",
"M  c #2E231D",
"N  c #272917",
"B  c #342116",
"V  c #34221B",
"C  c #322C1B",
"Z  c #39271C",
"A  c #3D1A21",
"S  c #2D2221",
"D  c #3C2B24",
"F  c #362523",
"G  c #2F3620",
"H  c #343223",
"J  c #333B24",
"K  c #440B05",
"L  c #4C0B03",
"P  c #450C0C",
"I  c #4A0E0A",
"U  c #470706",
"Y  c #530B04",
"T  c #530D0B",
"R  c #520604",
"E  c #4D1005",
"W  c #44110C",
"Q  c #4C130C",
"!  c #48150A",
"~  c #521103",
"^  c #53120D",
"/  c #5A140C",
"(  c #53190E",
")  c #5A1A09",
"_  c #5B1705",
"`  c #450E14",
"'  c #4C0F12",
"]  c #4A0F19",
"[  c #560F12",
"{  c #441315",
"}  c #4B1313",
"|  c #46131B",
" . c #49141B",
".. c #471A1A",
"X. c #531312",
"o. c #5C1614",
"O. c #541A14",
"+. c #5B1B14",
"@. c #54161C",
"#. c #5B171B",
"$. c #541A1B",
"%. c #5B1A1B",
"&. c #611B0C",
"*. c #631713",
"=. c #641C14",
"-. c #691915",
";. c #601719",
":. c #651C1B",
">. c #6A1C1A",
",. c #691716",
"<. c #731F1A",
"1. c #552416",
"2. c #65210D",
"3. c #6B2212",
"4. c #64211D",
"5. c #6C231C",
"6. c #6C2C1E",
"7. c #652518",
"8. c #72241C",
"9. c #77291E",
"0. c #66331F",
"q. c #4E1E28",
"w. c #5A1D23",
"e. c #551922",
"r. c #631E24",
"t. c #422424",
"y. c #5F2223",
"u. c #5D2F24",
"i. c #542929",
"p. c #4A3627",
"a. c #5D322E",
"s. c #5D3B2C",
"d. c #563527",
"f. c #5E3434",
"g. c #632322",
"h. c #6B2623",
"j. c #642D23",
"k. c #6C2B23",
"l. c #642E2B",
"z. c #6A2F2C",
"x. c #732523",
"c. c #732C24",
"v. c #7C2B25",
"b. c #732C2A",
"n. c #7C2C2A",
"m. c #7F2424",
"M. c #6C3322",
"N. c #63322D",
"B. c #6B312C",
"V. c #663A2C",
"C. c #6B3A2B",
"Z. c #673625",
"A. c #74322C",
"S. c #7A332C",
"D. c #763726",
"F. c #682E31",
"G. c #7C2F30",
"H. c #643333",
"J. c #6B3232",
"K. c #643935",
"L. c #693835",
"P. c #603839",
"I. c #733431",
"U. c #7A3131",
"Y. c #7D3832",
"T. c #763B37",
"R. c #7B433A",
"E. c #754335",
"W. c #842B1D",
"Q. c #852815",
"!. c #842623",
"~. c #842923",
"^. c #8A2925",
"/. c #842B29",
"(. c #892F2A",
"). c #842725",
"_. c #833623",
"`. c #83342D",
"'. c #8B342D",
"]. c #843B2D",
"[. c #8C3C2D",
"{. c #883A25",
"}. c #933A2E",
"|. c #973A2B",
" X c #843431",
".X c #8B3431",
"XX c #853B34",
"oX c #8C3B34",
"OX c #8A3E3B",
"+X c #863D3D",
"@X c #943532",
"#X c #923C34",
"$X c #9D3A33",
"%X c #933D3B",
"&X c #983E3A",
"*X c #A13F38",
"=X c #84422C",
"-X c #99412B",
";X c #97442E",
":X c #8C4235",
">X c #8C413B",
",X c #884635",
"<X c #944235",
"1X c #9B4334",
"2X c #934A33",
"3X c #9D4835",
"4X c #94433C",
"5X c #9B443A",
"6X c #94493E",
"7X c #84523F",
"8X c #A2443B",
"9X c #A34939",
"0X c #893F42",
"qX c #8C4F45",
"wX c #874846",
"eX c #9C4542",
"rX c #964A42",
"tX c #8C5349",
"yX c #955D4D",
"uX c #9C5D4D",
"iX c #995647",
"pX c #8C5352",
"aX c #945E57",
"sX c #9B5E54",
"dX c #A34D43",
"fX c #A5594C",
"gX c #A95646",
"hX c #A95D53",
"jX c #91604E",
"kX c #996254",
"lX c #A16254",
"zX c #B56658",
/* pixels */
"                                                                                                                        ",
"                                                                                                                        ",
"                                                                                                                        ",
"                                                                                                                        ",
"                                                                                                                        ",
"                                                                                                                        ",
"                                                                                                                        ",
"                                                                                                                        ",
"                                                                                                                        ",
"                                                                                                                        ",
"                                                                                                                        ",
"                                                                                                                        ",
"                                                        J C C G                                                         ",
"                                                      H B j x V H                                                       ",
"                                                    H F k | ..x Z D                                                     ",
"                                                  H V j k q.q.k k F D                                                   ",
"                        - m m v v m b n n n N n V B l t f A k k f f V B V n N n n b b b v m N *                         ",
"                      , C B y 4 y p y 0 5 5 y 4 4 % @ , $ @ $ $ $ % 6 7 4 5 i u u y p y 5 p C N *                       ",
"                    * h j a P j.qXkXR.R.A.T.R.l.u.7 + X . . . . . X 4 i.u.R.aX7X0.E.yX7Xj.P w D S =                     ",
"                  > M t.a K h.%X6XrX6X4X X X+XU.B.s 6 : 1 1 1 1 > : j J.A.>X6X,XD.,XiX6XOXh.` w D S >                   ",
"                o > F s W h.OXdX8X<X5X4X'..X%Xn.b.` 8 # # # O O , @ s z.n.%X4X[._.2X6X%X4X%Xb.P s F 2 o                 ",
"                o > z r g.OXeX5X5X5X3X<X'.oX%Xn.b.w + X . . . . . X 6 u.n.4X4XS.9.rXeX&XeXeXrXh.r l < o                 ",
"                o < z U 0XeXoX`. X].].].c.c.D.k.J.w + X . . . . o X 6 N.A.S. X5.^  X X.XoX@XeXXXK p ; o                 ",
"                o 2 z e oX5X<.Y Y R Y ~ K K ( N.H.f + . . . . . . X 6 L.k./ L T L Y Y T R <.4X:Xe B > o                 ",
"                o < l r oX5X5.E ( ) _ &.) L Q V.a.7 X . . . . . . X 7 N.z.^ ^ / o.*.&.+.^ 5.<X,Xq B > o                 ",
"                o 2 l r %X8X6.W 1.=XgXfX:X1.! N.a.7 X . . . . . . X f H.k.^ O.+XhXfXXXX.! c.<X].0 B > &                 ",
"                o 2 V 0 #X3Xk.! ( ,XgXgX#X*.^ V.H.7 X X O . . . X + w J.B.^ 2.,XfXgX6XO.Q c.4X:X0 M 2 o                 ",
"                o 2 S 9 [.$Xc.{ O.<X*X*X.X,.X.J.H.7 + X . . . . X + 7 H.N.Q =.{.;X;X4XO.} b.5XoXw V 2 o                 ",
"                o ; l q }.|.h.{ $.4X*X$X.Xr.[ z.F.7 + O O . . . X + 7 H.V.Q 2._.|.-X;XX.` b.5X[.r S 2 o                 ",
"                o ; l K |.9Xb.| @.OXW.!.m.,.[ z.f.w + . . . . . . X 7 f.f.! 2.W.Q.Q.;X%.} x.5XoXr F 2 o                 ",
"                o < j K {.-Xb.] e.&X^.^./.>.o.F.a.6 O . . . . . . . 6 f.N.Q =.9.Q.W.<X@.] b.3X<Xr F 2 o                 ",
"                o 2 j q {.2Xb.] e.%X^.!.n.,.T z.H.6 . . . . . . . X 6 H.H.X.:.~.!.W.%X@.] b.1X[.q l > o                 ",
"                o < z q =X2XZ.| e.%X^.!.v.,.^ z.N.6 . o . . . . . X f P.b.o.r.n.m.v.%X@. .n.1X{.q B > &                 ",
"                o < l 9 =X2Xk.| e.rX.X.X`.>.X.B.N.6 . . . . . . . X 6 H.z.X.;. XXXOXwX$.} c.3X{.q B > o                 ",
"                o : l q :X4Xk.| $.S.].].c.o.^ B.f.6 X . . . . . . X 7 H.B.X.+.c. XXXY.@.W 9.3X=Xq B > o                 ",
"                o 1 l q {.1XA.} P L R Y Y L Q N.H.7 + . . . . . . X 6 H.J.^ I E K L L I Q 9.9X:Xq B > o                 ",
"                o 2 l q #X8Xb.} $.+._ / o.X.X.l.L.7 X X . . . . X X 7 H.z.^ ~ ( +.+.( $.( 8.;X[.e B > o                 ",
"                o ; l e oX$X>XwXaXlXuX6.z.T.T.J.H.7 + X . . o . . X 7 N.A.S.6XkXjXuXsXkXqX>X1X[.e B ; o                 ",
"                o < l e @X*XqXpXkXkXuX7.B.qXwXL.F.7 + + . . . . . X 6 N.A.>XuXkXuXuXkXkXtXrX5X[.q j ; o                 ",
"                o 2 V e @X8X Xz.Z.6.9.~ %.B.z.F.F.7 + X . . . . . X 7 N.c.c.k.0.0.6.6.z.N.`.8XoXq l > o                 ",
"                o < A 0 (.$X>.K I Y Y L L Q } l.L.w + X . . . o . X 7 V.c.Y L L L ~ L I L -.#XoXq V 2 o                 ",
"                o 2 F e 8.!.*.Q ( &.3.3.=.T X.z.H.w + X . . . . . X 7 N.I.T _ 2.3.3.=.O.I &.~.9.0 V 2 o                 ",
"                o < h w XX5Xx.Q %.:XhXzX6X*.Q J.L.7 + X . . . . . X 6 N.B.^ &.<XzXhX<X+.^ x.4XoX9 V 2 o                 ",
"                o = g 9 c.'.5.} +.<X9XdXoX:.^ z.F.7 X X . . . . . X 6 a.N.X.&.}.9XgX4X+.[ h._.c.0 g = &                 ",
"                o < g 5 6.9.4.} +.4X1X5X'.>./ B.H.7 X . . . X . . X 6 f.H.} -.'.*X*X4X#.I 5.v.h.0 3 = &                 ",
"                o = g 5 6.v.4.Q $.<X@X$X(.-.T V.K.7 X . . . . . X X 7 P.P.} -.'.@X$X0X%.' :.v.k.7 d = &                 ",
"                o = 3 7 6.D.g.{ @.oX^.)./.,.T j.H.6 X . . . . X X + 6 i.a.} :.!.!.^.%X;.} g.D.k.5 g = &                 ",
"                o = 3 4 6.c.y.| $.4X(.)./.>.^ N.K.7 X . . . . . O + % k ..I r.).m.!.0X#.' :.v.h.4 3 - &                 ",
"                o = 1 5 k.D.g.| e.>Xn.v.v.;.} l.f.d X . . . . . . + 7 f.H.} ;.n.n.G.wX@.` r.v.M.5 3 = o                 ",
"                o = 1 6 h.v.y.| q.+X X/.G.r.@.H.f.6 . . . . . . . X 7 H.H.} %.U.U.U.0Xe.} r.v.k.5 d = o                 ",
"                o = d 5 h.S.g.| | g.#.#.%.' ` i.i.8 X . . . . . . X 7 K.B.X.} $.#.%.g. .| g.v.k.9 d = o                 ",
"                o = d 5 k.v.g.| ` [ R [ [ U ` i.i.6 + . . . . . . + 7 J.B.X.I I I ' }  . .r.S.5.9 d = o                 ",
"                o * d 0 h.v.h.r.r.x.x.,.%.#.w.F.f.6 X . . . . . X X 7 N.b.o.;.h.g.4.%.%.$.g.A.k.0 t = o                 ",
"                & * t y u.b.n.`.@X&X&X<.r.n.F.J.f.6 X . . o . . . + w J.b.v. XrXoXv.c.:.h.b.A.N.5 u * &                 ",
"                & - c t p.Z.V.C.C.M.0.Z.C.K.s.d.p.: . o o o o o o . : d.N.C.C.C.C.Z.1.u.u.d.s.p., , - &                 ",
"                                                                                                                        ",
"                                                                                                                        ",
"                                                                                                                        ",
"                                                                                                                        ",
"                                                                                                                        "
};
