/* XPM */
static char *walls__1_1705782920[] = {
/* columns rows colors chars-per-pixel */
"60 60 27 1 ",
"  c #818277",
". c #85867D",
"X c #87887F",
"o c #898A7F",
"O c #878880",
"+ c #8C8D83",
"@ c #8F9086",
"# c #8F9088",
"$ c #919287",
"% c #94958B",
"& c #96998D",
"* c #999B8E",
"= c #979990",
"- c #9B9D92",
"; c #9EA195",
": c #9FA298",
"> c #A1A396",
", c #A2A59A",
"< c #A6A99E",
"1 c #A9AA9E",
"2 c #A7AAA0",
"3 c #AAACA3",
"4 c #AEB0A7",
"5 c #AFB1A8",
"6 c #B0B1A7",
"7 c #B2B3AB",
"8 c #B9B9B1",
/* pixels */
"+=::22222:,<;;@&2333<4<,*&,;;%#=%&&;:,:222<,&@:;%&;;<,,<;;;@",
"%;:;,:,<;;;,<;&;5577441:&&<34:$,;*;:25488555,&,&&&;,<,2<222;",
"%;;;;;;:;*;;;;;2775585<,&:224:%:;;;<44257545;&;&&*;;;,222;;-",
"=<,;;;;;;**;;;;222:<331,**<<2-@-&;;<2225555<&@;;;;,;;;2<<;;;",
"*<;::;;;;;*;;;;::;:><,:;**>><-#-*;;;;;;<252<&@;;;;;;;;,2,:;;",
"&::;;;*;,:;,,::;:>>*<>;;&*>;;=%:;<;;*;;;:,;;&@;&&*;;;;::,<,2",
"@**:>;*;,::,:::*;;*;><::;;>;:=&3232,;;;,:,:;%@;&&&&&;;,;,22:",
"@@*;::;;:::<,<:%*;*;:<:,:;;=;=%222<;;;;,,:-%@@;;&&&&;<,;:2;:",
"%#;;:<:;<;<222:;:;:<;;;;;;**>*$122<>;<;;;;;;o;1o***;<22<2<::",
"&;;:;:;;;;<242:;::<:;&;;-;**>*o><2<<2<<;><;ooo1>**;>22,<<<2<",
";;::::;;;;,;::-;<322:<;;-->;;&&32<<<444<333<;o>>*;;;,,,22222",
"&;:<:;;;,;;;;:;;<3242:;;**;*;-*44>;<<>;;<441oo>>;;<<,;,2422<",
";:2:<<,,;;-*;<&&:554<::;;*;;:;&441><>;;;141;oo71;<,,;;,2442,",
":2:#&<<<<;;*<;;&357422<:;*;*3;%344>;;;**>>;*oo61;<;<;;;22422",
"%::;;:2<,;;;;*%@:<:*---;;&%@#O+;*;*;o>****ooooo>%&;;;;;;,:;;",
"=234545442<<<:%@&-;:--:;-&%++ #:;>*>>>;*;;>;oo>o**;;;;;-=-=@",
"278778773367362-;<<23<>;;;;*$o>61>>>;>1o>>o11>6661>>>>*;;::=",
"-57777763387773-;;::<1::<<***o*111>*;*>o>>>1o16611>;**;%*::-",
"-75554313787772-;;:<;>;><;;*%%-,>*>>>>>>11>>o66631;******::;",
":53333<>377733<=;;:;;;*;<;,;*$;;>*>>>>>>>1o>>o1131;*****;::-",
"-55222<&:66333<-*;>>>>*>>>;;**;;>*>>>>>;o1o6o11121;*******:*",
"-35321<=-22322,=;;>>>>;;;>;*-*;>>;>>>>>;6oo>>o>13>>*;;;**;;*",
"=3523<,--::223<=*;*>>1,;>;>-**;;>>>>*;>>16o1oo611<>>*;,,*:;;",
"=552631-:<2<36<=;;;,113>>>,>-%;;>*;***>>1o611>6111<<:,,,:::;",
"-755575:223237:=;->>>33,161111-;>>;>>>>11>::-&:211<<<;;<:::;",
"-5557732233433:=>->;,3211>>>*o*;-->>;;>,,<<<;&;:><<<;;;;:;;&",
"=2235323774332==>*->>,,111>>>**>>>>>*;11:12<-=::<;11<<1;-<:-",
"%22252557332,-&=<1>>>122>>>>>*-;->>>;,3643:2--<31123432<;22;",
"=3223555774<,---16<&23441,><1**>>,,,>,444<;1:-355433242<:<2:",
"#=::,2,:,2,:=%+.&*-&,,2,>;;,-o%>>->,>>,>::;;##;::2:<;<;&&==#",
"#--,,::---:-==+.&->;->>-&=*=*o&<>>,<33<4,,;*#O-<<:::::;;&#&%",
":2375:2233333<,=,,<33<<,;,:;,>><<<23333<2,>,;-233:243:;;<,<<",
":,25522333511<:=:;323<1;22::,:43<3<4433363<>-,43,,3322:2<2<,",
":3223333555312:-<<32223;;<:3:;454757677733<,>>4243322,<22<,,",
"233253335551,,:::<3443<2;;;<<;<34888678663<<2-223343222<<<2<",
"<66233333351,::-;:3<3;,1222<<:<3784<<63<3,<33<324333222<:22,",
"233363353531:--,:;<<3<<2<<2<::<478<13<2<1-<32,4433,,<<<<,<,:",
",23565555653361,;><<332<;;222<:424<3<,<,,:23,354443323,><:,;",
",235555556616761:::<2<<;:22::;23<3<2332:,,2323575777433,<:;,",
":2335533321:331:,,,<<;**:3:2<;:42<,<343<,12323455584323>;;::",
"-12133362111111,,,<<>>&%<<,<2:>532,<23333,13,>243543332,>;,:",
":-222223:263661-:<<>,<;-,,<3<>-43333<1363132>-<3343,222,;;,:",
"-31:22112236562=,22,<,::>,>,-=-334,--233631,--34442<22,2;;,:",
":56:2216633667,=,222<<<-=;-=&%-457,;><<663,;=:4444222222:;,,",
"=33231136111<2=O=<;:->;*;-&&&o@;--=-*>-***%%O#:,,2,:2<<<;===",
"#:-:*:,,,:,==:%#>,;->--*--%$&@.&=%=%$%$o@ooo..-=--:,::::,::-",
"=2:->>:>:=:::,-=>,>>>-***>&$&&%>::<;>>*****&.$,,:-;,,-:<22<2",
"-1,=**=>:=:,,,:%%**%&;>;->*%&&%>;=;:,>>*%*=+.%;<1;11,,<<,<<2",
"=::---->;;:322>$%@$$@%>>>**%&&$>;&;>,>-%+$$oo->,<:2323335333",
"::---->>;;:::2>*$&&&**<>>>*&&&&>*;,;>>*o.oo$$-:<,12323688775",
"=:==->>-;;:<<<<****;->><>>>****1:;:;>**oo$$$$>,1332222475576",
"=-%%=->:;;;:;;;****:>><><>;*;*&<::;*;**%o$%*>,1134221<345485",
"%&%==;,>--:2<>;>>>>1>>1<,,;;:-=>;-;***o*$**>>:<36322,1<23485",
"%-->,1,,;;:2,>=;1>>>>>>>,>-,,=%2>>;**o**->>,->,:333211:<2233",
"&>;,>,;,:;<2<<::11>1,><1,,,<,=-71,>*;***>>,31>,<223333,12,22",
"%-;,>;,,;;<<<,-:1>111><<-<<23--8631>>*&;>1,12--<<123321<2:,:",
"&:::,,:;;<<<22;:61111>1<><<<<&-8443,1;&;><<>,>><223321<12;>;",
"&,*$=:;**><423;:11>>><1<<>-,,&-5411,>:;>>;>1<=>>,,222<:-,1,=",
"&;*%&;;;;:<<22=;111>,,<><>>>:=-44<312<<1<<,1>&><,,33<,;>233-",
"@*&*-;;;*:<:;:&&>111<<<1>;-;:=$>:<112,<5<>;;&@;>;:12<<,,2,2="
};
