/* XPM */
static char *_3d0e94971c340b8b14fce7774099016pQfee5ypjN68ROqq[] = {
/* columns rows colors chars-per-pixel */
"55 55 235 2 ",
"   c None",
".  c #030501",
"X  c #0C0400",
"o  c #040A03",
"O  c #0B0A04",
"+  c #0B0C0A",
"@  c #070709",
"#  c #140301",
"$  c #1B0301",
"%  c #140A01",
"&  c #1C0A00",
"*  c #150C0A",
"=  c #12050C",
"-  c #0D110C",
";  c #081404",
":  c #15150D",
">  c #171707",
",  c #0D0E10",
"<  c #0C1413",
"1  c #0F1815",
"2  c #131512",
"3  c #151B14",
"4  c #1B1B13",
"5  c #1A1B19",
"6  c #181A1A",
"7  c #170B15",
"8  c #230100",
"9  c #2B0100",
"0  c #280C02",
"q  c #340000",
"w  c #3B0100",
"e  c #340D04",
"r  c #3C0C00",
"t  c #2B1201",
"y  c #211009",
"u  c #28170A",
"i  c #3D1400",
"p  c #371704",
"a  c #281A19",
"s  c #3B1A14",
"d  c #1F2317",
"f  c #24231E",
"g  c #2B251D",
"h  c #2C2719",
"j  c #31241D",
"k  c #3B261A",
"l  c #38271B",
"z  c #3B2003",
"x  c #0E0230",
"c  c #3F1C20",
"v  c #1F2A26",
"b  c #242523",
"n  c #2B2B24",
"m  c #232D2A",
"M  c #2B2E2A",
"N  c #292826",
"B  c #322C23",
"V  c #332C2A",
"C  c #382827",
"Z  c #27322C",
"A  c #35302C",
"S  c #292B33",
"D  c #430000",
"F  c #4C0200",
"G  c #440D00",
"H  c #4D0A0C",
"J  c #4B0D06",
"K  c #570B00",
"L  c #5C0702",
"P  c #491403",
"I  c #571700",
"U  c #421716",
"Y  c #5A1311",
"T  c #650200",
"R  c #6B0200",
"E  c #660A00",
"W  c #690D02",
"Q  c #750400",
"!  c #780200",
"~  c #6A1B02",
"^  c #7B1501",
"/  c #781C04",
"(  c #781D12",
")  c #472506",
"_  c #552501",
"`  c #492213",
"'  c #582818",
"]  c #47301E",
"[  c #6C2100",
"{  c #6B210B",
"}  c #642D0D",
"|  c #682507",
" . c #70230C",
".. c #73290B",
"X. c #782702",
"o. c #662617",
"O. c #772714",
"+. c #66300C",
"@. c #431B3D",
"#. c #47332A",
"$. c #563126",
"%. c #4C292E",
"&. c #60302E",
"*. c #674600",
"=. c #43453D",
"-. c #44493D",
";. c #564539",
":. c #79552C",
">. c #71553D",
",. c #351846",
"<. c #472965",
"1. c #3A4843",
"2. c #434644",
"3. c #454A45",
"4. c #4A4A44",
"5. c #4C4C4A",
"6. c #494749",
"7. c #534944",
"8. c #485347",
"9. c #555149",
"0. c #4B4C50",
"q. c #78736A",
"w. c #76716A",
"e. c #6C7373",
"r. c #6A7A73",
"t. c #737571",
"y. c #777A78",
"u. c #6F6E6B",
"i. c #990E00",
"p. c #841D00",
"a. c #8C1B02",
"s. c #861604",
"d. c #911B00",
"f. c #991400",
"g. c #A31400",
"h. c #822200",
"j. c #8B2100",
"k. c #872703",
"l. c #932514",
"z. c #BB3A06",
"x. c #B83C15",
"c. c #A93C00",
"v. c #B13D2F",
"b. c #C53B02",
"n. c #C93B08",
"m. c #CC3A12",
"M. c #9B4D1C",
"N. c #925006",
"B. c #A54802",
"V. c #B34201",
"C. c #BB4303",
"Z. c #B84B03",
"A. c #A6471A",
"S. c #B54B15",
"D. c #BA421C",
"F. c #A65900",
"G. c #8D6100",
"H. c #B16E1D",
"J. c #9A4729",
"K. c #964D39",
"L. c #845237",
"P. c #915727",
"I. c #AA4724",
"U. c #B44624",
"Y. c #A64938",
"T. c #947A23",
"R. c #C34200",
"E. c #C94B00",
"W. c #C04A1A",
"Q. c #EF750D",
"!. c #F7760A",
"~. c #E97916",
"^. c #FC7511",
"/. c #F6751B",
"(. c #FD711A",
"). c #F66E15",
"_. c #DE7F2F",
"`. c #D6793C",
"'. c #EA6E2C",
"]. c #E77A28",
"[. c #F97727",
"{. c #E37534",
"}. c #F27837",
"|. c #905640",
" X c #98755B",
".X c #8F705B",
"XX c #A76D4A",
"oX c #B66F4A",
"OX c #A2764E",
"+X c #967665",
"@X c #817C77",
"#X c #91786B",
"$X c #A47866",
"%X c #B77E61",
"&X c #C7764B",
"*X c #E1754A",
"=X c #F17340",
"-X c #B59B06",
";X c #B3901E",
":X c #B48B28",
">X c #DE800F",
",X c #CD9600",
"<X c #CB8E0E",
"1X c #CF853C",
"2X c #FCDA19",
"3X c #FFD92B",
"4X c #FFD33B",
"5X c #FFE53C",
"6X c #B59547",
"7X c #B08956",
"8X c #B88869",
"9X c #D08460",
"0X c #F39F70",
"qX c #D0A67A",
"wX c #E8AB7B",
"eX c #FDD946",
"rX c #F4DE59",
"tX c #FFC775",
"yX c #FDD86E",
"uX c #8E708C",
"iX c #B9AC91",
"pX c #BCB8B2",
"aX c #B0A8A4",
"sX c #C39F93",
"dX c #D9AA89",
"fX c #D4A796",
"gX c #C9B69D",
"hX c #D3B196",
"jX c #CFAE8E",
"kX c #E7AA98",
"lX c #C4B1A3",
"zX c #DBD891",
"xX c #EED792",
"cX c #FFD9B1",
"vX c #EACFA2",
/* pixels */
"                                                                                                              ",
"                                                            &     +                                           ",
"                                                      X   & :.$ & X     ;                                     ",
"                                                    & xX0 $ ;X0 -XrXO ; .                                     ",
"                                                    9 :XtXG.eX3X2X5X% zX>                                     ",
"                                                9 w F Z.].>X4X3X3X3XG.yX%                                     ",
"                                              # L.J.*XC.b.C.F.,X,X,XeX;XxX%                                   ",
"                                                8 K.I.x.=XV.B.<X5X-XrX*.6XvX$                                 ",
"                                            =.h 0 8 K.F J.W [ N.eXeX;XT.$ $                                   ",
"                                          -.8.d X & # $ $ k s ) _ yX6X  %                                     ",
"                                        o m o   2 . X A g g j ;.) 7XqXiXo                                     ",
"                                        . m     . o & # 8 8 8 $ # = aX  o                                     ",
"                                        < .   X * % z 7XP.P.XX$.,.x S X                                       ",
"                                        o o X ;.8 :.I wXtXH.wXfX,.<.uX#                                       ",
"                                        o O O   8 8X} wX1XX.[ kX@.uX%.$                                       ",
"                                2.5.    o o o X >.9 8 9 ..&X0X|     #.                                        ",
"                                  M b +   o o   & # # #X9 { oXwX  gXX                                         ",
"                                    , .   . - o O 4 V # $.9 ' $X.X&                                           ",
"                                        6 1 2 t.e.0.N a X X $ k $                                             ",
"                                      @ 2.2 4 V b y.6.b M 3 w.V a *                                           ",
"                                    + 5 4.n 4 d m 1.M 3.e.3   5.6.@                                           ",
"                                  . - 3 V =.4 4 o Z 1.r.e.6   3.@ ,                                           ",
"                                  O 4 > n 7.: 4 o v 8.r.y.1   4.o o                                           ",
"                                O 3 > 8.N 6 > X V 6.e.Z m : @Xg o ;                                           ",
"                              + 5 f > 4 2 7 X s e 0 a B b : l l n o                                           ",
"                            o 2 M 5.3.O + * U o.( O.{ P a   i 8Xj @                                           ",
"                            - 5 2.t.5.6 O # q W a.x.*X9X8 .X_ %XC @                                           ",
"                            . 3 b 5.u.5 X 8 w ^ i.m.n.S.i p I K.k 4.o                                         ",
"                            O 2 t.y.b a # e } I.m.m.b.j._ i / O.s t.o                                         ",
"                            + 5 b t.5.w.s $.'  .d.z.}.`.L.' Y.J.& -.t.o                                       ",
"                            . 2 B q.y u 8 e ` P L E X.| ) sXI |.X n n X                                       ",
"                              X t  XhXjXjX8 9 9 0 t t t % u u y . n j k ] #                                   ",
"                              % t hXdXcXOX9 o.o.$ $ # # $ 8 # % X g `  XhX$                                   ",
"                                $ +XdXcX+.w ^ a.k. .o.q Y.^ ..} 8 s dXXXjX#                                   ",
"                                # #. XdXXXF W.z.z.a.J.D v.i.d.h.~ w oX} gXX                                   ",
"                                  X $  Xq X.V./.[.z.p.L f.g.z.n.C.h.w   X <                                   ",
"                                    $ 9 X._.~.!.Q.[.{.s.D.D.f.n.[.'.h.w                                       ",
"                                  X } k.c.C.R.!.!.Q.[.S./ ~ I.x.R.R.V.A.r                                     ",
"                                  8 X.z.[.).^.^.~.].B.M.q 9 D j.'.[./.].M.r                                   ",
"                                8 { D.b.^.!.^./.j. .8 & & ` O.p.R.(.^./.{.&Xi                                 ",
"                                9 X.z.).^.E.C.S. .8       & 9 ~ a.R.R.[.C.E 9                                 ",
"                              $ F A.~.!.Q.].I.{ 9             8 K T Q d.z.k.G &                               ",
"                            8 G O.A.~.~.].A.q 9                 8 Y / U.D.^ } 8                               ",
"                        $ &.J K T Q R.C.[ r                       $ L ! a.p...i X                             ",
"                        8 o.L R R ! x.U.r                         $ K T s.l.F 8 &                             ",
"                      & e o.E R l.! ! { &                         # s H H H J $X#                             ",
"                      % +XG  .Y.v.( o.9                             $ c s %.U $ &                             ",
"                    X % lX#Xe ' ' 8 #                               X * = X # 7.X X                           ",
"                  O j h X % X # #                                   o 3.N N 9.N f +                           ",
"                o O . B q.9.X X                                     + . o o . b n O O O                       ",
"                n f n X O X ;.X                                     . M b M N 5.5.f b n                       ",
"              . X 4.q.q.7.X %                                       . + . 3.N =.5.@XpXA .                     ",
"            . * t.pXpXg pX@XX                                           O O + . X . + . .                     ",
"            O 4.u.t.=.y.=.+                                                                                   ",
"            . o O o o o o                                                                                     "
};
