/* XPM */
static char *NARUTO_KURAMA1705785118[] = {
/* columns rows colors chars-per-pixel */
"60 60 234 2 ",
"   c None",
".  c black",
"X  c #0C0501",
"o  c #150402",
"O  c #1B0703",
"+  c #1C150B",
"@  c #250E04",
"#  c #3B1405",
"$  c #331801",
"%  c #2E1E00",
"&  c #383315",
"*  c #392601",
"=  c #4E1B08",
"-  c #481808",
";  c #5C1D09",
":  c #591F0A",
">  c #442608",
",  c #542406",
"<  c #43330B",
"1  c #4D3000",
"2  c #5C3C03",
"3  c #692807",
"4  c #74260D",
"5  c #683908",
"6  c #752B13",
"7  c #783B18",
"8  c #632F17",
"9  c #553228",
"0  c #3D4124",
"q  c #574617",
"w  c #5C4008",
"e  c #7D4B02",
"r  c #634B1E",
"t  c #68551D",
"y  c #795717",
"u  c #72481E",
"i  c #7F631B",
"p  c #494525",
"a  c #5D592D",
"s  c #6B5F2C",
"d  c #7A6B31",
"f  c #76733A",
"g  c #524E4E",
"h  c #7F7E44",
"j  c #862B0E",
"k  c #892C0F",
"l  c #87380A",
"z  c #873213",
"x  c #9D360F",
"c  c #A63612",
"v  c #B33B13",
"b  c #BD3D15",
"n  c #B33822",
"m  c #854902",
"M  c #804701",
"N  c #9A4809",
"B  c #8B5503",
"V  c #885905",
"C  c #965802",
"Z  c #885914",
"A  c #91431E",
"S  c #A7480C",
"D  c #B8520B",
"F  c #BA4415",
"G  c #AB5112",
"H  c #9D6200",
"J  c #8A681A",
"K  c #8F620C",
"L  c #A76405",
"P  c #B56903",
"I  c #BA6A18",
"U  c #AA7915",
"Y  c #884A22",
"T  c #895326",
"R  c #925038",
"E  c #AF5322",
"W  c #87793E",
"Q  c #946F2C",
"!  c #AC6E33",
"~  c #B46932",
"^  c #B36F2A",
"/  c #CD5C0B",
"(  c #C1510E",
")  c #D55E0E",
"_  c #DA5C0E",
"`  c #CA4A12",
"'  c #DE4A17",
"]  c #C95A1D",
"[  c #D45411",
"{  c #E64A19",
"}  c #E84E15",
"|  c #E95216",
" . c #EB5B12",
".. c #E95B1A",
"X. c #E55319",
"o. c #C76908",
"O. c #D2680A",
"+. c #C47C01",
"@. c #C77901",
"#. c #C46917",
"$. c #D66A14",
"%. c #D6751C",
"&. c #EC6E0E",
"*. c #E0660C",
"=. c #F16D0F",
"-. c #EA7808",
";. c #F3750D",
":. c #F47C0B",
">. c #E26310",
",. c #ED6412",
"<. c #EE6A12",
"1. c #EA6718",
"2. c #F26B10",
"3. c #EA741C",
"4. c #F27215",
"5. c #F37D1C",
"6. c #F37915",
"7. c #EA5B23",
"8. c #D37325",
"9. c #C17A39",
"0. c #CE6F29",
"q. c #EA6323",
"w. c #E96B2E",
"e. c #ED762A",
"r. c #ED7533",
"t. c #E97934",
"y. c #F17F25",
"u. c #7F8148",
"i. c #9C8A3A",
"p. c #AC8B2D",
"a. c #CF8604",
"s. c #D88800",
"d. c #C28712",
"f. c #E88606",
"g. c #FA8B06",
"h. c #F5810A",
"j. c #F78708",
"k. c #F49301",
"l. c #FD9303",
"z. c #FE9C00",
"x. c #F79909",
"c. c #EA8719",
"v. c #F68C1C",
"b. c #F58717",
"n. c #F99B17",
"m. c #FFA201",
"M. c #FCA408",
"N. c #FFAB0D",
"B. c #FFAD11",
"V. c #FCA61B",
"C. c #FFB41C",
"Z. c #D6863B",
"A. c #C2853F",
"S. c #E58A28",
"D. c #F48B24",
"F. c #F1812A",
"G. c #F48726",
"H. c #F79826",
"J. c #EE833C",
"K. c #E18B39",
"L. c #F18A3B",
"P. c #F39A3D",
"I. c #CEAA3F",
"U. c #FAA728",
"Y. c #FDBC2B",
"T. c #F8B727",
"R. c #FAAC33",
"E. c #F7A639",
"W. c #FBB535",
"Q. c #FAB938",
"!. c #EAAF3E",
"~. c #FFC439",
"^. c #FFCA3B",
"/. c #F4C33D",
"(. c #FFC02F",
"). c #88894C",
"_. c #9A9C57",
"`. c #9D9449",
"'. c #B0994F",
"]. c #BBA94E",
"[. c #A78F71",
"{. c #BCBA68",
"}. c #AEB063",
"|. c #CE9047",
" X c #F38C43",
".X c #E79B4B",
"XX c #F1964A",
"oX c #F29949",
"OX c #EE8741",
"+X c #CBA948",
"@X c #D7B747",
"#X c #D1AE51",
"$X c #F4A54D",
"%X c #EBA853",
"&X c #F2A553",
"*X c #F4AD59",
"=X c #E9B255",
"-X c #F6B353",
";X c #F5BC5D",
":X c #F6B757",
">X c #EEAB46",
",X c #CDBC67",
"<X c #F4BE62",
"1X c #F8BF64",
"2X c #E7B469",
"3X c #D6C45D",
"4X c #FCC845",
"5X c #FCD14B",
"6X c #FBCA5A",
"7X c #FAC457",
"8X c #FDD254",
"9X c #FEDC5E",
"0X c #FCDB56",
"qX c #C4C26D",
"wX c #CCD073",
"eX c #F8CC6D",
"rX c #F7C964",
"tX c #FDDA67",
"yX c #F9D974",
"uX c #EADB71",
"iX c #DEE17E",
"pX c #FFE463",
"aX c #FDE66D",
"sX c #FEED75",
"dX c #FEED7C",
"fX c #F4E477",
"gX c #FFF47B",
"hX c #BF9C91",
"jX c #DDD58D",
"kX c #EADE8C",
"lX c #FEF485",
"zX c #FEFA85",
"xX c #FEFD8D",
"cX c #F9F289",
/* pixels */
"                                                                                                                        ",
"                                                                                                                        ",
"                                                                                                                        ",
"                                                                                                                        ",
"                                                                                                                        ",
"                                                                                                                        ",
"                                                                                                                        ",
"                                                                                                                        ",
"                          U.sX                          1.1.  | { X.                                                    ",
"                          4.6XzX                  |   { oX;X3.h.| *XOX                                                  ",
"                            e.R.6X8XT.sX          h.;.y.sXyXv.Q.H.sXOX                                                  ",
"                                      -X4X5X      :.M.6XxX5XW.sX0XdXL.}                                                 ",
"                                          5.W.r.=.h.T.pXrX-X-X$XE.W.Q.1.                                                ",
"                            5X              5.5.;.g.D.$X&X5.U.x.n.b.oXt.                                                ",
"                            W.zX               .| ;.x.W.E.v.pXW.8Xc.7.w.                                                ",
"                            b.tX                { &.<.<.-.D ~ D.3.` {                                                   ",
"                              W.gX            T.y.;.R.v.@X[.R 3X'.n                                                     ",
"                              b.pX        ^.Q.L.t.| n.n.!.jX2XcXkXe.                                                    ",
"                                H.aX  pX4X    <.e I #.K.] W wX_.+X] 6 v                                                 ",
"                                  F.W.Y.      >.o.a.d }.E T @X.X5.k o j                                                 ",
"                                                [ s.8XzX*X>.$.3.x 4 #                     q.                            ",
"                                              c , t /.aXdXS.u B w E v               t.3.r.t.7.                          ",
"                                              6 s a K Y.zX.Xy W < #.=.XXXX          XXJ.F.q.r.                          ",
"                                            ` > ).qXq H /.Z.@ q * ; S *XzX:Xe.XXr.7.L.*XZ.>.2.,.                        ",
"                                            s.y wX6Xc.p.w S o < t - 4 c.pXtX7XyX&Xt.G d + : _                           ",
"                                          ;.@.`.cXH.o.p.h ! # i `.T ) :.N.C.0XeXXX%X+Xi.> 5 [                           ",
"                                          h.H #XzXr.l U tX.Xm e d ! ;.&.k.z.Y.sX*X7.1.O./ '                             ",
"                                        ;.k.e V.E...&.z.Y.|.e 1 & |.;.|  .h.z.B.R.v ; O # F                             ",
"                                        j.k.e /.$X  :.m.M.%.m w p A.;.      =.j.x.D o . ;                               ",
"                                      ,.l.+.U sX<X   .l.m.*.e V W ! v.L.        4.[ @ O c                               ",
"                                      <.m.H +XxX8X .=.l.B.8.@ 2 t Y U.$X            k 4                                 ",
"                                      h.M.H {.xXgXF.l.B.0XZ.$ X . ; H.rX                                                ",
"                                    <.z.z.o.~ %X7X&Xn.tXyX#.B B % L h.8X*X                                              ",
"                                    ,.:.,.3 o r I 7.:XxXeXm s.z.f.z.;.~.lX*X                                            ",
"                                      { X.Z & K ) G.dXxXP.e f.g.:.k.N -.^.aX*X                                          ",
"                                        } P.6X:X4.8XxXeX8.H k.:.g.x.y S.z.B.8X:XR.Q.                                    ",
"                                          4.G.y.H.gXcX<X! P :.,.z.T.h =Xb.N.~.~.aXeX                                    ",
"                                      g.&.D #.6XgXlX1X3XJ z.S D z.Q.).uX7.f.4X$.] &XXX                                  ",
"                                    :.h.l o = <XlXrXyX`.a.f.= S z.T.h yXY , :.o.6 +X! '                                 ",
"                                  g.z._ 3 Y #XrXe.eXiXJ k.S X - f.x.i #X8 g R -.c.Q O j {                               ",
"                                ;.@.C j.S.rXP.7 x R.i.a.j.c - x j.m.P l 7 hX9 3 P C 3                                   ",
"                                2.N C e '. Xv # O.M.B f.2.    { h.N.p.z       k E 9                                     ",
"                                      p 2X    ` V.+XQ x.,.      g.C.].z                                                 ",
"                                      9.      h.5X}.].G.      ,.z.^.,Xz                                                 ",
"                                              v.fXu.uXt.      <.z.^.{.z                                                 ",
"                                            ,.V.3X_.rX        ,.z.~.,Xz                                                 ",
"                                            | :.E #X X        | ,.5.0.F                                                 ",
"                                              O.G 1.             .z.P T                                                 ",
"                                              8.2 /             q.U.s.< >                                               ",
"                                              u p J w.          e.W.a.C d.=X X                                          ",
"                                              9.uX8X;X            4.) O.V.Q.E.1.                                        ",
"                                              5.v.b.b.                   . . .                                          ",
"                                                                                                                        ",
"                                                                                                                        ",
"                                                                                                                        ",
"                                                                                                                        ",
"                                                                                                                        ",
"                                                                                                                        ",
"                                                                                                                        ",
"                                                                                                                        "
};
