/* XPM */
static char *naruto1705783788__1_1705783842[] = {
/* columns rows colors chars-per-pixel */
"60 60 235 2 ",
"   c None",
".  c #040501",
"X  c #0B0400",
"o  c #050A04",
"O  c #0A0B06",
"+  c #0B0D0A",
"@  c #090709",
"#  c #130201",
"$  c #1C0402",
"%  c #120A04",
"&  c #1C0B03",
"*  c #140E0A",
"=  c #1C0D0C",
"-  c #0D110C",
";  c #081304",
":  c #13130D",
">  c #19120D",
",  c #1A180B",
"<  c #131512",
"1  c #141913",
"2  c #1A1B14",
"3  c #1C1D1A",
"4  c #1A1514",
"5  c #111113",
"6  c #220301",
"7  c #290502",
"8  c #230A04",
"9  c #2A0B03",
"0  c #270E0C",
"q  c #330401",
"w  c #330B04",
"e  c #3C0802",
"r  c #2A1102",
"t  c #2B130C",
"y  c #251206",
"u  c #37180C",
"i  c #231B14",
"p  c #271916",
"a  c #381A15",
"s  c #1B211A",
"d  c #2B260E",
"f  c #22231C",
"g  c #2A221C",
"h  c #292A1E",
"j  c #32241C",
"k  c #38271D",
"l  c #34361F",
"z  c #1E2721",
"x  c #242522",
"c  c #2A2623",
"v  c #2C2B25",
"b  c #2C2E2A",
"n  c #212926",
"m  c #352A24",
"M  c #33322D",
"N  c #37342B",
"B  c #343532",
"V  c #3B3B3A",
"C  c #373936",
"Z  c #2D352F",
"A  c #210D34",
"S  c #4C0902",
"D  c #450A04",
"F  c #560A05",
"G  c #471607",
"H  c #5C1503",
"J  c #5B1B0C",
"K  c #551709",
"L  c #461B15",
"P  c #581C13",
"I  c #6C0200",
"U  c #650701",
"Y  c #750802",
"T  c #621C0B",
"R  c #671705",
"E  c #7D1403",
"W  c #761905",
"Q  c #631D13",
"!  c #721C16",
"~  c #47290B",
"^  c #56270C",
"/  c #49271A",
"(  c #572619",
")  c #55371C",
"_  c #662308",
"`  c #762306",
"'  c #632314",
"]  c #642C14",
"[  c #782915",
"{  c #663314",
"}  c #6C3308",
"|  c #481F20",
" . c #452B22",
".. c #542823",
"X. c #42342C",
"o. c #493427",
"O. c #56382A",
"+. c #443D35",
"@. c #67382B",
"#. c #793524",
"$. c #3E423C",
"%. c #43423C",
"&. c #4A423D",
"*. c #574237",
"=. c #514726",
"-. c #7D4423",
";. c #77582C",
":. c #644636",
">. c #704B34",
",. c #7F6023",
"<. c #6B4D06",
"1. c #3A1D4A",
"2. c #3C225A",
"3. c #4A2548",
"4. c #4D4D4A",
"5. c #474845",
"6. c #574B41",
"7. c #4C5250",
"8. c #5B5D59",
"9. c #575754",
"0. c #6D5342",
"q. c #755545",
"w. c #685052",
"e. c #5B635E",
"r. c #64625C",
"t. c #786A4B",
"y. c #5B5E60",
"u. c #735878",
"i. c #5D6261",
"p. c #676763",
"a. c #716C66",
"s. c #787975",
"d. c #6F7B77",
"f. c #891804",
"g. c #921B04",
"h. c #A41A04",
"j. c #882708",
"k. c #962805",
"l. c #83340C",
"z. c #9C3606",
"x. c #882D17",
"c. c #962C15",
"v. c #863D19",
"b. c #963819",
"n. c #A92903",
"m. c #B42F0E",
"M. c #A73806",
"N. c #B43707",
"B. c #A83B14",
"V. c #B53B18",
"C. c #8E3221",
"Z. c #A93627",
"A. c #C7360C",
"S. c #954F08",
"D. c #B44406",
"F. c #BB5517",
"G. c #B34F0C",
"H. c #85680B",
"J. c #886919",
"K. c #864627",
"L. c #95452A",
"P. c #9D5428",
"I. c #884B39",
"U. c #8C5535",
"Y. c #B25531",
"T. c #99663D",
"R. c #8D642F",
"E. c #BC7834",
"W. c #B1613A",
"Q. c #C8470A",
"!. c #D3550C",
"~. c #D85B0E",
"^. c #C64612",
"/. c #C7571B",
"(. c #D85B15",
"). c #D05311",
"_. c #E25B0C",
"`. c #D86918",
"'. c #D27510",
"]. c #E76409",
"[. c #F4740D",
"{. c #F9730F",
"}. c #E7681A",
"|. c #E97514",
" X c #F87715",
".X c #CC5324",
"XX c #C86725",
"oX c #D46926",
"OX c #CC6339",
"+X c #F87923",
"@X c #E36B22",
"#X c #995E44",
"$X c #855C42",
"%X c #8D664E",
"&X c #A7764B",
"*X c #AB7859",
"=X c #AF6944",
"-X c #937461",
";X c #A97F78",
":X c #B18F1C",
">X c #9D8123",
",X c #B49933",
"<X c #CA9511",
"1X c #DBA818",
"2X c #CEB21D",
"3X c #E8B917",
"4X c #DBB536",
"5X c #E08E34",
"6X c #FCDD37",
"7X c #FFDE26",
"8X c #FFE12D",
"9X c #E6C816",
"0X c #968150",
"qX c #87857F",
"wX c #B48E73",
"eX c #B49276",
"rX c #B18C69",
"tX c #CC9452",
"yX c #D1AE52",
"uX c #C8A17B",
"iX c #D9A078",
"pX c #EBB66D",
"aX c #CD9976",
"sX c #DDC441",
"dX c #F9DA45",
"fX c #D7C06B",
"gX c #9A948E",
"hX c #A79283",
"jX c #AFACA6",
"kX c #C3A88B",
"lX c #D5B293",
"zX c #D5A889",
"xX c #E4B995",
"cX c #D09A90",
"vX c #ECC59D",
/* pixels */
"                                                                                                                        ",
"                                                                  &     -                                               ",
"                                                                u ) & & X     ;                                         ",
"                                                          t.t.# ~ J.r H.,Xd o o                                         ",
"                                                        $ R.yXR.H.4X:X9X6Xd t.l                                         ",
"                                                      q q ` 5X5X<X6X8X8X8X<.fX=.                                        ",
"                                                    ( J [ B.D.~.'.1X9X3X9X<XyX0Xo.                                      ",
"                                                  # ) I.OX.X^.).D.G.<X1X<XdX>XyX0XX.                                    ",
"                                                    6 ( L.B.Y..Xz.S.<X6X2XsXH.J.rX0.                                    ",
"                                                %.h y 6 ..Q J [ H _ S.4XdX,X>Xd #                                       ",
"                                              $.%.h O % % $ $ 0 k L ~ ^ pXtX  ,                                         ",
"                                            - n -   1 o X p c g g k O.~ &XuXkXZ                                         ",
"                                            O z     . o % & & 9 7 7 & $ 2 gX  o                                         ",
"                                            - o   X % + r >.R.K.U.U. .1.A 1.4                                           ",
"                                            O . O X.0 ) ^ #XpXtXE.aX;X1.1.u.p                                           ",
"                                            o O O   $ R.K.*XpXXXl.T.cX3.u.w.0                                           ",
"                                    4.      o o o X o.O.L / K.P.W.=XI.    O.p                                           ",
"                                    $.C 3 + o o o X / 0 $ / ( T W.tX=X    m                                             ",
"                                      x < o   . + . X % 4 X.o.G J #XaX-X%Xi                                             ",
"                                        @ o   + - b Z b b p t t 7 / q.:.$                                               ",
"                                            x < 1 8.y.y.3.v 4 + > m a $                                                 ",
"                                          3 $.3 3 n z 8.9.B Z b b p.B c *                                               ",
"                                        5 x %.v 2 s z $.Z $.i.7.<   4.V +                                               ",
"                                      o - 3 M $.3 2 o z $.e.d.7.<   $.@ 5                                               ",
"                                      - , s M +.2 , + 3 $.i.d.7.-   $.O o                                               ",
"                                    - , h 3.c x , % g V i.7.C z M a.h o ;                                               ",
"                                  < s 2 , s 4 5 O t u t m M n s i X.j f o                                               ",
"                              o + 3 B $.l ; + = t P Q T J G a 3   / %Xc +                                               ",
"                              O < b 9.e.V 5 O % e Q f.c.Y.=X@.L q.{ *Xm +                                               ",
"                              + - n 5.r.4.< X $ q I f.m.^.OX#.L { ] #XX.c -                                             ",
"                              . - Z 9.8.+.4 # 7 K x.n.A.A.N.` u D _ #./ 9.-                                             ",
"                              O 5 C a.8.B X.0 L ^ b.m.A.).^.S.^ ^ x.[ a e.C 1                                           ",
"                              O < 3 5.r.+.6.t / ( ^ E k.^.XXP.>.I.L.K.= C 8.2                                           ",
"                              . O i 6.r./ o./ w L D S F R ^ ~ :.%XJ @.@ c h *                                           ",
"                                X & @.eXlXlXeX9 q w 7 9 r r & = t y y o h j  .O.a                                       ",
"                                % % q.lXxXvX#Xw ' ' w 7 $ $ 6 7 6 $ & % j / %XkX*.                                      ",
"                                  # O.wXxXxX{ e W f.j.W ' D Q C.W _ ^ 7 a wX*XuX*.                                      ",
"                                  # p q.wXiXU.S V.N.N.k.b.' ! Z.g.j.W R D =X-.eX*.                                      ",
"                                    % = O.-XK ` D.].}.^.k.R Y h.h.N.N.N.W H   k 2                                       ",
"                                      X 8 P _ XX'.[. X}.oXc.g.V.m.h.Q.}./.` D                                           ",
"                                      r K R M./.!.[.[.[.5X.Xz.j.c.V.^.!.!.M.` K                                         ",
"                                      w ` D.(.~._.{.[.5X].F.x.S S ! M.(.(.~.`.K.K                                       ",
"                                    w _ M.Q. X{.{.{.!.F.l._ G 9 D H k.(.+X X+XXXL.{                                     ",
"                                  $ D x.^._.{.].].].k.H w $ % r L T f.N.].]. X@XY.{ 9                                   ",
"                                  7 H z.~. X[.!.G.G.Q q         $ q H E n.M.).^.j.D 7                                   ",
"                                6 e ` /.|.[.|.oXb.T q               7 S U Y g.N.z.R w &                                 ",
"                              7 e H x.G.|.|.`.b.e 7                   7 F R B.V.k.W G 6                                 ",
"                          $ ..P F F I k.Q.M._ D                         $ F I f.f.` J 9 X                               ",
"                          6 P R U I I g.V.b.D                           $ S U E x.Y e 6 $                               ",
"                        & w P R U E f.Y f.Q 8                           $ u D F F S @.0.X                               ",
"                        & q.^ H C.Z.C.! P q                               = a L | | L t $                               ",
"                      X * hX-X( ( #.P e 9                                 # = = = $ a c X X                             ",
"                    % i p +.X.y 8 0 0                                     @ b x 3 m C m : X                             ",
"                  o O 4 k +.N * X #                                       + 3 3 1 s c x i O O O                         ",
"                  1 : : 2 %.N m *                                         o < < < < f V Z : : 4                         ",
"                : i M %.N i X j p                                         . 3 3 b B C 4.4.4.9.M                         ",
"              . % c a.qXr.a.N =                                           . + . x v x M +.p.s.x @                       ",
"              + B gXjXgX%.gXs.g                                               O O O o . X . + . .                       ",
"              2 5.r.e.%.p.$.1                                                                                           ",
"              o O - + o + ;                                                                                             "
};
