/* XPM */
static char *naruto1705783788__1___1_1706039454[] = {
/* columns rows colors chars-per-pixel */
"60 60 235 2 ",
"   c None",
".  c #040501",
"X  c #0B0400",
"o  c #050A04",
"O  c #0A0B06",
"+  c #0B0D0A",
"@  c #090709",
"#  c #130201",
"$  c #1C0402",
"%  c #120A04",
"&  c #1C0B03",
"*  c #140E0A",
"=  c #1C0D0C",
"-  c #0D110C",
";  c #081304",
":  c #13130D",
">  c #19120D",
",  c #1A180B",
"<  c #131512",
"1  c #141913",
"2  c #1A1B14",
"3  c #1C1D1A",
"4  c #1A1514",
"5  c #111113",
"6  c #220301",
"7  c #290502",
"8  c #230A04",
"9  c #2A0B03",
"0  c #270E0C",
"q  c #330401",
"w  c #330B04",
"e  c #3C0802",
"r  c #2A1102",
"t  c #2B130C",
"y  c #251206",
"u  c #37180C",
"i  c #231B14",
"p  c #271916",
"a  c #381A15",
"s  c #1B211A",
"d  c #2B260E",
"f  c #22231C",
"g  c #2A221C",
"h  c #292A1E",
"j  c #32241C",
"k  c #38271D",
"l  c #34361F",
"z  c #1E2721",
"x  c #242522",
"c  c #2A2623",
"v  c #2C2B25",
"b  c #2C2E2A",
"n  c #212926",
"m  c #352A24",
"M  c #33322D",
"N  c #37342B",
"B  c #343532",
"V  c #3B3B3A",
"C  c #373936",
"Z  c #2D352F",
"A  c #210D34",
"S  c #4C0902",
"D  c #450A04",
"F  c #560A05",
"G  c #471607",
"H  c #5C1503",
"J  c #5B1B0C",
"K  c #551709",
"L  c #461B15",
"P  c #581C13",
"I  c #6C0200",
"U  c #650701",
"Y  c #750802",
"T  c #621C0B",
"R  c #671705",
"E  c #7D1403",
"W  c #761905",
"Q  c #631D13",
"!  c #721C16",
"~  c #47290B",
"^  c #56270C",
"/  c #49271A",
"(  c #572619",
")  c #55371C",
"_  c #662308",
"`  c #762306",
"'  c #632314",
"]  c #642C14",
"[  c #782915",
"{  c #663314",
"}  c #6C3308",
"|  c #481F20",
" . c #452B22",
".. c #542823",
"X. c #42342C",
"o. c #493427",
"O. c #56382A",
"+. c #443D35",
"@. c #67382B",
"#. c #793524",
"$. c #3E423C",
"%. c #43423C",
"&. c #4A423D",
"*. c #574237",
"=. c #514726",
"-. c #7D4423",
";. c #77582C",
":. c #644636",
">. c #704B34",
",. c #7F6023",
"<. c #6B4D06",
"1. c #3A1D4A",
"2. c #3C225A",
"3. c #4A2548",
"4. c #4D4D4A",
"5. c #474845",
"6. c #574B41",
"7. c #4C5250",
"8. c #5B5D59",
"9. c #575754",
"0. c #6D5342",
"q. c #755545",
"w. c #685052",
"e. c #5B635E",
"r. c #64625C",
"t. c #786A4B",
"y. c #5B5E60",
"u. c #735878",
"i. c #5D6261",
"p. c #676763",
"a. c #716C66",
"s. c #787975",
"d. c #6F7B77",
"f. c #891804",
"g. c #921B04",
"h. c #A41A04",
"j. c #882708",
"k. c #962805",
"l. c #83340C",
"z. c #9C3606",
"x. c #882D17",
"c. c #962C15",
"v. c #863D19",
"b. c #963819",
"n. c #A92903",
"m. c #B42F0E",
"M. c #A73806",
"N. c #B43707",
"B. c #A83B14",
"V. c #B53B18",
"C. c #8E3221",
"Z. c #A93627",
"A. c #C7360C",
"S. c #954F08",
"D. c #B44406",
"F. c #BB5517",
"G. c #B34F0C",
"H. c #85680B",
"J. c #886919",
"K. c #864627",
"L. c #95452A",
"P. c #9D5428",
"I. c #884B39",
"U. c #8C5535",
"Y. c #B25531",
"T. c #99663D",
"R. c #8D642F",
"E. c #BC7834",
"W. c #B1613A",
"Q. c #C8470A",
"!. c #D3550C",
"~. c #D85B0E",
"^. c #C64612",
"/. c #C7571B",
"(. c #D85B15",
"). c #D05311",
"_. c #E25B0C",
"`. c #D86918",
"'. c #D27510",
"]. c #E76409",
"[. c #F4740D",
"{. c #F9730F",
"}. c #E7681A",
"|. c #E97514",
" X c #F87715",
".X c #CC5324",
"XX c #C86725",
"oX c #D46926",
"OX c #CC6339",
"+X c #F87923",
"@X c #E36B22",
"#X c #995E44",
"$X c #855C42",
"%X c #8D664E",
"&X c #A7764B",
"*X c #AB7859",
"=X c #AF6944",
"-X c #937461",
";X c #A97F78",
":X c #B18F1C",
">X c #9D8123",
",X c #B49933",
"<X c #CA9511",
"1X c #DBA818",
"2X c #CEB21D",
"3X c #E8B917",
"4X c #DBB536",
"5X c #E08E34",
"6X c #FCDD37",
"7X c #FFDE26",
"8X c #FFE12D",
"9X c #E6C816",
"0X c #968150",
"qX c #87857F",
"wX c #B48E73",
"eX c #B49276",
"rX c #B18C69",
"tX c #CC9452",
"yX c #D1AE52",
"uX c #C8A17B",
"iX c #D9A078",
"pX c #EBB66D",
"aX c #CD9976",
"sX c #DDC441",
"dX c #F9DA45",
"fX c #D7C06B",
"gX c #9A948E",
"hX c #A79283",
"jX c #AFACA6",
"kX c #C3A88B",
"lX c #D5B293",
"zX c #D5A889",
"xX c #E4B995",
"cX c #D09A90",
"vX c #ECC59D",
/* pixels */
"                                                                                                                        ",
"                                              +     &                                                                   ",
"                                        ;     . $ & ) u                                                                 ",
"                                        o . d ,XH.r J.~ % $Xt.                                                          ",
"                                        l t.d 6X9X:X4XH.R.yX;.$                                                         ",
"                                        =.fX<.7X7X8X6X<X5X5X} 7 q                                                       ",
"                                      N 0XyX2X3X3X3X2X'.`.Q.N.x.( /                                                     ",
"                                    o.0XyX:XdX<X1X<XG.D.^.^..XOXL.) #                                                   ",
"                                    :.rX,.H.sX2X8X<XS.z..XF.b.Z.( 6                                                     ",
"                                      $ u >X,XdX4XS._ R [ J P ..$ y h &.                                                ",
"                                        *   tXfX) ~ a k 0 = = # % % c $.%.                                              ",
"                                        Z kXuX&X~ O.k g p v p X o <   ; n -                                             ",
"                                        O   gX4 = 8 9 9 9 & & % o @     z @                                             ",
"                                          > C A A  .U.U.K.T.;.r % % X   O -                                             ",
"                                          A u.3.1.;XiXE.tXpXT.^ ) 9 N O o o                                             ",
"                                          0 w.u.3.cX#Xl.XXpX&X-.$X6   + O o                                             ",
"                                          t O.    I.=XW.P.K.( G O.o.X O o o       5.                                    ",
"                                            c     =XtXW.! ..m # y / X o . o @ 3 C $.                                    ",
"                                            p t.-XiX#XJ D o.X.0 % X . O .   o 1 n                                       ",
"                                              & :.q./ 7 a 0 p b b Z b < ;   @ @                                         ",
"                                                & j k : @ 4 c 5.y.i.9.1 1 n                                             ",
"                                              : c N p.Z b B B 7.8.z c 2 3 $.2                                           ",
"                                              - V 5.  1 7.e.1.$.$.z s 3 v 5.f -                                         ",
"                                              < 5 +.  ; 7.d.e.$.z O , 3 +.b s 1 O                                       ",
"                                              o @ $.  - 7.d.e.$.z ; 2 , &.M , , :                                       ",
"                                              ; o g a.b n C 7.e.1.p ; , s c $.h : -                                     ",
"                                              o s g o.f s v Z v t u t X 4 4 x , 2 3 <                                   ",
"                                              + v %X/   i u G J Q Q P a * + O b $.N 3 - .                               ",
"                                              @ m *X{ U.m @.W.Y.c.f.Q e & + 5 V r.7.b - +                               ",
"                                            - v m %X{ ) L v.OX^.m.f.U q $ X < 7.p.5.x < O                               ",
"                                            : 9. .#.W e u ` N.A.A.n.j.K 7 # > +.8.9.Z - .                               ",
"                                          1 C r.a [ c.^ ^ b.^.).A.m.b.( L 9 C B 8.a.V - O                               ",
"                                          2 8.C y K.L.I.>.P.XX/.k.E _ ( / a 6.&.r.4.3 < O                               ",
"                                          > v c O @.P %X:.G _ H F S G u w k  . .r.*.i O .                               ",
"                                      u O./ g n O = y t & 8 r 9 9 9 q q 9 wXlXlXeX:.$ X                                 ",
"                                      *.kX%X) p % % & 7 9 $ $ 6 6 e ' ( w #XvXxXlXq.& %                                 ",
"                                      *.uX&XwXa 7 ^ _ W b.Q D ' ` ` j.W D ] xXxXwXO.#                                   ",
"                                      *.eXK.=XD R ` g.g.Z.! Q C.k.N.N.N.F U.iXwX0.p #                                   ",
"                                      2 m   J W M.N.N.h.h.W R k.Q.}.}.D.` K %XO.= %                                     ",
"                                          D ` .X}.A.n.m.m.g.c.oX}. X[.`.XX_ / 9 #                                       ",
"                                        K j.M.!.!.^.B.c.k.c..X+X[.[.[.!.).z.R G y                                       ",
"                                      G v.oX(.(.(.m.` G D l./.|.5X[.[.].~.`.N.j.w                                       ",
"                                    ] P.XX+X X+X(.k.R e 9 G _ } Q.!. X{.{. XQ.M.T q                                     ",
"                                  9 ] Y.}. X].].M.f.T L r % # q K k.}.].].{._.^.c.G $                                   ",
"                                  9 S f.Q.).n.n.E H q $         w _ S.V.!.{.{.~.z.H 7                                   ",
"                                & w R z.N.k.I U S 7               e T b.oX|.[.|./.` e $                                 ",
"                                6 G ! k.V.b.R K 7                   q e S.XX|.|.F.x.R e 7                               ",
"                              X 9 K ` f.f.Y F 6                         e _ M.Q.g.I F S P ..$                           ",
"                              & 6 e ! f.E U S $                           D b.D.g.Y I U F ( 6                           ",
"                              # :.@.F F F L a $                           8 P f.Y f.f.U R P w $                         ",
"                              & t a L | L a 6                               e P ! c.Z.x.R P q.%                         ",
"                            X X m a 8 = = = @                                 9 w ( #.( ..-XhX= X                       ",
"                            o < v +.v 3 c b @                                     9 t 8 y o.+.i i %                     ",
"                        O o o s x x f < 4 3 @                                       X X : X.+.v > O o                   ",
"                        2 : , l V f < 1 < < @                                         = m N +.4 : : 1                   ",
"                        N 9.4.7.4.V Z b 3 3 .                                         i j X i N %.M f *                 ",
"                      o x -Xp.1.M x v x . O .                                           * X.a.r.qXa.C * .               ",
"                      . . o o @ . @ O O O                                               g s.gX%.gXjXgXN +               ",
"                                                                                          1 $.p.%.e.8.5.2               ",
"                                                                                            o + o O O o o               "
};
