/* XPM */
static char *_792__1_1705782644[] = {
/* columns rows colors chars-per-pixel */
"60 60 45 1 ",
"  c #9086AE",
". c #9387B1",
"X c #9C8DBD",
"o c #9F90BE",
"O c #A091BF",
"+ c #9D8EC0",
"@ c #A392C5",
"# c #A694CA",
"$ c #A996CC",
"% c #AC99CD",
"& c #B19DCE",
"* c #AB97D2",
"= c #AE9AD2",
"- c #B29DD4",
"; c #B49EDA",
": c #B4A1CF",
"> c #B6A1D4",
", c #B9A3D6",
"< c #B7A0DB",
"1 c #BBA4DC",
"2 c #BEA9DC",
"3 c #B7A0E0",
"4 c #BDA4E2",
"5 c #BEA8E0",
"6 c #C1A7DE",
"7 c #C2ABDE",
"8 c #C5B0DF",
"9 c #C1A7E2",
"0 c #C4ABE3",
"q c #C9AEE6",
"w c #C5ABE8",
"e c #CAAEE9",
"r c #C7B0E4",
"t c #CAB2E6",
"y c #CFBCE7",
"u c #CDB3EA",
"i c #CFB8E9",
"p c #D1B5EC",
"a c #D4BBED",
"s c #D7BEF0",
"d c #D8BFF0",
"f c #D6C0EE",
"g c #D8C2EF",
"h c #D7C0F0",
"j c #D8C0F0",
/* pixels */
".#-#-$9*;q-q,0;;q1wq9;;;<<<o$5rw<<1<==;4w610-491019-@%$-+;X ",
"==;$3-e-,uqq0;0-10q1<;;<6<06=59w1<14;;-;1w4=-6;q00q;;O-;%4%*",
"%=q&6%;96d86p62qq1>u0;41494p20eutw4144;w7-;q6&7e-qp&4%-;>9$&",
"q1q,6;-e6ip-eqai7qp70tuq4<<11=41<444et910q16uqq6&p669&7;066w",
"7O6p-0-,67p66ai1qq60w00wtq0<0-<440uew9q911011q9=-q,;%,66a,66",
"76&777q7787--,>01-4119e004<;w<;<4;40w94-1;$1;&-@&66;6q6q26u0",
"uq666-&;;1;;;&11%11;99960444e4;444490609-1;$<%%;-;--;-66&0tu",
"669,-;1-=%%-;%=@&-6u91wpeww0e4w944wee1;0e>-$#%*-*#$-6q7->ww2",
"66-6;=#*;19ew040>1arqppeeeppppeepe9wweeqiu-,4499q09;;-6uq676",
"&6q&%*-=;;--t->6,ai7qqqqeeeuppuu999weeqe7ai:7-60-16q0q618a7>",
"q6%;;=@*;141pq6q7a2puqwww9wepppw44344wee07a6w1iu6qqq->up76p&",
"1-7;*==44;41qe;977&06qw419w0wpu434;;4w407%6w41pq60qpq007ii&O",
";,##*;4;4;09441e7-0qe4>4e9weepw90;94;-0q07>uq<91e77eeapq7ar6",
"qq-3;;;*49e61e6qq%7upee9eueeue4pq0e949eu71%u00u<epee1peaa0a0",
"p,-;*#*@*@066pqpt7aappeqqapqa99ewep2wwepap2itqa<q6--&667a0ia",
"0;;3;;91;*1;6q0aruqppppsqupep1990p0ppwepqrqii0027q76qapaaytp",
"p93*$#9;-;0uir7s72tde00pt1uieww9u9>ew09ts0,ta2iipq09qq7qtshh",
"9;==;;694112uiug,ta8taaaaassepeppsiiiaiw0s28hri0060qpppaittt",
"e96==*==%;6aa>ia7aryapeaaadaepppupssu5isitarh80ap66;0;7utsaa",
"q<**4=6<6q>qt7ar2qapw9paaajapspsuspus04uaa22ai7u02a7qq6e>0ta",
"&q;966q6e6pa02p22aiiwqpuaaasppaspuspup0wwaa,0a2agiup0e6ptti2",
"69<p,q66e0ep10q:ir0i1wessasae4eesauspw9<u2ir,prtaiqe0p68stht",
"eq6e>e96q16-%<12022>qewatsswwe0apdpppwe<;;27,72:776e0q02sthi",
"pqqe,pq6,&--9eiaaaa2eqpa4arueattaapwdeew1saaaaut62&76pu<suss",
"de6q,eq,rq9--19trr7>ptpa2s<rutf0tuy5haie:0rttt717ai76ut6sudh",
"deqq,6qp01;6uaaaiiu1t16u2p20a2a80us0s2052aiaaafaq68paq66pids",
"epqp,6e61eqq60821,tttqiptr5,f2ri>riiiitttr15rr0taaa7qp,8paha",
"7p6pq66696100trtishau0ruaas2it7i,aayitushhfautii87tpq76ptaht",
"ttu7d6191;ppe9psst00916707r>8i1p>58rr0rrrtassaqasi7qt,israaa",
"66d8ed76949eeuttwteww9weut9>ra0a,tafysiuaispapaaaupt7ts8ia0y",
"8,6y6pp69w49epseqquuupiaaai4tprf2yafhsssssipassaipsitsu8f2iu",
"p,&7u6q91<ppwupaaw191128r7r0ia2a22rrrrrtr0sssspisyrqitqs72ih",
"q6;&7p6696,qqqq7uapuq0qtada7fa2f2aaaiiuafjfittiat2iietf72afh",
"6--6,qe66wwq6671;>0r0wqutitrgr8a>taiatuiar15rtttasaruhr7ufjs",
"ru1p66qp96-9quauuit&6;7u6aqaa7ft0aa2a1002aaayfhau0tssirahijj",
"gaqp6eq,7e9--16q001&ewaa1aiat7friui1dpue>rrttt00taytrasphajj",
"gpqq1pq<-&-19qpaaau1qwpa0fti9auuisp5sueerhfasaai02,ttsauhahh",
"su7q6qq6e66-%;>20,1%99wsuaa1wu0pesppswu1122t502>0pihpssusihi",
"tu6e6eq6u7ap1qq&eq9e;0weuusuw00uisupuew4a2i82arthsihphspsist",
",t,q66q6eqaa01q16spu9eewaauppsaapppeee9eifa1ta2asaisihusaia2",
"r6>=4-9<6q6qq6at27aa01isusppspppusata04esa55firit2atiits2tta",
"puw<;*==%66pa>iy7atahu0sspsssssssaasu7pdttirh80air01w2eiiafa",
"013;;;431166tita:tartssipsdspssppsapisptta8rhtit06qeppasutuu",
"au4=$#4;-;9par6a1>iat99uw1ppsupuiw>uw09psr,ia2iiuw05tt5tiasg",
"069;;;44-;91187prrqqewesriata0aiidtiapppturii9t12<<4tuisaiti",
"a1;;###@%#066pqpr7ppuewq0hauhiaspsswappaaa2awta,02=-$54rarta",
"wq;4;3;=44e61e6q0%1quw44wutihswssisaupaar1%pwqt;qeww1uisa0sr",
";1;%*34;419999;e7>60w4-494wwijutstusi7tpq7-uq<9<94<4wpst,t05",
"1$4;$*=;4;4;ee<w02&0204;;;ei9sswesppppeq7&8q96p7141w90r7p7>0",
"0<$-;$@$;;9;p86e6a2auw9;3;ehweppeupppppat8a6q1pu1w06>>uar1p:",
"&11%@+$*;===q&;7>ai7qqw433waattppppsapiu7ai:0-6t-100wt0,7p6>",
"1;-;;@XX#;449919:2auqpuw449e94eesppsaapeya-8q9wtppuq117uu677",
";61%#*#@XX+#=$%@&-7pq6qpw4344;9w0upaat0pp6-%%-;1>>10qpi1,q66",
"e06-;*#*#%#@=@-;%666qe00944<94;9qqquuupq676%0>>10rrr7O-2&7pe",
"60>71;;;-;-@@-&01;076pppt041e49wttpufap7t7>qq>2;6iri7%>t6666",
"6&>p&;$$%-q%;e86qu0qaaaaaaaep6euaaagfaaautar7da,7a78,6&,p&&1",
"q;q;-;%4-7q&q6pp6qarufhauwwer,uuweuphhatia0raati2sr7q--&076e",
"%%9&4$;;;p66e667q66ye490qupa0uaaaputt09iy50pq>ra1ya,0--1;0%%",
"==;%;*4-;e6q9;9-1qt61<99w0w7>0qu01ww9914ruq<;q1uqqp;99-;%;%*",
".$=@-$;@;0-019;;q6qqw<;<11;O%0tu5461<;4eq060-461019-;3$-@;X "
};
