/* XPM */
static char *itachi_51706633806[] = {
/* columns rows colors chars-per-pixel */
"60 60 256 2 ",
"   c None",
".  c #070809",
"X  c #0A0A0B",
"o  c #080707",
"O  c #140A0A",
"+  c #1C0C0C",
"@  c #0D0E12",
"#  c #120F12",
"$  c #0E1015",
"%  c #0E1018",
"&  c #121115",
"*  c #13141B",
"=  c #191319",
"-  c #15181F",
";  c #1D1419",
":  c #230D0C",
">  c #2C0E0E",
",  c #2C100F",
"<  c #23130E",
"1  c #32120F",
"2  c #241113",
"3  c #261617",
"4  c #331011",
"5  c #3B1213",
"6  c #3A1817",
"7  c #250F11",
"8  c #33221D",
"9  c #141721",
"0  c #161A23",
"q  c #1A1B25",
"w  c #1B1E2A",
"e  c #161C29",
"r  c #211921",
"t  c #211E2D",
"y  c #1C212D",
"u  c #1E2433",
"i  c #1F2837",
"p  c #1E263C",
"a  c #1F283F",
"s  c #24242C",
"d  c #39232A",
"f  c #222534",
"g  c #232837",
"h  c #22293A",
"j  c #292C3E",
"k  c #292B36",
"l  c #392B38",
"z  c #2F3034",
"x  c gray23",
"c  c #33313A",
"v  c #441314",
"b  c #4C1415",
"n  c #4C1D13",
"m  c #451919",
"M  c #531516",
"N  c #5C1716",
"B  c #541619",
"V  c #5C171A",
"C  c #5C191C",
"Z  c #61191A",
"A  c #6E191C",
"S  c #611717",
"D  c #4E2015",
"F  c #522115",
"G  c #693B1C",
"H  c #7A3B1C",
"J  c #662917",
"K  c #451D23",
"L  c #551C23",
"P  c #631C22",
"I  c #6B1E25",
"U  c #761C20",
"Y  c #49262A",
"T  c #472A33",
"R  c #592B38",
"E  c #4B3237",
"W  c #5F3C3F",
"Q  c #5C3126",
"!  c #632527",
"~  c #68252A",
"^  c #673C22",
"/  c #612C31",
"(  c #6A2935",
")  c #702C32",
"_  c #6D2E33",
"`  c #714222",
"'  c #6D443A",
"]  c #232B42",
"[  c #2A2F42",
"{  c #2C3144",
"}  c #2E334B",
"|  c #313446",
" . c #32354A",
".. c #35384D",
"X. c #393A4D",
"o. c #3B3845",
"O. c #363A52",
"+. c #3C3D54",
"@. c #3D3F58",
"#. c #323750",
"$. c #4D394F",
"%. c #433949",
"&. c #563141",
"*. c #593443",
"=. c #51374C",
"-. c #443D54",
";. c #4E3B51",
":. c #403F58",
">. c #3E4154",
",. c #3F4059",
"<. c #45444E",
"1. c #414256",
"2. c #4B4B52",
"3. c #404058",
"4. c #474A5A",
"5. c #584A54",
"6. c #50505B",
"7. c #524145",
"8. c #714F41",
"9. c #654C58",
"0. c #735559",
"q. c #744F4C",
"w. c #6F605B",
"e. c #434562",
"r. c #4B4B62",
"t. c #4A4C69",
"y. c #4F506A",
"u. c #52536A",
"i. c #5C5E6B",
"p. c #555767",
"a. c #545473",
"s. c #585878",
"d. c #595A73",
"f. c #675B65",
"g. c #775760",
"h. c #5F6172",
"j. c #63646D",
"k. c #7E6466",
"l. c #6D6D7C",
"z. c #646374",
"x. c #7B7C7E",
"c. c #861C24",
"v. c #881F27",
"b. c #8A232B",
"n. c #89373C",
"m. c #8E3138",
"M. c #874117",
"N. c #B0581F",
"B. c #854927",
"V. c #82593A",
"C. c #975936",
"Z. c #8A5025",
"A. c #98633B",
"S. c #BA622D",
"D. c #B56A3A",
"F. c #C97030",
"G. c #903E44",
"H. c #934C51",
"J. c #9C5459",
"K. c #8C484F",
"L. c #986041",
"P. c #AF7556",
"I. c #8F6870",
"U. c #A56368",
"Y. c #C97E48",
"T. c #B5836D",
"R. c #C78456",
"E. c #DB9259",
"W. c #D08F62",
"Q. c #DE9E6D",
"!. c #E19E67",
"~. c #DFA26E",
"^. c #DCA271",
"/. c #E6A774",
"(. c #6D6F83",
"). c #717383",
"_. c #AC7C80",
"`. c #7D8089",
"'. c #87888E",
"]. c #93848B",
"[. c #8A8794",
"{. c #9A8C95",
"}. c #94949A",
"|. c #9B929D",
" X c #A28785",
".X c #B7989B",
"XX c #A9A9A9",
"oX c #A7A7AA",
"OX c #B3B2B3",
"+X c #B9B9BA",
"@X c #BAA7AB",
"#X c #ECB586",
"$X c #E5BB97",
"%X c #F1BA89",
"&X c #F6C497",
"*X c #F9CEA4",
"=X c gray82",
"-X c black",
";X c black",
":X c black",
">X c black",
",X c black",
"<X c black",
"1X c black",
"2X c black",
"3X c black",
"4X c black",
"5X c black",
"6X c black",
"7X c black",
"8X c black",
"9X c black",
"0X c black",
"qX c black",
"wX c black",
"eX c black",
"rX c black",
"tX c black",
"yX c black",
"uX c black",
"iX c black",
"pX c black",
"aX c black",
"sX c black",
"dX c black",
"fX c black",
"gX c black",
"hX c black",
"jX c black",
"kX c black",
"lX c black",
"zX c black",
"xX c black",
"cX c black",
"vX c black",
"bX c black",
"nX c black",
"mX c black",
"MX c black",
"NX c black",
"BX c black",
"VX c black",
"CX c black",
"ZX c black",
"AX c black",
"SX c black",
"DX c black",
"FX c black",
"GX c black",
"HX c black",
"JX c black",
"KX c black",
"LX c black",
"PX c black",
"IX c black",
"UX c black",
/* pixels */
"                                                        X X X                                                           ",
"                                                    & y X.3.+.f *                                                       ",
"                                                @ u 3.a.s.s.s.a.3.[ w                                                   ",
"                                              @ w ,.s.s.s.s.s.s.s.s.3.w                                                 ",
"                                              * } a.s.s.s.y.@.a.s.e.t.f                                                 ",
"                                            $ u #.s.s.s.a.[ u j ..] O.+.-                                               ",
"                                            $ p #.t.t.s.@.* | x.j.p h e.w                                               ",
"                                            $ p } @.e.s.} $ { i.4.j y @.w                                               ",
"                                            $ p ] ] e.t.] % h 2.X...s +.w                                               ",
"                                            X 9 h t ..O.p.Y E A.q.l 7 +.w                                               ",
"                                            + ; Y J w h  XP.R.&X$XT.v  .q O                                             ",
"                                        o : M b n n 0 - P.&X%X#X!.Q.F e * v b 5                                         ",
"                                          + 2 2 1 : 9 * Z.#X/.E.~.C.: # 5 U I 4                                         ",
"                                          . 9 u s ; 0 0 < B.Q.^.V.v > 4 U Z :                                           ",
"                                            @ e h ..@.@.d : G ^ , V b B M +                                             ",
"                                            X * q f ..-.( 1 M.H q 5 A v O                                               ",
"                                          $ h +.+. .{ +.( 6 L.' h 4 U 1 @ X                                             ",
"                                        * [ @.3.3.+.+.-.&.L l @.j B U > e 9 o                                           ",
"                                      X j @.3.3.@.{  .3.-.~ ; +.| L U > e [ @                                           ",
"                                      w +.3.3.3.| y  .3.-.R K | ] T B 3 u  .9                                           ",
"                                      j 3.3.3.+.u 9  .3.3.;.I = p d 1 9 h } y o                                         ",
"                                    @ [ 3.3.3.O.0 9  .3.3.;.I = a q 4 3 y ] [ $                                         ",
"                                    w +.3.3.@.{ 0 *  .3...-.R 6 w 0 1 > e h O.f o                                       ",
"                                    g 3.3.3.+.h 9 0 ..@.[ +.;.P * 9 > > @ u  .{ X                                       ",
"                                    g 3.3.3.+.w * { @.,.} ..-.Y + . o X X g  .| @                                       ",
"                                  $ j 3.3.3.+.w *  .3.3.@.[ +.o.F G ^ < @ ..+.{ -                                       ",
"                                  - +.3.3.@.[ 0 *  .3.3.@.[ j ' R.%XR.v @ h j h 9                                       ",
"                                  0 >.3.3.+.u X *  .3.3.@.c 8.$X*X&XV.0 u i h u *                                       ",
"                                  q 3.3.3.+.y @ * h 3.3.+.8 Y./.%XE.G e h e 9 $ o                                       ",
"                                @ j 3.3.3.+.y * 9 w 3.,.[ 3 D.F.Y.S.^ %.>.q $ * o                                       ",
"                                - @.3.3.3.+.u 0 9 w ,.@.h ; H N.` F n K 9.1.9 0 o                                       ",
"                                - @.3.3.3.} h h 9 9 +.r.>. .5.Q , : M S / j.y u *                                       ",
"                                q @.3.3.3.[ u h 9 * 4.}.OXI.k.9.v > ! W 9.E - h q @                                     ",
"                              & | 3.3.3.3.{ u h 9 * ..j.}._.m.I v > _ K.( b * h y $                                     ",
"                              * +.3.3.3.3.{ g h 0 9  .,.r.@Xm.c.B v c.c.) 5.0 e @                                       ",
"                              * +.3.3.3.3.{ g h 0 9 O.3.r.|.U.J.R B H.J.g.| X X                                         ",
"                              X f ..@.@.@.[ u 9 & y ,.3.3.r.[.].W B I.[.>.w o                                           ",
"                                  * 0 0 - = 3 v T u.@.@.3.-.@.=.C b ( @.[ y X                                           ",
"                                        O v N P 0.'.).u.@.3.-.E 6 3 R -.{ u 0 o                                         ",
"                                      . 5 S S ! q.U._.{.u.@.;.P * q V &.[ h y o                                         ",
"                                      X 7.0.! N A c.v..X(.@.;.P - q V &.4.1.2.@                                         ",
"                                      o m ! S S n.H.b..X(.@.;.P - q V *.`.]._ O                                         ",
"                                      o 5 S N A G. X X X{.u.$.P - q V &.>.j.9.=                                         ",
"                                      q m S C ) v.m.H.m.@Xz.$.P * q V &.+.h 4.6.X                                       ",
"                                      o.9.! / g.b.b.b.J.{.u.$.P - q V &.+.h } <.X                                       ",
"                                      9 >.f.f.f..X.X.X[.y.@.;.P - q V &.+.j h 0 o                                       ",
"                                      9 h } }  .i.h.h.r.@.,.;.P * q V &.,...h 0 o                                       ",
"                                      - g u u [ @.@.@.,.3.3.;.P * q V &.3.+.h 9 o                                       ",
"                                      @ * w u h X.X.X.X.X.X.%.C * 0 M E +. .w @ o                                       ",
"                                          X X @ 9 9 9 & & & & O * w = - & @ X                                           ",
"                                              q p.i.X.@         @ X.i.p.q                                               ",
"                                              x +XXX2.            2.XX+Xx                                               ",
"                                              x =XOX2.            2.OX=Xx                                               ",
"                                              c oX}.<.            2.OX+Xc                                               ",
"                                              s j.,.y             2.XX).j *                                             ",
"                                            X y e.r.g $           2.'.l.d.w.^ +                                         ",
"                                            $  .k.T.P.Q &         k l.l. XW.S.B.D                                       ",
"                                            @ <.P.D.D.C.8         % 4.>.o.T d Y 3                                       ",
"                                            @ q s r q r #                       .                                       ",
"                                                                                                                        "
};
