/* XPM */
static char *itachi_31706633756[] = {
/* columns rows colors chars-per-pixel */
"60 60 256 2 ",
"   c None",
".  c #070707",
"X  c #0A0A0B",
"o  c #080809",
"O  c #140A0A",
"+  c #1E0C0C",
"@  c #0D0E12",
"#  c #1C0F11",
"$  c #160F11",
"%  c #0E1115",
"&  c #0F1218",
"*  c #121116",
"=  c #1B1116",
"-  c #12151C",
";  c #1B151D",
":  c #14181F",
">  c #1B181D",
",  c #240D0E",
"<  c #2B0E0F",
"1  c #2C100F",
"2  c #26110C",
"3  c #33120E",
"4  c #2D0F10",
"5  c #2C1311",
"6  c #231519",
"7  c #251618",
"8  c #341010",
"9  c #3A1213",
"0  c #391918",
"q  c #2C221F",
"w  c #39211B",
"e  c #121620",
"r  c #151923",
"t  c #1B1B24",
"y  c #161C29",
"u  c #191E29",
"i  c #1D1720",
"p  c #211A21",
"a  c #221E2D",
"s  c #1C212D",
"d  c #1F2025",
"f  c #1D2534",
"g  c #1E253B",
"h  c #23242C",
"j  c #39222A",
"k  c #222634",
"l  c #242836",
"z  c #22293A",
"x  c #292C3D",
"c  c #292B36",
"v  c #382C3A",
"b  c #2F3034",
"n  c gray23",
"m  c #33313A",
"M  c #441313",
"N  c #4B1F14",
"B  c #4B181B",
"V  c #5C1717",
"C  c #551619",
"Z  c #5B191E",
"A  c #541815",
"S  c #601716",
"D  c #62191A",
"F  c #6B1A1D",
"G  c #601718",
"H  c #751A1E",
"J  c #4E2015",
"K  c #522216",
"L  c #6A2A16",
"P  c #6A3B1D",
"I  c #7E3C1C",
"U  c #4B1B21",
"Y  c #471D22",
"T  c #5A1B21",
"R  c #611C21",
"E  c #761C20",
"W  c #48272B",
"Q  c #5E2629",
"!  c #5B3926",
"~  c #452933",
"^  c #4F3139",
"/  c #612324",
"(  c #6B222B",
")  c #6D2227",
"_  c #74252B",
"`  c #683C21",
"'  c #642B32",
"]  c #663635",
"[  c #723336",
"{  c #714222",
"}  c #674335",
"|  c #1F2840",
" . c #232B41",
".. c #292F42",
"X. c #2C3144",
"o. c #2E334A",
"O. c #313244",
"+. c #32364B",
"@. c #35384D",
"#. c #393B4D",
"$. c #3B3545",
"%. c #323750",
"&. c #363A51",
"*. c #3B3C54",
"=. c #3D3F58",
"-. c #4D3344",
";. c #463849",
":. c #54384C",
">. c #533445",
",. c #453D54",
"<. c #5A3F52",
"1. c #652F40",
"2. c #653642",
"3. c #753B40",
"4. c #3F4253",
"5. c #3F4159",
"6. c #45444C",
"7. c #414157",
"8. c #464955",
"9. c #4B4B52",
"0. c #414159",
"q. c #484A5F",
"w. c #584A54",
"e. c #55494C",
"r. c #734B49",
"t. c #644A56",
"y. c #745651",
"u. c #6F605B",
"i. c #424561",
"p. c #4A4B64",
"a. c #4C4D6A",
"s. c #4E506B",
"d. c #5C5E6B",
"f. c #555666",
"g. c #535473",
"h. c #585878",
"j. c #5B5B73",
"k. c #665A66",
"l. c #775E66",
"z. c #5F6171",
"x. c #7D6262",
"c. c #6D6C7B",
"v. c #676574",
"b. c #776B75",
"n. c #79747C",
"m. c #7B7C7E",
"M. c #60636B",
"N. c #861D24",
"B. c #8A242C",
"V. c #812127",
"C. c #8B2F36",
"Z. c #B0581F",
"A. c #83593A",
"S. c #975A36",
"D. c #864325",
"F. c #98633B",
"G. c #BA622D",
"H. c #B56A3A",
"J. c #C97030",
"K. c #8F3B41",
"L. c #943B41",
"P. c #8C4A4E",
"I. c #944349",
"U. c #824E56",
"Y. c #974D53",
"T. c #A0565B",
"R. c #98694E",
"E. c #B1775C",
"W. c #87646A",
"Q. c #99676B",
"!. c #8C6F7C",
"~. c #947074",
"^. c #A17478",
"/. c #C97E48",
"(. c #B5836D",
"). c #C88657",
"_. c #DD9054",
"`. c #D08F62",
"'. c #DE9E6E",
"]. c #CD986B",
"[. c #E29E68",
"{. c #E0A26F",
"}. c #E3A573",
"|. c #737581",
" X c #807B88",
".X c #88898C",
"XX c #8C8994",
"oX c #9A9299",
"OX c #A48986",
"+X c #B6989B",
"@X c #A99FA3",
"#X c #A9A9A9",
"$X c #A7A7AA",
"%X c #B4A7AB",
"&X c #B6B6B7",
"*X c #E5AF81",
"=X c #EEB88A",
"-X c #E5BB97",
";X c #F7C698",
":X c #F9CEA4",
">X c gray82",
",X c black",
"<X c black",
"1X c black",
"2X c black",
"3X c black",
"4X c black",
"5X c black",
"6X c black",
"7X c black",
"8X c black",
"9X c black",
"0X c black",
"qX c black",
"wX c black",
"eX c black",
"rX c black",
"tX c black",
"yX c black",
"uX c black",
"iX c black",
"pX c black",
"aX c black",
"sX c black",
"dX c black",
"fX c black",
"gX c black",
"hX c black",
"jX c black",
"kX c black",
"lX c black",
"zX c black",
"xX c black",
"cX c black",
"vX c black",
"bX c black",
"nX c black",
"mX c black",
"MX c black",
"NX c black",
"BX c black",
"VX c black",
"CX c black",
"ZX c black",
"AX c black",
"SX c black",
"DX c black",
"FX c black",
"GX c black",
"HX c black",
"JX c black",
"KX c black",
"LX c black",
"PX c black",
"IX c black",
"UX c black",
/* pixels */
"                                                        X X X                                                           ",
"                                                    * s #.0.*.k -                                                       ",
"                                                @ f 0.g.h.h.h.g.q...u                                                   ",
"                                              @ u 5.h.h.h.h.h.h.h.h.0.h                                                 ",
"                                              - o.g.h.h.h.s.=.g.h.i.a.p.u                                               ",
"                                            % g %.h.h.h.g...g x @. .*.g.O.*                                             ",
"                                            % g %.a.a.h.=.- O.m.M.z z p.a.-                                             ",
"                                            % g o.=.i.g...% X.d.8.x s =.c X                                             ",
"                                            % g  . .i.&.g & z 9.#.@.h *.t . o                                           ",
"                                            X r z a z o.f.W ^ F.y.v , z t                                               ",
"                                            + = W L r z OXE.).;X-X(.M e f * , < o                                       ",
"                                          o < , 5 N - * } R.R.*X[.'.L # f 7 G M                                         ",
"                                            @ l x O.X.X.m U w ).{.S.A A 7 9 4                                           ",
"                                              r X.*.0.0.,.( W ].A.M V G M B O                                           ",
"                                              % f x +.*.,.( 0 ! 1 V G F M +                                             ",
"                                            X - u s g ..O.R 3 P i 9 F M O                                               ",
"                                          % z *.*.+...@.,.( 5 ] z 8 E 8 @ X                                             ",
"                                        @ x *.0.0.*.*.0.,.( 6 *.x C E < r r o                                           ",
"                                      X c *.0.0.*.X.+.0.,.( # ..O.U E < u ..@                                           ",
"                                      X X.0.0.0.+.s +.0.,.( = g  .~ C 6 f +.r                                           ",
"                                      s *.0.0.*.f r +.0.,.( 6 g | j 8 r z o.s o                                         ",
"                                      x 0.0.0.&.r - +.0.7.>.T ; | u 8 5 s ....%                                         ",
"                                      x 0.0.*.X.r - +.0.@.,.( = g r 8 < r z &.k o                                       ",
"                                      x 0.0.*.z r r +.=...*.>.B r r < < @ f +.X.X                                       ",
"                                    - o.0.0.*.z r : +.0.+.@.,.W + o o X o k +.O.@                                       ",
"                                    - +.0.0.*.z r : X.*.*...*.$.K P ` 2 @ +.*.X.-                                       ",
"                                    - o.*.0.*.z r r z @.*...c } ).=X).0 @ z x z r                                       ",
"                                    - z +.0.*.z u r f @.*.m r.-X:X;XA.t f g z f -                                       ",
"                                  o - z +.0.*.z z : r @.*.q /.}.=X_.P y z r r % o                                       ",
"                                  - X.z +.0.*.+.z : r @...7 H.J./.G.` ;.4.u @ : o                                       ",
"                                  t *.X.+.0.0.*...r r @.X.p I Z.{ K N U t.8.r f u @                                     ",
"                                  t 0.+.+.0.0.0.+.f : z *.@.w.Q 1 , A G ' v.l f z s -                                   ",
"                                  t 0.o.+.0.0.0.&.x - 9.n.l.W.t.M < / ] t.t.f.u z z u @                                 ",
"                                  t =.*.*.*.+.*.0.+.- 6.c.^.C.) M < [ U.' ' k.u k u @                                   ",
"                                  t ,.0.0.*.z X.+.x f r z c.W.V.M M N.N.) k.#.@ * @                                     ",
"                                  t ,.0.0.*.z z z f u r % +.b.Y.Z C I.T.r.d.f .                                         ",
"                                  t 0.0.0.*.k r r r r r r k s.!.T C W.XXc.&.u o                                         ",
"                                  > #.#.+.u 6 M M e.8.z x +.5.:.Z C 1.=.,.*.s o                                         ",
"                                  X * * * X M G G y.|.q.*.,.5.:.Z C 1.5.0.0.O.%                                         ",
"                                          X B G G ] Q.oXj.,.5.:.Z < / ;.0.0.&.r .                                       ",
"                                          * w.r.D V H ~.@Xc.0.:.T X B ^ ,.q.f.$.+                                       ",
"                                            7 / G D P.P.I.%Xs.:.Z - i R -.p..X~.Z                                       ",
"                                            + V G H Y.OXOX^.XX<.Z e f 0 Q $.#.n.3.B                                     ",
"                                            + V / _ N.K.I.L.%Xw.U i g ; F ;.z +.k.k.O.                                  ",
"                                            + V 2.U.B.B.B.Q.XXq.-.9 r s B ~ +.x *.*.x r @                               ",
"                                            > u.k.b.+X+X+X Xq.5.-.9 r  .- 5 W z z z z z r X                             ",
"                                            : O.X.@.f.v.j.q.*.0.;.0 ; g & + Y z z z z s % o                             ",
"                                          o u g g f ..*.*.0.0.0.+.j 8 y & + Y s r r r @                                 ",
"                                          o u f f f f z +.#.#.O.r = $ y - O # @ .                                       ",
"                                          o X @ - - - @ % * * X & g g g -   .                                           ",
"                                              t f.d.#.@         @ #.d.d.t                                               ",
"                                              n &X#X9.            9.#X&Xn                                               ",
"                                              n >X&X9.            9.&X>Xn                                               ",
"                                              m $XoX6.            9.&X&Xb                                               ",
"                                              h z.5.s             9.#X|.x -                                             ",
"                                            X s i.p.l %           9..Xc.j.u.` +                                         ",
"                                            @ +.x.(.E.! *         c c.c.OX`.G.D.J                                       ",
"                                            @ 6.E.H.H.S.w         & 8.#.$.~ j W 7                                       ",
"                                            @ u h p i p $                       o                                       ",
"                                                                                                                        "
};
