/* XPM */
static char *a4d73536fb254bdde4e92ded35013f32e0UKWbjKDv6IEaWN[] = {
/* columns rows colors chars-per-pixel */
"50 50 173 2 ",
"   c #0B0F1A",
".  c #161E2E",
"X  c #171F31",
"o  c #172334",
"O  c #1A2334",
"+  c #17253D",
"@  c #1D263B",
"#  c #1E293D",
"$  c #222D32",
"%  c #20273C",
"&  c #222A3E",
"*  c #25313D",
"=  c #29343E",
"-  c #1D2D42",
";  c #1F3045",
":  c #212741",
">  c #242D44",
",  c #292E45",
"<  c #262E48",
"1  c #292F49",
"2  c #253146",
"3  c #293246",
"4  c #273840",
"5  c #2C3943",
"6  c #25334A",
"7  c #2A354E",
"8  c #2B354E",
"9  c #29364F",
"0  c #2A364E",
"q  c #2A364F",
"w  c #2B364F",
"e  c #2A354D",
"r  c #2C344C",
"t  c #2D354C",
"y  c #2D354D",
"u  c #2E354C",
"i  c #2C364D",
"p  c #2D364D",
"a  c #2F364D",
"s  c #2C364E",
"d  c #2D364E",
"f  c #2C374E",
"g  c #2D374E",
"h  c #2C364F",
"j  c #2D364F",
"k  c #2E364E",
"l  c #2E374E",
"z  c #2F374E",
"x  c #2F364F",
"c  c #2E374F",
"v  c #2F374F",
"b  c #2B344B",
"n  c #26384E",
"m  c #2D384E",
"M  c #2D384F",
"N  c #2F384F",
"B  c #2F394F",
"V  c #2C394D",
"C  c #30374B",
"Z  c #30364D",
"A  c #32394F",
"S  c #313A4E",
"D  c #31394E",
"F  c #253751",
"G  c #293550",
"H  c #2A3550",
"J  c #2A3650",
"K  c #2B3650",
"L  c #2B3750",
"P  c #2B3753",
"I  c #2C3650",
"U  c #2C3750",
"Y  c #2D3750",
"T  c #2C3751",
"R  c #2E3650",
"E  c #2E3750",
"W  c #2D3651",
"Q  c #263952",
"!  c #2D3850",
"~  c #2E3851",
"^  c #2F3851",
"/  c #2F3951",
"(  c #2F3A50",
")  c #2F3A51",
"_  c #2C3852",
"`  c #2C3953",
"'  c #2F3852",
"]  c #2F3952",
"[  c #2E3853",
"{  c #2E3953",
"}  c #2F3953",
"|  c #2D3A52",
" . c #2E3A53",
".. c #2F3A53",
"X. c #2F3B53",
"o. c #2B3854",
"O. c #2C3854",
"+. c #2C3954",
"@. c #2F3A54",
"#. c #2F3B56",
"$. c #2E3A57",
"%. c #2C3B53",
"&. c #2D3D59",
"*. c #303752",
"=. c #303850",
"-. c #303950",
";. c #313950",
":. c #313951",
">. c #323A51",
",. c #313952",
"<. c #303953",
"1. c #313953",
"2. c #313A52",
"3. c #303B52",
"4. c #303A53",
"5. c #313B53",
"6. c #343A50",
"7. c #313C52",
"8. c #303954",
"9. c #323954",
"0. c #333A55",
"q. c #313B56",
"w. c #333C54",
"e. c #323C55",
"r. c #313C57",
"t. c #333D57",
"y. c #343D57",
"u. c #343E56",
"i. c #353E57",
"p. c #323B53",
"a. c #393E52",
"s. c #333C58",
"d. c #333E58",
"f. c #343D58",
"g. c #353E59",
"h. c #373F5A",
"j. c #303D5C",
"k. c #323F5D",
"l. c #333E5A",
"z. c #383F59",
"x. c #37404E",
"c. c #2E4054",
"v. c #2E4159",
"b. c #334355",
"n. c #3D4356",
"m. c #35415D",
"M. c #37415D",
"N. c #37415E",
"B. c #34425C",
"V. c #39425D",
"C. c #3A425C",
"Z. c #39435E",
"A. c #3E445D",
"S. c #3A435C",
"D. c #3A4A5C",
"F. c #364160",
"G. c #374260",
"H. c #344462",
"J. c #3A4563",
"K. c #3D4560",
"L. c #3F4761",
"P. c #3B4663",
"I. c #354A62",
"U. c #3E4B65",
"Y. c #3B496A",
"T. c #3D5065",
"R. c #414A65",
"E. c #434A64",
"W. c #404E60",
"Q. c #494C63",
"!. c #425367",
"~. c #44556C",
"^. c #48576F",
/* pixels */
"z w.V.i.i.i.V.m.k.k.s.J o.e J @.@.J & A.g.4.) @.> 3 b 2 e J ) ) z > r E.H.H.m.m.s.@.i.4.<.4.@.<.m.> ",
"E.2 > 2 2 2 e b e ) ) e > > 2 e e 2 3 g.J J 2 > > 3 b b b U ) ) <.> r s.b b 2 2 b > > 2 b 2 2 > e @ ",
"L.2 > b b b > b b e e > 2 b e e z e 3 U b b b 2 > z e b e e e e e > > e 3 2 2 2 2 > > b e z 2 > 2 @ ",
"L.> b <.) ) b > b 2 b 3 b 2 2 > > b 3 ) 2 z 2 2 > z e e e e e b e @ > J 3 2 2 2 2 2 2 e ) z b 2 2 @ ",
"L.> > z <.B B 2 > > , b > > > > 2 : > w.> 2 > 2 > z U e e e e D <.# 2 e > 2 2 2 < > 2 e w.<.z b 2 @ ",
"V.< > b ) <.<.z : > b 3 b J U U z 2 : ) 2 : > 2 > z <.e e e e <.b # > e > 2 2 b z 2 2 e <.) ) ) > @ ",
"g.> 2 z B ) <.<.b & > > e J z z b 2 3 z b b # 2 2 6.B e e e z <.* & 3 b > b 2 3 r 2 2 e ) ) ) e > # ",
"J.2 > U ) ) z z b > > > : @.7.B > 2 D w.z <.> > > 3 2 e ) <.<.4.* * 5 e b z C r z b 2 e U ) e 2 > O ",
"J.e > > b > > > 2 > > 3 > > 4.) b e V <.3 b > # O % O # 2 b b & # 2 5 ) 2 b 3 b 1 & & > 2 > # # O   ",
"J.) 2 2 > > > > > 3 b r b & b w.4.U * b.g.z b z <.4.4.b r g.e 7.b.b.D.D.I.I.&.o.6 %.#.#.#.#.#.6 6 @ ",
"H.) B z e b > > r D b 2 2 > b s.w.r = J.) J 2 2 2 B w.z & 2 > S.o.Q v.v.H.I.H.n - Q o.Q Q Q Q n n - ",
"m.z z B 7.B r z <.<.2 > > : ) 4.4.) 5 s.2 < > 2 > > b z = > O B n n Q #.v.v.&.6 - 6 Q n n 6 6 ; ; o ",
"m.r b 2 b e z Z <.z 2 & : b z D B J r s.2 > 2 2 > > > z t z > #.Q 6 %.v.v.v.%.6 - - n n 6 6 6 ; 6 @ ",
"H.z ) z > > 2 2 b e > : e r z z r e 3 g.> 2 b 2 2 2 > r z <.b J n n %.v.v.v.%.n 6 - ; - - 2 2 2 6 o ",
"J.) ) e > 2 > > > 2 : 2 2 b r r r U > J > 3 z b 2 2 b e e B > n n Q %.v.v.v.%.Q n - - n n * 2 6 6 - ",
"Y.) 3 2 > 2 e z b > & b 3 3 3 3 r *.> 6 > r 4.) b r B b 2 2 # %.Q n Q v.v.v.%.n 6 - ; %.%.6 ; 6 n 6 ",
"J.B 3 > 2 b B 7.<.z : 2 2 3 r r C <.3 e > z <.4.B z z 2 b b @ o.Q n %.v.v.v.%.n 6 - n #.b.%.; 6 n ; ",
"H.e > > > b U ) B U > : > , 3 3 t 3 * b > 2 r <.) e 2 > z b # @.Q Q v.&.Q Q n 6 2 6 Q #.v.b.6 6 6 # ",
"> 3 > > & & 3 b 3 b O & 3 > & & 2 3 * 3 & > # > @ > > 2 > > O %.F n n n 6 6 6 2 - %.%.%.%.%.n 2 n @ ",
"Q.L.) 4.4.m.M.m.U.P.3 4.M.s.H.s.z B ) s.@.#.e s.> &.o.@.n 6 & %.n 6 4 6 n 6 6 - n %.%.#.%.#.%.2 6 # ",
"A.2 > > > 2 2 e z e > > z b 2 > > & # 2 2 > > z 2 &.> > # + o 2 ; 2 6 6 ; ; 6 n Q Q Q Q #.v.Q 6 2 O ",
"A.b 2 2 b b e e e 2 > > b e 2 2 2 > > D z > b <.> o.> - # # O o.; - 6 - 6 %.Q n Q %.n n n %.n 2 6 - ",
"V.2 2 > 2 2 2 e e 2 2 2 > > > > 2 e r b > > z <.> < - - - # o &.n - - 2 %.%.%.n n %.n n 6 6 6 6 6 # ",
"z.> 2 b 2 > > b e e e e 2 2 > > b Z C b & > *.) > < + - + + + %.%.n 2 Q %.Q %.n 6 n Q n 6 6 n n 6 # ",
"V.2 2 z z b 2 2 2 b b b e e > 2 2 b z z b > z @.# # @ O X @ O 4 6 2 > 2 2 > > > # O O - - # # - - o ",
"g.2 > b z z 2 > > 2 b b e > : 2 2 > > 3 z 2 : 6 % n.i.w.w.w.w.e z e C L.4.w.4.i.w.s.<.) @.s.i.) @.< ",
"m.e > 2 z e > > > > > > > > > b 2 > > > b e 2 $ O M.2 b b > > > r : D > : b 2 e b e 2 2 2 2 2 > > # ",
"k.z > 2 U 2 > 2 2 2 2 2 2 2 b 2 2 2 > > b e ) 5 % i.3 3 > > <.Z D > z e # # > U ) z b b b b 3 > 2 # ",
"k.<.> 2 2 > 2 2 2 b e 3 2 b 4 2 2 > > 2 b e 6.S > g.2 > > > b <.a.> Z 2 2 > @ : b ) B b e r 3 2 2 @ ",
"k.<.2 > > 2 e 2 2 3 z z > z D b b 2 b b b Z 6.i.> J.U b 2 2 > 2 <.2 w.e > 2 2 > & > r z z z 3 2 b : ",
"m.<.b > > 2 e e b r z <.: e w.<.e b e e r Z A i.> J.) e 2 > 2 > > & w.@.2 e b b 2 & $ r z b 2 2 z > ",
"s.B b > > b b b e D D B & 2 <.Z *.z ) B B z 6.7.> m.z e 2 > > 2 2 @ 4.s.e J ) ) e 2 # & b b 2 > b % ",
"k.e 2 : e b U ) ) <.<.e & J U z z <.w.<.<.<.6.4.b M.e e 2 > 2 2 e > @.4.z ) <.6.4.2 > > @ : > > b : ",
"> : O @ > > > & > > > # O X O @ @ & > b > > > > O s.> 2 2 2 2 2 e 2 s.4.) ) z <.4.e & > 2 b r z 2 > ",
"1 r r 4.U z 4.r e H e 2 % 2 > & n.V n &.B.B.m.%.> ) : > > 2 2 > b > s.w.U ) ) 7.<.e & > B a.4.4.e . ",
"g.r U W *.e W 8.U e e > : *.e w.I.4 b n n n o.n * ) 2 b b 2 2 2 2 & @.@.) <.<.<.<.e > & 2 e b 3 z O ",
"<., , 1 r U e W U 1 < < : r b ) v.2 e n n 6 6 ; > w.b z z e e B z : 4.%.J ) ) <.<.e > > 2 > 2 2 r > ",
"g.1 > > , e e e r 1 < > < r e <.B.6 n Q Q n n 6 2 m.e ) z 2 e e D > U e z i.4.<.z 2 > 3 r 2 2 2 b > ",
"V.1 > > < 1 1 1 1 > > 1 r *.< B v.6 n n Q 4 6 n 2 m.b b < 2 2 e <.> e e e <.<.<.b > > 3 r b 2 2 b > ",
"j.r > < < < < < > < < e U e : e %.n Q n n 4 6 Q 4 ) > @ > 2 > & # @ z U e z z e > 2 2 3 z r b 3 z & ",
"j.r 1 < > > 1 r Z r < 1 < > # 2 %.) Q F 6 6 6 %.* x.r > e U e e b O ) ) 2 3 2 2 > 2 2 z z r b r z # ",
"&.e 1 > < > r *.r r 1 > < 1 < 6 v.%.%.n 6 n V %.b U.@.e w.g.m.g.s.b ) e > > > > > > e z r r r C D > ",
"$.< > 1 1 < : > : > < > < < : 2 5 * 2 6 ; 6 Q ; # m.> : > 3 z z e & J > > > > > > : > b e b 3 b b O ",
"& r b <.*.z b 3 > > 1 > & z , z z 3 3 2 2 - < - # m.b 2 : > 2 2 2 > & b B B B r b 3 e > 3 z C r 3 , ",
"<.w.s.M.M.V.s.e J e g.4.i.P.M.m.s.m.@.U @.J s.A.e @.b 2 > z B <.6.> n.L.~.~.^.^.!.U.T.7.L.J.L.V.m.J.",
"> 2 e z B B b : # > b 2 z z , 3 > , 2 > > > r a.2 @.> 2 > D a.a.n.b M.%.b.D.D.D.D.b.x.V r 3 b 2 2 > ",
"3 b b e ) w.<.r > > b > r ) 3 > 3 r r 2 > > 2 z > m.> 2 > z a.a.a.2 S.b.b.W.D.D.D.D.b.V r r z b 2 2 ",
"> 3 b b b <.<.D r > b & > e > : > 2 b 3 b b > > & s.> r 2 > > r D : b.c.B D.D.b.b.b.b.r b t t 3 3 2 ",
"2 3 b z b z <.<.z b 2 : > e 3 3 2 2 2 z r z b 2 & s.3 r b 2 > : 2 @ %.D.b.D.D.b.b.b.b.B z z r b 2 b ",
": # @ O @ # : : # & @ X . : & @ # : O @ & & : @ O M.3 b b e b 2 6 O 2 B 6 5 5 6 5 5 b & & & : # @ # "
};
